<?xml version="1.0" standalone="no"?>
<!DOCTYPE svg PUBLIC "-//W3C//DTD SVG 1.1//EN" "http://www.w3.org/Graphics/SVG/1.1/DTD/svg11.dtd" >
<svg xmlns="http://www.w3.org/2000/svg" xmlns:xlink="http://www.w3.org/1999/xlink" version="1.1">
<metadata>
Created by FontForge 20170924 at Wed Jan  9 04:18:13 2019
 By www-data
(c) 2014, 2015, 2018 Adobe (http://www.adobe.com/), with Reserved Font Name 'Source'.
</metadata>
<defs>
<font id="SourceHanSansCN-Regular" horiz-adv-x="2048" >
  <font-face 
    font-family="Source Han Sans CN"
    font-weight="400"
    font-stretch="normal"
    units-per-em="2048"
    panose-1="2 11 5 0 0 0 0 0 0 0"
    ascent="1802"
    descent="-246"
    x-height="1112"
    cap-height="1503"
    bbox="-90 -512 2009 1802"
    underline-thickness="102"
    underline-position="-358"
    unicode-range="U+0030-FF1F"
  />
<missing-glyph 
d="M205 -246v2048h1638v-2048h-1638zM1024 862l651 838h-1302zM1090 778l651 -837v1675zM373 -143h1302l-651 837zM307 1616v-1675l651 837z" />
    <glyph glyph-name=".notdef" 
d="M205 -246v2048h1638v-2048h-1638zM1024 862l651 838h-1302zM1090 778l651 -837v1675zM373 -143h1302l-651 837zM307 1616v-1675l651 837z" />
    <glyph glyph-name="zero" unicode="0" horiz-adv-x="1137" 
d="M569 -27q-215 0 -342 195.5t-127 587.5q0 391 127 582.5t342 191.5q214 0 340.5 -192t126.5 -582q0 -392 -126.5 -587.5t-340.5 -195.5zM569 123q128 0 206.5 150.5t78.5 482.5q0 328 -78.5 476t-206.5 148q-129 0 -207.5 -148t-78.5 -476q0 -332 78.5 -482.5
t207.5 -150.5z" />
    <glyph glyph-name="one" unicode="1" horiz-adv-x="1137" 
d="M180 0v156h334v1120h-266v119q100 18 175 44.5t136 63.5h143v-1347h302v-156h-824z" />
    <glyph glyph-name="two" unicode="2" horiz-adv-x="1137" 
d="M90 0v111q353 308 520.5 541.5t167.5 426.5q0 129 -68 213t-208 84q-92 0 -171 -50t-141 -124l-108 107q92 100 195.5 160.5t246.5 60.5q202 0 319.5 -121.5t117.5 -323.5q0 -149 -74 -301.5t-206 -311t-308 -325.5q58 5 123.5 10t121.5 5h416v-162h-944z" />
    <glyph glyph-name="three" unicode="3" horiz-adv-x="1137" 
d="M541 -27q-177 0 -292.5 62.5t-189.5 142.5l95 123q66 -69 155.5 -120.5t216.5 -51.5q134 0 219.5 75t85.5 206q0 89 -44.5 156t-146.5 105t-275 38v143q154 0 245 38t130.5 103t39.5 146q0 107 -68.5 172t-185.5 65q-90 0 -169 -40.5t-142 -104.5l-100 119
q84 78 186.5 129t233.5 51q125 0 224 -45t155.5 -129t56.5 -203q0 -137 -74 -227.5t-192 -134.5v-9q132 -30 224.5 -128.5t92.5 -252.5q0 -134 -65 -229.5t-174 -147t-242 -51.5z" />
    <glyph glyph-name="four" unicode="4" horiz-adv-x="1137" 
d="M236 563h460v461q0 55 3.5 134.5t7.5 137.5h-9q-27 -55 -57.5 -110.5t-62.5 -110.5zM696 0v414h-655v123l625 966h206v-940h199v-149h-199v-414h-176z" />
    <glyph glyph-name="five" unicode="5" horiz-adv-x="1137" 
d="M535 -27q-176 0 -289 62t-189 137l93 123q64 -65 151 -115.5t217 -50.5q88 0 160.5 43t116 122.5t43.5 188.5q0 162 -85 252t-227 90q-75 0 -130 -22.5t-120 -65.5l-100 62l47 704h731v-162h-567l-37 -434q51 28 103.5 44t119.5 16q125 0 228 -51t164 -156.5t61 -270.5
q0 -164 -70 -279.5t-182 -176t-239 -60.5z" />
    <glyph glyph-name="six" unicode="6" horiz-adv-x="1137" 
d="M600 793q-71 0 -154.5 -45t-152.5 -148q17 -233 99.5 -357t223.5 -124q108 0 182 94t74 248q0 152 -67.5 242t-204.5 90zM616 -27q-144 0 -257.5 83t-178.5 248t-65 413q0 220 45 375t123 251.5t178 141.5t209 45q116 0 202 -44t148 -110l-102 -116q-45 53 -109 83.5
t-133 30.5q-103 0 -189.5 -59t-140 -195.5t-57.5 -369.5q69 84 161 133t181 49q190 0 303 -118t113 -353q0 -146 -59 -255.5t-157 -171t-215 -61.5z" />
    <glyph glyph-name="seven" unicode="7" horiz-adv-x="1137" 
d="M406 0q9 214 35 393t75 337.5t125.5 308t185.5 302.5h-727v162h940v-114q-132 -169 -214.5 -325.5t-129 -318t-67 -343.5t-29.5 -402h-194z" />
    <glyph glyph-name="eight" unicode="8" horiz-adv-x="1137" 
d="M571 -27q-138 0 -246 52t-170.5 142t-62.5 206q0 100 40.5 179.5t104 138.5t132.5 95v11q-83 57 -143 142.5t-60 203.5q0 114 54 200t147.5 133.5t210.5 47.5q128 0 220 -50.5t141.5 -140t49.5 -205.5q0 -78 -31.5 -147.5t-77.5 -124.5t-92 -90v-10q66 -38 124 -90.5
t94 -126.5t36 -177q0 -109 -58.5 -197t-164.5 -140t-248 -52zM674 815q155 137 155 303q0 111 -66 189.5t-188 78.5q-104 0 -171.5 -67t-67.5 -176q0 -90 47.5 -150t125 -101.5t165.5 -76.5zM575 113q130 0 209.5 70.5t79.5 183.5q0 100 -55 164.5t-145.5 109.5t-196.5 88
q-91 -58 -148 -145t-57 -195q0 -80 41 -142.5t111.5 -98t160.5 -35.5z" />
    <glyph glyph-name="nine" unicode="9" horiz-adv-x="1137" 
d="M266 1042q0 -152 67.5 -242.5t201.5 -90.5q76 0 158.5 47t154.5 153q-15 232 -99 352.5t-229 120.5q-107 0 -180.5 -93t-73.5 -247zM479 -27q-121 0 -209 44t-151 110l104 117q46 -54 112 -84.5t138 -30.5q97 0 180.5 59.5t136.5 196t60 369.5q-69 -85 -160.5 -135
t-185.5 -50q-188 0 -301 120t-113 353q0 146 59 255.5t156.5 171t214.5 61.5q145 0 258.5 -79.5t179.5 -238t66 -397.5q0 -228 -44.5 -388.5t-121.5 -260.5t-175 -146.5t-204 -46.5z" />
    <glyph glyph-name="A" unicode="A" horiz-adv-x="1243" 
d="M465 840l-74 -230h455l-72 230q-41 127 -78 252t-73 256h-9q-35 -133 -72 -257t-77 -251zM6 0l510 1503h211l510 -1503h-201l-143 459h-549l-145 -459h-193z" />
    <glyph glyph-name="B" unicode="B" horiz-adv-x="1346" 
d="M205 0v1503h446q153 0 269 -37t181.5 -118t65.5 -213q0 -113 -57 -202.5t-162 -123.5v-10q134 -26 219.5 -115.5t85.5 -243.5q0 -147 -72 -245t-200.5 -146.5t-296.5 -48.5h-479zM395 862h223q194 0 278.5 67t84.5 181q0 132 -89.5 187t-264.5 55h-232v-490zM395 152h262
q194 0 302 71t108 223q0 140 -106.5 206.5t-303.5 66.5h-262v-567z" />
    <glyph glyph-name="C" unicode="C" horiz-adv-x="1307" 
d="M772 -27q-186 0 -334 92.5t-233.5 266.5t-85.5 418q0 242 87 417t237.5 269t340.5 94q137 0 242.5 -57t169.5 -130l-102 -122q-59 63 -135 103t-173 40q-142 0 -248.5 -74t-165.5 -210.5t-59 -323.5q0 -190 57 -328t162 -213.5t248 -75.5q108 0 192 45t156 123l105 -119
q-89 -102 -202 -158.5t-259 -56.5z" />
    <glyph glyph-name="D" unicode="D" horiz-adv-x="1407" 
d="M205 0v1503h377q345 0 526.5 -194.5t181.5 -552.5q0 -357 -180.5 -556.5t-519.5 -199.5h-385zM395 156h170q266 0 397.5 158t131.5 442q0 285 -131.5 438.5t-397.5 153.5h-170v-1192z" />
    <glyph glyph-name="E" unicode="E" horiz-adv-x="1204" 
d="M205 0v1503h866v-162h-676v-471h570v-161h-570v-547h699v-162h-889z" />
    <glyph glyph-name="F" unicode="F" horiz-adv-x="1130" 
d="M205 0v1503h866v-162h-676v-507h574v-160h-574v-674h-190z" />
    <glyph glyph-name="G" unicode="G" horiz-adv-x="1411" 
d="M795 -27q-197 0 -349.5 92.5t-239.5 266.5t-87 418q0 242 89 417t244.5 269t354.5 94q157 0 262.5 -58.5t169.5 -128.5l-102 -122q-57 60 -134 101.5t-192 41.5q-151 0 -262.5 -74t-173.5 -210.5t-62 -323.5q0 -284 129.5 -450.5t372.5 -166.5q80 0 153 23.5t117 64.5
v394h-317v157h492v-631q-73 -75 -193 -124.5t-272 -49.5z" />
    <glyph glyph-name="H" unicode="H" horiz-adv-x="1491" 
d="M205 0v1503h190v-631h701v631h188v-1503h-188v709h-701v-709h-190z" />
    <glyph glyph-name="I" unicode="I" horiz-adv-x="600" 
d="M205 0v1503h190v-1503h-190z" />
    <glyph glyph-name="J" unicode="J" horiz-adv-x="1098" 
d="M485 -27q-142 0 -244.5 60.5t-168.5 177.5l135 96q51 -89 115 -128.5t145 -39.5q121 0 181.5 74.5t60.5 245.5v1044h188v-1063q0 -129 -42 -235t-132.5 -169t-237.5 -63z" />
    <glyph glyph-name="K" unicode="K" horiz-adv-x="1323" 
d="M205 0v1503h190v-755h6l627 755h213l-469 -573l543 -930h-211l-451 782l-258 -307v-475h-190z" />
    <glyph glyph-name="L" unicode="L" horiz-adv-x="1112" 
d="M205 0v1503h190v-1341h656v-162h-846z" />
    <glyph glyph-name="M" unicode="M" horiz-adv-x="1663" 
d="M205 0v1503h229l289 -805q26 -78 52.5 -156.5t53.5 -156.5h11q26 78 51 156.5t51 156.5l287 805h229v-1503h-178v831q0 97 8.5 221t16.5 222h-9l-118 -342l-285 -780h-127l-285 780l-119 342h-8q6 -98 14.5 -222t8.5 -221v-831h-172z" />
    <glyph glyph-name="N" unicode="N" horiz-adv-x="1479" 
d="M205 0v1503h196l547 -948l160 -309h10q-7 113 -15.5 235.5t-8.5 239.5v782h180v-1503h-195l-547 948l-161 309h-9q7 -113 15 -231.5t8 -237.5v-788h-180z" />
    <glyph glyph-name="O" unicode="O" horiz-adv-x="1520" 
d="M760 -27q-189 0 -333.5 95.5t-226 271t-81.5 416.5q0 240 81.5 413.5t226 267t333.5 93.5q188 0 332.5 -93.5t226.5 -267t82 -413.5q0 -241 -82 -416.5t-226.5 -271t-332.5 -95.5zM760 139q134 0 234.5 76t156 214.5t55.5 326.5t-55.5 324.5t-156 210t-234.5 73.5
q-135 0 -235.5 -73.5t-156 -210t-55.5 -324.5t55.5 -326.5t156 -214.5t235.5 -76z" />
    <glyph glyph-name="P" unicode="P" horiz-adv-x="1294" 
d="M205 0v1503h430q168 0 294 -42t196.5 -139t70.5 -261q0 -159 -69.5 -262t-194 -153t-289.5 -50h-248v-596h-190zM395 750h223q199 0 294.5 75t95.5 236q0 163 -100 225t-298 62h-215v-598z" />
    <glyph glyph-name="Q" unicode="Q" horiz-adv-x="1520" 
d="M760 129q134 0 234.5 77t156 217.5t55.5 332.5q0 188 -55.5 324.5t-156 210t-234.5 73.5q-135 0 -235.5 -73.5t-156 -210t-55.5 -324.5q0 -192 55.5 -332.5t156 -217.5t235.5 -77zM1219 -377q-208 0 -348 100.5t-203 256.5q-164 22 -287.5 122.5t-192.5 267t-69 386.5
q0 240 81.5 413.5t226 267t333.5 93.5q188 0 332.5 -93.5t226.5 -267t82 -413.5q0 -216 -66.5 -380t-186 -265.5t-278.5 -128.5q51 -100 149.5 -150.5t219.5 -50.5q51 0 90 6.5t68 15.5l37 -147q-34 -12 -91 -22.5t-124 -10.5z" />
    <glyph glyph-name="R" unicode="R" horiz-adv-x="1303" 
d="M205 0v1503h471q152 0 270.5 -40.5t186 -133.5t67.5 -250q0 -175 -93 -280t-247 -142l385 -657h-215l-364 637h-271v-637h-190zM395 791h252q177 0 271 71t94 217q0 149 -94 209t-271 60h-252v-557z" />
    <glyph glyph-name="S" unicode="S" horiz-adv-x="1223" 
d="M623 -27q-160 0 -294 60.5t-233 163.5l115 129q80 -85 188.5 -136t225.5 -51q147 0 231 67.5t84 178.5q0 77 -33 124t-89.5 79t-127.5 63l-217 94q-70 30 -140.5 78t-117.5 123t-47 184q0 116 61.5 206.5t168.5 142t243 51.5q134 0 248.5 -52t193.5 -135l-100 -120
q-69 64 -153.5 102.5t-188.5 38.5q-127 0 -204 -60t-77 -161q0 -73 38 -119t95 -76t115 -55l215 -92q87 -38 157 -88.5t111.5 -126t41.5 -187.5q0 -118 -62.5 -215t-177 -154t-270.5 -57z" />
    <glyph glyph-name="T" unicode="T" horiz-adv-x="1227" 
d="M518 0v1341h-455v162h1100v-162h-454v-1341h-191z" />
    <glyph glyph-name="U" unicode="U" horiz-adv-x="1477" 
d="M737 -27q-152 0 -274 61.5t-193 203t-71 383.5v882h190v-889q0 -181 46.5 -284.5t125.5 -147t176 -43.5q101 0 182 43.5t129 147t48 284.5v889h182v-882q0 -242 -71 -383.5t-193.5 -203t-276.5 -61.5z" />
    <glyph glyph-name="V" unicode="V" horiz-adv-x="1178" 
d="M481 0l-479 1503h199l243 -815q40 -132 71.5 -247.5t74.5 -247.5h8q41 132 73 247.5t72 247.5l242 815h193l-478 -1503h-219z" />
    <glyph glyph-name="W" unicode="W" horiz-adv-x="1798" 
d="M371 0l-318 1503h195l158 -819q21 -121 43.5 -242.5t44.5 -242.5h8q26 121 53.5 242.5t54.5 242.5l207 819h174l209 -819q28 -120 54.5 -241t52.5 -244h10q43 245 86 485l158 819h182l-311 -1503h-228l-227 905q-20 89 -37.5 172.5t-36.5 169.5h-8q-18 -86 -37.5 -169.5
t-38.5 -172.5l-223 -905h-225z" />
    <glyph glyph-name="X" unicode="X" horiz-adv-x="1174" 
d="M35 0l438 776l-410 727h209l205 -385q29 -52 55.5 -103t63.5 -116h8q31 65 55 116t52 103l200 385h199l-410 -737l439 -766h-209l-221 406q-30 56 -61.5 115t-67.5 126h-9q-32 -67 -61.5 -126t-58.5 -115l-218 -406h-198z" />
    <glyph glyph-name="Y" unicode="Y" horiz-adv-x="1087" 
d="M449 0v584l-451 919h203l192 -426q37 -83 72.5 -163t75.5 -164h8q40 84 78 164t71 163l195 426h197l-451 -919v-584h-190z" />
    <glyph glyph-name="Z" unicode="Z" horiz-adv-x="1235" 
d="M102 0v113l793 1228h-721v162h954v-112l-792 -1229h801v-162h-1035z" />
    <glyph glyph-name="a" unicode="a" horiz-adv-x="1155" 
d="M444 -27q-139 0 -232 82.5t-93 233.5q0 181 164.5 278.5t519.5 137.5q0 71 -19.5 135.5t-69 104.5t-141.5 40q-96 0 -181.5 -37t-151.5 -82l-74 129q77 49 191 97.5t247 48.5q203 0 294 -125.5t91 -331.5v-684h-153l-17 133h-6q-80 -66 -173 -113t-196 -47zM498 123
q81 0 152 37.5t153 109.5v312q-188 -23 -297.5 -61.5t-157 -93t-47.5 -126.5q0 -95 57 -136.5t140 -41.5z" />
    <glyph glyph-name="b" unicode="b" horiz-adv-x="1266" 
d="M678 -27q-77 0 -160 38t-156 104h-8l-16 -115h-150v1630h187v-446l-6 -201q75 66 165.5 112t182.5 46q144 0 243 -70.5t150 -198t51 -297.5q0 -191 -67.5 -325.5t-177.5 -205.5t-238 -71zM647 129q138 0 229 117.5t91 324.5q0 185 -67.5 298.5t-225.5 113.5
q-71 0 -145 -39t-154 -115v-583q74 -65 145.5 -91t126.5 -26z" />
    <glyph glyph-name="c" unicode="c" horiz-adv-x="1042" 
d="M627 -27q-148 0 -266 69t-187.5 199t-69.5 314q0 185 75 316t197.5 200.5t264.5 69.5q109 0 187.5 -39.5t138.5 -91.5l-97 -123q-49 43 -102 70.5t-119 27.5q-101 0 -180 -54t-124.5 -151t-45.5 -225t43.5 -224t121 -149t179.5 -53q77 0 143.5 31.5t118.5 79.5l82 -125
q-75 -68 -167.5 -105t-192.5 -37z" />
    <glyph glyph-name="d" unicode="d" horiz-adv-x="1270" 
d="M567 -27q-209 0 -333.5 152t-124.5 430q0 180 67 311.5t177 203t237 71.5q98 0 168.5 -35t144.5 -96l-8 192v428h184v-1630h-151l-17 131h-6q-66 -64 -152 -111t-186 -47zM608 129q77 0 146.5 38.5t140.5 115.5v583q-72 63 -137.5 90t-134.5 27q-91 0 -163.5 -53.5
t-115.5 -149.5t-43 -223q0 -201 80 -314.5t227 -113.5z" />
    <glyph glyph-name="e" unicode="e" horiz-adv-x="1135" 
d="M637 -27q-148 0 -268.5 69t-192.5 199.5t-72 313.5q0 180 72 311.5t186.5 203t243.5 71.5q212 0 327.5 -142t115.5 -381q0 -30 -3 -58t-6 -48h-749q9 -178 109.5 -283.5t258.5 -105.5q82 0 150 23t129 65l68 -123q-74 -48 -164.5 -81.5t-204.5 -33.5zM289 647h596
q0 168 -73 256t-204 88q-118 0 -210 -90.5t-109 -253.5z" />
    <glyph glyph-name="f" unicode="f" horiz-adv-x="666" 
d="M219 0v961h-151v141l151 10v178q0 169 79 268t245 99q50 0 99 -10t87 -27l-41 -141q-64 28 -125 28q-157 0 -157 -219v-176h235v-151h-235v-961h-187z" />
    <glyph glyph-name="g" unicode="g" horiz-adv-x="1153" 
d="M563 -512q-204 0 -331.5 77.5t-127.5 221.5q0 71 43 136t121 116v8q-44 26 -73 71t-29 111q0 69 41 123t84 84v8q-55 45 -100.5 122.5t-45.5 176.5q0 122 57.5 211.5t153 138t207.5 48.5q46 0 86.5 -9t69.5 -20h387v-143h-227q40 -39 65 -98t25 -132q0 -118 -54.5 -205
t-146.5 -134.5t-205 -47.5q-88 0 -166 39q-30 -26 -50.5 -56.5t-20.5 -76.5q0 -54 41 -87.5t153 -33.5h217q194 0 291.5 -63.5t97.5 -200.5q0 -103 -69 -191t-195.5 -141t-298.5 -53zM563 479q95 0 166.5 71.5t71.5 192.5q0 122 -69.5 191.5t-168.5 69.5q-98 0 -167.5 -69
t-69.5 -192q0 -121 70 -192.5t167 -71.5zM590 -385q106 0 186 33t124 85.5t44 110.5q0 77 -58.5 107.5t-168.5 30.5h-193q-30 0 -68 4.5t-75 13.5q-60 -43 -86.5 -91t-26.5 -97q0 -90 85.5 -143.5t236.5 -53.5z" />
    <glyph glyph-name="h" unicode="h" horiz-adv-x="1243" 
d="M188 0v1630h187v-446l-6 -230q76 77 165.5 132t202.5 55q175 0 257.5 -111.5t82.5 -324.5v-705h-186v680q0 157 -50 227t-161 70q-86 0 -153.5 -43t-151.5 -127v-807h-187z" />
    <glyph glyph-name="i" unicode="i" horiz-adv-x="563" 
d="M188 0v1112h187v-1112h-187zM283 1341q-56 0 -90.5 34.5t-34.5 90.5q0 54 34.5 87.5t90.5 33.5q55 0 90 -33.5t35 -87.5q0 -56 -35 -90.5t-90 -34.5z" />
    <glyph glyph-name="j" unicode="j" horiz-adv-x="565" 
d="M74 -498q-51 0 -93 9t-71 20l37 143q21 -7 48.5 -13.5t57.5 -6.5q83 0 110 59t27 160v1239h187v-1239q0 -170 -69.5 -270.5t-233.5 -100.5zM283 1341q-56 0 -90.5 34.5t-34.5 90.5q0 54 34.5 87.5t90.5 33.5q53 0 88 -33.5t35 -87.5q0 -56 -35 -90.5t-88 -34.5z" />
    <glyph glyph-name="k" unicode="k" horiz-adv-x="1130" 
d="M188 0v1630h185v-1106h6l475 588h207l-373 -446l422 -666h-203l-325 537l-209 -244v-293h-185z" />
    <glyph glyph-name="l" unicode="l" horiz-adv-x="584" 
d="M385 -27q-104 0 -150.5 65t-46.5 183v1409h187v-1421q0 -43 16 -61.5t37 -18.5q8 0 16 0.5t23 3.5l27 -143q-20 -8 -45.5 -12.5t-63.5 -4.5z" />
    <glyph glyph-name="m" unicode="m" horiz-adv-x="1896" 
d="M188 0v1112h154l16 -162h7q72 80 159 135.5t187 55.5q127 0 200 -57.5t107 -155.5q86 93 175.5 153t190.5 60q172 0 255 -111.5t83 -324.5v-705h-186v680q0 157 -50.5 227t-156.5 70q-126 0 -280 -170v-807h-187v680q0 157 -50.5 227t-156.5 70q-128 0 -280 -170v-807
h-187z" />
    <glyph glyph-name="n" unicode="n" horiz-adv-x="1251" 
d="M188 0v1112h154l16 -160h7q79 79 169 134t203 55q175 0 257.5 -111.5t82.5 -324.5v-705h-186v680q0 157 -50 227t-161 70q-86 0 -153.5 -43t-151.5 -127v-807h-187z" />
    <glyph glyph-name="o" unicode="o" horiz-adv-x="1241" 
d="M621 -27q-137 0 -254.5 69t-190 199t-72.5 314q0 185 72.5 316t190 200.5t254.5 69.5q136 0 253.5 -69.5t190 -200.5t72.5 -316q0 -184 -72.5 -314t-190 -199t-253.5 -69zM621 129q144 0 233.5 117t89.5 309q0 128 -40.5 225t-113.5 151t-169 54q-97 0 -169 -54
t-112.5 -151t-40.5 -225q0 -192 88.5 -309t233.5 -117z" />
    <glyph glyph-name="p" unicode="p" horiz-adv-x="1270" 
d="M188 -469v1581h154l16 -127h7q75 62 166 109t188 47q143 0 241.5 -70.5t149.5 -198.5t51 -299q0 -190 -67.5 -324t-177.5 -205t-238 -71q-75 0 -153.5 34t-153.5 95l4 -194v-377h-187zM647 129q138 0 229 117.5t91 324.5q0 185 -67.5 298.5t-225.5 113.5
q-71 0 -144.5 -39t-154.5 -115v-583q75 -65 146 -91t126 -26z" />
    <glyph glyph-name="q" unicode="q" horiz-adv-x="1270" 
d="M895 -469v395l8 203q-67 -66 -153 -111t-183 -45q-209 0 -333.5 152t-124.5 430q0 180 67 311.5t177 203t237 71.5q97 0 171 -34.5t146 -100.5h6l19 106h147v-1581h-184zM608 129q77 0 146.5 38.5t140.5 115.5v583q-72 63 -137.5 90t-134.5 27q-91 0 -163.5 -53.5
t-115.5 -149.5t-43 -223q0 -201 80 -314.5t227 -113.5z" />
    <glyph glyph-name="r" unicode="r" horiz-adv-x="795" 
d="M188 0v1112h154l16 -203h7q58 106 139.5 169t175.5 63q72 0 119 -25l-35 -164q-47 19 -109 19q-69 0 -147 -56.5t-133 -199.5v-715h-187z" />
    <glyph glyph-name="s" unicode="s" horiz-adv-x="958" 
d="M479 -27q-118 0 -227 44t-189 110l93 123q72 -59 151 -95t178 -36q111 0 165.5 51t54.5 123q0 57 -38 95t-96.5 65t-119.5 51q-78 28 -153 67t-124 99.5t-49 154.5q0 88 46 159.5t132 114t207 42.5q103 0 191.5 -37.5t152.5 -87.5l-90 -121q-57 43 -117.5 70.5
t-134.5 27.5q-106 0 -156.5 -47.5t-50.5 -111.5q0 -54 34 -87.5t88.5 -57.5t117.5 -48q81 -31 159 -69t129.5 -100.5t51.5 -168.5q0 -90 -47 -165t-137.5 -120t-221.5 -45z" />
    <glyph glyph-name="t" unicode="t" horiz-adv-x="772" 
d="M539 -27q-179 0 -248.5 102.5t-69.5 268.5v617h-166v141l174 10l23 313h156v-313h301v-151h-301v-621q0 -103 37.5 -159t134.5 -56q29 0 64 9t63 20l36 -140q-47 -15 -100.5 -28t-103.5 -13z" />
    <glyph glyph-name="u" unicode="u" horiz-adv-x="1243" 
d="M512 -27q-175 0 -256.5 111.5t-81.5 323.5v704h186v-682q0 -155 49.5 -225t159.5 -70q86 0 154 44.5t147 144.5v788h187v-1112h-156l-14 174h-6q-79 -91 -166.5 -146t-202.5 -55z" />
    <glyph glyph-name="v" unicode="v" horiz-adv-x="1067" 
d="M428 0l-401 1112h194l209 -633q26 -81 52 -165t53 -162h8q26 78 52 162t50 165l211 633h184l-395 -1112h-217z" />
    <glyph glyph-name="w" unicode="w" horiz-adv-x="1642" 
d="M365 0l-310 1112h191l166 -643q17 -80 33.5 -156.5t31.5 -154.5h10q19 78 37 155.5t39 155.5l172 643h183l174 -643q20 -80 38.5 -156.5t38.5 -154.5h9q18 78 34.5 154.5t34.5 156.5l164 643h176l-299 -1112h-225l-162 600q-21 78 -38.5 156.5t-37.5 163.5h-10
q-18 -85 -36 -164.5t-40 -159.5l-155 -596h-219z" />
    <glyph glyph-name="x" unicode="x" horiz-adv-x="1020" 
d="M31 0l366 580l-338 532h201l150 -244q26 -47 54.5 -93.5t55.5 -92.5h8q26 46 51 92.5t50 93.5l137 244h195l-338 -551l366 -561h-205l-163 260q-28 51 -58.5 101t-60.5 98h-10q-30 -48 -58 -98t-57 -101l-150 -260h-196z" />
    <glyph glyph-name="y" unicode="y" horiz-adv-x="1067" 
d="M207 -479q-77 0 -131 22l37 150q17 -6 39.5 -12.5t44.5 -6.5q95 0 156.5 68.5t95.5 171.5l24 84l-446 1114h194l228 -618q24 -73 52 -154.5t54 -157.5h10q23 76 47 157t47 155l199 618h182l-419 -1204q-38 -110 -92.5 -197.5t-133 -138.5t-188.5 -51z" />
    <glyph glyph-name="z" unicode="z" horiz-adv-x="971" 
d="M72 0v100l585 861h-522v151h758v-100l-586 -860h606v-152h-841z" />
    <glyph glyph-name="uni3002" unicode="&#x3002;" 
d="M397 500q87 0 158.5 -42t113.5 -113t42 -157q0 -87 -42 -158t-113.5 -113t-158.5 -42q-85 0 -155.5 42t-113 113t-42.5 158q0 86 42.5 157t113 113t155.5 42zM397 -20q88 0 148.5 60.5t60.5 147.5q0 85 -60.5 146t-148.5 61q-84 0 -145.5 -61t-61.5 -146
q0 -87 61.5 -147.5t145.5 -60.5z" />
    <glyph glyph-name="uni300A" unicode="&#x300a;" 
d="M1210 778l441 -917l-111 -37l-455 954l455 955l111 -37zM1534 778l440 -917l-110 -37l-455 954l455 955l110 -37z" />
    <glyph glyph-name="uni300B" unicode="&#x300b;" 
d="M508 -176l-111 37l441 917l-441 918l111 37l455 -955zM184 -176l-110 37l440 917l-440 918l110 37l455 -955z" />
    <glyph glyph-name="uni2F00" unicode="&#x2f00;" 
d="M98 881h1860v-166h-1860v166z" />
    <glyph glyph-name="uni2F00" unicode="&#x4e00;" 
d="M98 881h1860v-166h-1860v166z" />
    <glyph glyph-name="uni4E01" unicode="&#x4e01;" 
d="M1917 1526v-156h-748v-1280q0 -91 -28 -135t-92 -64q-66 -21 -182.5 -25.5t-293.5 -4.5q-9 37 -29.5 87.5t-43.5 84.5q95 -3 183 -4.5t153.5 -1t93.5 1.5q37 1 52 14.5t15 48.5v1278h-866v156h1786z" />
    <glyph glyph-name="uni4E03" unicode="&#x4e03;" 
d="M1030 66h524q68 0 102 30t49 110.5t26 231.5q29 -21 75 -41.5t78 -29.5q-13 -168 -41.5 -267t-94 -141.5t-189.5 -42.5h-535q-126 0 -197.5 26t-101 92t-29.5 187v621l-563 -90l-24 151l587 94v680h160v-655l1065 172l25 -154l-1090 -172v-649q0 -62 13.5 -95.5
t50.5 -45.5t110 -12z" />
    <glyph glyph-name="uni4E07" unicode="&#x4e07;" 
d="M1915 1411h-1071q-3 -101 -8.5 -206.5t-16.5 -211.5h910l-0.5 -29t-2.5 -44q-13 -248 -27 -422t-31 -288t-39 -180.5t-52 -99.5q-35 -38 -75.5 -53.5t-98.5 -19.5q-58 -5 -156.5 -2.5t-204.5 10.5q-1 34 -15.5 75.5t-37.5 73.5q115 -12 215 -14t142 -2q35 0 56 5t40 22
q31 27 53.5 117.5t39.5 261.5t32 442h-766q-30 -201 -97 -389t-191.5 -347t-326.5 -272q-18 31 -49 64t-61 55q170 90 280.5 216t175 275.5t96 312t42 328t14.5 322.5h-551v148h1782v-148z" />
    <glyph glyph-name="uni4E08" unicode="&#x4e08;" 
d="M1915 1169h-596q-14 -273 -66 -495t-192 -391q321 -233 885 -297q-25 -26 -51.5 -68t-39.5 -76q-575 80 -903 328q-121 -104 -297 -182.5t-424 -130.5q-10 30 -35.5 68.5t-50.5 64.5q238 47 406 118t278 166q-142 142 -241.5 332.5t-165.5 431.5l143 35
q56 -216 147 -388.5t226 -301.5q121 149 164.5 345t54.5 441h-1020v148h1026q2 86 2 178v188h164q0 -95 -1 -187t-3 -179h590v-148z" />
    <glyph glyph-name="uni4E09" unicode="&#x4e09;" 
d="M258 1516h1536v-152h-1536v152zM389 852h1245v-154h-1245v154zM141 145h1764v-153h-1764v153z" />
    <glyph glyph-name="uni4E0A" unicode="&#x4e0a;" 
d="M1036 92h901v-151h-1824v151h764v1589h159v-626h762v-152h-762v-811z" />
    <glyph glyph-name="uni4E0B" unicode="&#x4e0b;" 
d="M1929 1411h-864v-364l27 30q91 -44 192.5 -98t201 -111.5t186 -113t147.5 -101.5l-107 -137q-70 57 -177 128.5t-230 144t-240 135.5v-1078h-162v1565h-782v152h1808v-152z" />
    <glyph glyph-name="uni4E0D" unicode="&#x4e0d;" 
d="M1898 1417h-649q-34 -57 -70.5 -112.5t-74.5 -112.5v-1344h-162v1139q-155 -177 -341.5 -330.5t-399.5 -265.5q-17 29 -48.5 68t-54.5 65q202 102 382 243.5t326.5 308t248.5 341.5h-905v152h1748v-152zM1145 977l112 98q90 -57 188.5 -126.5t194.5 -142t178 -142
t138 -127.5l-121 -117q-55 58 -135 129.5t-174 147.5t-192.5 148t-188.5 132z" />
    <glyph glyph-name="uni4E0D" unicode="&#xf967;" 
d="M1898 1417h-649q-34 -57 -70.5 -112.5t-74.5 -112.5v-1344h-162v1139q-155 -177 -341.5 -330.5t-399.5 -265.5q-17 29 -48.5 68t-54.5 65q202 102 382 243.5t326.5 308t248.5 341.5h-905v152h1748v-152zM1145 977l112 98q90 -57 188.5 -126.5t194.5 -142t178 -142
t138 -127.5l-121 -117q-55 58 -135 129.5t-174 147.5t-192.5 148t-188.5 132z" />
    <glyph glyph-name="uni4E0E" unicode="&#x4e0e;" 
d="M1391 489v-147h-1266v147h1266zM537 920h1280l-1.5 -29.5t-5.5 -44.5q-28 -292 -58 -475.5t-66 -284.5t-82 -145q-39 -40 -82.5 -54.5t-108.5 -17.5q-55 -3 -156 -1.5t-208 9.5q-3 34 -19 76.5t-39 73.5q120 -11 226.5 -13t150.5 -2q38 0 63 4t42 21q58 44 99 215.5
t77 523.5h-1180l-127 2q24 85 50 194.5t52.5 230.5t50 241t42.5 225l153 -16q-11 -52 -21 -108.5t-22 -112.5h1139v-146h-1168q-21 -97 -41 -190.5t-40 -175.5z" />
    <glyph glyph-name="uni4E11" unicode="&#x4e11;" 
d="M1466 707h-637q-16 -183 -33 -352.5t-34 -303.5h657q14 137 26 305.5t21 350.5zM1501 1432h-614q-9 -133 -21 -280.5t-24 -295.5h635q7 146 13.5 293t10.5 283zM1579 51h369v-149h-1844v149h500q17 135 36 304.5t36 351.5h-395v149h409q29 307 41 576h-495v149h1425
q-6 -180 -15 -384t-19.5 -410t-22.5 -395.5t-25 -340.5z" />
    <glyph glyph-name="uni4E13" unicode="&#x4e13;" 
d="M1894 950h-1095q-20 -60 -39 -116.5t-37 -108.5h883l26 8l115 -69q-111 -114 -256 -256.5t-287 -276.5q99 -41 184.5 -81t149.5 -79l-92 -131q-75 46 -182.5 98t-232.5 104t-254 98.5t-247 80.5l86 111q102 -28 213.5 -65t223.5 -79q103 97 210 201t193 193h-950
q31 76 64.5 170.5t70.5 197.5h-518v148h565q20 60 39.5 120.5t36.5 120.5h-477v146h520q17 58 33 114.5t28 108.5h162q-15 -52 -32 -108.5t-35 -114.5h784v-146h-825q-20 -60 -39 -120.5t-37 -120.5h1048v-148z" />
    <glyph glyph-name="uni4E14" unicode="&#x4e14;" 
d="M588 440v-360h891v360h-891zM1479 1446h-891v-352h891v352zM1479 588v362h-891v-362h891zM1634 80h299v-150h-1816v150h321v1513h1196v-1513z" />
    <glyph glyph-name="uni4E16" unicode="&#x4e16;" 
d="M1479 1057h-392v-506h392v506zM1634 410h-696v647h-373v-932h1317v-150h-1474v1082h-297v147h297v453h157v-453h373v500h149v-500h392v475h155v-475h305v-147h-305v-647z" />
    <glyph glyph-name="uni4E18" unicode="&#x4e18;" 
d="M586 825v-725h755v725h-755zM1495 100h447v-149h-1833v149h323v1385q152 7 315 21t321 35t295 48.5t236 63.5l93 -131q-138 -47 -322.5 -80.5t-388 -55.5t-395.5 -34v-377h1253v-150h-344v-725z" />
    <glyph glyph-name="uni4E19" unicode="&#x4e19;" 
d="M1096 1425v-297v-6h735v-1077q0 -71 -19 -110t-73 -58q-52 -18 -145 -22.5t-228 -4.5q-6 33 -22 77t-33 75q107 -5 199 -4.5t122 2.5q29 2 39 11t10 34v932h-591q-10 -82 -31 -164q97 -72 202 -155.5t197 -164.5t152 -147l-109 -115q-52 61 -132 136.5t-173 155
t-184 151.5q-57 -131 -172.5 -255t-313.5 -229q-17 27 -51 61.5t-61 55.5q196 94 303 207.5t152.5 232.5t58.5 230h-555v-1133h-152v1278h713v8v295h-789v150h1758v-150h-807z" />
    <glyph glyph-name="uni4E1A" unicode="&#x4e1a;" 
d="M1743 1241l137 -67q-49 -117 -108.5 -244.5t-122.5 -247t-121 -213.5l-125 68q56 92 120 213.5t122 249.5t98 241zM604 543l-151 -58q-25 90 -70.5 214t-100.5 257t-108 248l141 43q55 -113 111 -243t103.5 -251t74.5 -210zM1350 100h571v-149h-1790v149h569v1588h152
v-1588h346v1586h152v-1586z" />
    <glyph glyph-name="uni4E1B" unicode="&#x4e1b;" 
d="M1321 1688l162 -11q-8 -113 -17.5 -218.5t-21.5 -205.5q25 -124 66 -258t100 -263t139.5 -240t183.5 -189q-24 -21 -58 -62t-52 -73q-109 91 -192.5 215t-144.5 264t-102 281q-59 -248 -163.5 -444.5t-272.5 -344.5q-18 25 -58.5 62t-68.5 57q180 141 282.5 349.5
t151 479.5t66.5 601zM1038 616l-118 -110q-42 89 -117 210t-160 236q-49 -249 -138 -447.5t-237 -348.5q-18 21 -59 57.5t-70 56.5q158 148 245.5 359t127 478.5t53.5 586.5l160 -11q-8 -142 -20 -275.5t-27 -254.5q70 -86 139 -182.5t127 -189t94 -165.5zM121 -94v155h1810
v-155h-1810z" />
    <glyph glyph-name="uni4E1C" unicode="&#x4e1c;" 
d="M532 535l150 -39q-72 -162 -180.5 -313.5t-218.5 -256.5q-22 22 -62 52t-67 49q112 93 214 228t164 280zM1782 698h-590v-647q0 -67 -18 -104t-64 -56q-48 -20 -126 -25t-187 -5q-5 32 -22 77.5t-36 77.5q89 -3 162.5 -3t97.5 1q25 2 33 10t8 29v645h-450
q-91 0 -148 -7.5t-71 -22.5q-8 26 -25 75.5t-33 81.5q36 10 71 51.5t83 108.5q26 35 78.5 119t113.5 194h-493v146h569q36 67 68 138.5t61 141.5l158 -67q-23 -52 -49 -106.5t-53 -106.5h948v-146h-1026q-68 -122 -140.5 -237t-144.5 -215h483v299h152v-299h592zM1360 475
l125 64q80 -77 164 -169t155.5 -182t114.5 -161l-137 -74q-40 70 -109 161t-151 186t-162 175z" />
    <glyph glyph-name="uni4E1D" unicode="&#x4e1d;" 
d="M1274 477l594 29q-6 -32 -9.5 -71.5t-3.5 -65.5q-240 -13 -385 -22t-223 -16t-113 -12.5t-55 -11.5q-6 22 -20.5 66t-26.5 73q36 10 80 49.5t102 100.5q33 31 97.5 106t142.5 177q-152 -10 -231 -16.5t-112.5 -12t-49.5 -12.5q-6 23 -20.5 67.5t-28.5 73.5
q29 6 59.5 40.5t67.5 88.5q19 26 56.5 86.5t84 143.5t93 178.5t83.5 191.5l141 -57q-79 -174 -177 -343.5t-199 -306.5l333 13q53 72 103 150t96 155l133 -72q-135 -215 -293 -412.5t-319 -357.5zM440 469l531 29q-5 -33 -8.5 -72t-1.5 -64q-221 -14 -354 -23.5t-204 -16.5
t-102.5 -13t-48.5 -14q-6 21 -22 66.5t-31 74.5q38 9 80.5 50t99.5 106q31 31 90 103.5t131 170.5q-144 -9 -219 -16t-107 -13t-49 -12q-6 23 -20.5 67.5t-28.5 74.5q29 6 59.5 41.5t65.5 89.5q19 26 56 87t82.5 145t90.5 180.5t80 193.5l144 -57q-79 -176 -175 -348
t-196 -310l311 12q54 79 105 162.5t96 167.5l137 -69q-130 -219 -283.5 -424t-308.5 -369zM113 104h1816v-141h-1816v141z" />
    <glyph glyph-name="uni4E22" unicode="&#x4e22;" 
d="M1919 780v-143h-1016l70 -29q-100 -135 -210 -263t-220 -232l983 69q-56 74 -113.5 147t-114.5 138l140 57q84 -91 170 -199.5t157.5 -214.5t112.5 -190l-149 -67q-20 43 -50 94t-65 106q-336 -26 -560 -43.5t-362 -29.5t-214 -20.5t-113 -16t-60 -17.5v2q-6 25 -21.5 73
t-27.5 79q31 4 68 33t84 73q30 26 94.5 94t142 161.5t148.5 195.5h-666v143h819v275h-651v145h651v252q-170 -14 -340.5 -22t-329.5 -13q-3 31 -14.5 72.5t-23.5 69.5q185 6 384.5 17.5t391.5 29t359.5 41.5t289.5 55l115 -133q-140 -34 -315 -60t-365 -43v-266h653v-145
h-653v-275h821z" />
    <glyph glyph-name="uni4E24" unicode="&#x4e24;" 
d="M1204 1143v280h-370v-280h370zM1921 1423h-567v-280h483v-1106q0 -71 -19 -110.5t-73 -57.5q-52 -19 -146 -23t-231 -4q-6 33 -21 77.5t-32 76.5q109 -6 200.5 -6t120.5 2q30 1 41 11t11 38v958h-336q-3 -47 -8 -98.5t-13 -103.5q64 -73 128.5 -153t118 -155t85.5 -133
l-90 -116q-43 78 -119.5 184t-159.5 209q-33 -132 -100.5 -260.5t-177.5 -239.5q-17 23 -49 55.5t-60 51.5q118 109 180 240t86 265.5t29 253.5h-371q-3 -49 -7.5 -102t-12.5 -106q61 -74 121 -154t92 -137l-92 -121q-25 49 -68 113t-92 129q-34 -129 -100.5 -254
t-175.5 -234q-17 23 -49 55.5t-58 51.5q117 109 178.5 240t85.5 265.5t29 253.5h-317v-1157h-150v1301h469v280h-555v148h1792v-148z" />
    <glyph glyph-name="uni4E25" unicode="&#x4e25;" 
d="M883 1464v-532h276v532h-276zM1911 932v-135h-1524v-201q0 -112 -15.5 -246.5t-59.5 -267.5t-128 -240q-18 23 -56.5 57.5t-59.5 47.5q75 97 111.5 211t47.5 228.5t11 211.5v334h495v532h-512v133h1626v-133h-538v-532h602zM616 1026l-137 -49q-18 78 -66.5 184.5
t-107.5 192.5l129 47q62 -86 112 -190.5t70 -184.5zM1522 975l-123 43q34 51 71.5 119.5t71.5 140t55 129.5l156 -51q-54 -99 -116.5 -204t-114.5 -177z" />
    <glyph glyph-name="uni4E27" unicode="&#x4e27;" 
d="M1692 641l118 -86q-96 -78 -216 -157.5t-226 -137.5q117 -100 264.5 -168.5t327.5 -103.5q-23 -25 -50 -64t-44 -69q-357 86 -589.5 292.5t-354.5 530.5h-316v-623l492 107q-5 -32 -7.5 -76.5t-0.5 -67.5q-209 -48 -336 -78t-195 -47.5t-99 -28.5t-48 -22q-6 29 -25 71
t-39 69q31 12 66 43.5t35 93.5v559h-330v141h825v527h-751v139h751v227h150v-227h770v-139h-770v-527h841v-141h-866q40 -94 91 -176.5t116 -153.5q71 41 147 91.5t146 103t123 98.5zM358 1233l129 55q43 -52 88.5 -114t83.5 -122t60 -106l-139 -65q-20 47 -55.5 108.5
t-79.5 125.5t-87 118zM1395 870l-117 54q41 49 87 114t88 132.5t71 123.5l151 -59q-66 -95 -141 -195t-139 -170z" />
    <glyph glyph-name="uni4E2A" unicode="&#x4e2a;" 
d="M944 -156v1268h156v-1268h-156zM1036 1714l133 -63q-13 -23 -26.5 -46t-28.5 -44q195 -232 410.5 -386.5t451.5 -269.5q-30 -23 -61.5 -61.5t-48.5 -73.5q-228 118 -433.5 274.5t-406.5 397.5q-164 -211 -382 -383.5t-451 -286.5q-19 32 -50.5 71.5t-62.5 65.5
q192 83 372.5 206t331 275.5t252.5 323.5z" />
    <glyph glyph-name="uni4E2D" unicode="&#x4e2d;" 
d="M1098 657h588v543h-588v-543zM354 657h586v543h-586v-543zM1098 1350h743v-959h-155v117h-588v-664h-158v664h-586v-127h-149v969h735v364h158v-364z" />
    <glyph glyph-name="uni4E30" unicode="&#x4e30;" 
d="M1935 485v-149h-833v-488h-158v488h-827v149h827v330h-651v146h651v303h-751v149h751v299h158v-299h751v-149h-751v-303h657v-146h-657v-330h833z" />
    <glyph glyph-name="uni4E32" unicode="&#x4e32;" 
d="M1098 317h577v295h-577v-295zM375 317h563v295h-563v-295zM455 1059h483v282h-483v-282zM1585 1341h-487v-282h487v282zM1098 754h739v-656h-162v82h-577v-336h-160v336h-563v-86h-154v660h717v170h-637v553h637v233h160v-233h649v-553h-649v-170z" />
    <glyph glyph-name="uni4E32" unicode="&#xf905;" 
d="M1098 317h577v295h-577v-295zM375 317h563v295h-563v-295zM455 1059h483v282h-483v-282zM1585 1341h-487v-282h487v282zM1098 754h739v-656h-162v82h-577v-336h-160v336h-563v-86h-154v660h717v170h-637v553h637v233h160v-233h649v-553h-649v-170z" />
    <glyph glyph-name="uni4E34" unicode="&#x4e34;" 
d="M180 113v1353h144v-1353h-144zM518 -141v1827h150v-1827h-150zM1309 629h-287v-535h287v535zM1733 94v535h-283v-535h283zM874 -156v930h1010v-921h-151v100h-711v-109h-148zM1640 956l-102 -108q-38 41 -96.5 96.5t-125 113t-126.5 105.5l100 90q62 -47 128.5 -101
t125.5 -105.5t96 -90.5zM1157 1475h782v-148h-843q-54 -118 -117 -222t-133 -185q-20 16 -61 43t-70 41q123 129 215 318.5t147 399.5l150 -28q-16 -56 -33.5 -111.5t-36.5 -107.5z" />
    <glyph glyph-name="uni4E38" unicode="&#x4e38;" 
d="M1606 25h178q31 0 46.5 28.5t22 108t9.5 231.5q26 -21 68 -40.5t73 -28.5q-6 -171 -24.5 -269t-60.5 -139t-120 -41h-217q-112 0 -155.5 49t-43.5 191v1011h-469q-10 -129 -30 -255.5t-56 -245.5q105 -73 195.5 -144.5t153.5 -134.5l-115 -123q-52 56 -126.5 119
t-162.5 129q-80 -193 -221.5 -355t-370.5 -276q-15 28 -48 63t-62 56q225 108 361 263.5t210 344.5q-94 65 -191 126t-188 112l105 104q76 -41 159 -89.5t164 -102.5q26 98 42 200.5t24 208.5h-576v150h586q5 107 5.5 215.5t0.5 214.5h158q0 -106 -2 -214.5t-6 -215.5h618
v-1163q0 -57 12 -72.5t54 -15.5z" />
    <glyph glyph-name="uni4E39" unicode="&#x4e39;" 
d="M766 1274l106 86q72 -51 149 -115t144.5 -127.5t110.5 -113.5l-115 -97q-41 50 -107.5 115t-142 131.5t-145.5 120.5zM559 823h946v643h-944v-548v-47t-2 -48zM1935 823v-145h-276v-633q0 -78 -23.5 -119t-76.5 -59q-56 -17 -155.5 -21t-256.5 -4q-6 31 -22.5 75
t-34.5 73q119 -5 221.5 -4.5t136.5 2.5q31 1 44 13t13 44v633h-954q-12 -146 -49 -296.5t-111.5 -290.5t-200.5 -253q-15 22 -50.5 57t-61.5 52q113 102 180 223t99.5 250.5t43.5 257.5h-284v145h291q1 25 1.5 49.5t0.5 47.5v686h1249v-783h276z" />
    <glyph glyph-name="uni4E39" unicode="&#xf95e;" 
d="M766 1274l106 86q72 -51 149 -115t144.5 -127.5t110.5 -113.5l-115 -97q-41 50 -107.5 115t-142 131.5t-145.5 120.5zM559 823h946v643h-944v-548v-47t-2 -48zM1935 823v-145h-276v-633q0 -78 -23.5 -119t-76.5 -59q-56 -17 -155.5 -21t-256.5 -4q-6 31 -22.5 75
t-34.5 73q119 -5 221.5 -4.5t136.5 2.5q31 1 44 13t13 44v633h-954q-12 -146 -49 -296.5t-111.5 -290.5t-200.5 -253q-15 22 -50.5 57t-61.5 52q113 102 180 223t99.5 250.5t43.5 257.5h-284v145h291q1 25 1.5 49.5t0.5 47.5v686h1249v-783h276z" />
    <glyph glyph-name="uni4E3A" unicode="&#x4e3a;" 
d="M690 1356l-139 -68q-29 63 -90.5 151t-122.5 158l131 58q61 -68 124 -153t97 -146zM989 1223h850l-1 -31.5t-1 -48.5q-12 -305 -24.5 -517.5t-27.5 -349.5t-36 -215t-51 -114q-36 -42 -74.5 -59t-95.5 -21q-52 -5 -142 -3.5t-182 7.5q-3 34 -17.5 78t-35.5 80
q101 -11 190 -13t127 -2q31 0 51.5 6.5t36.5 24.5q31 31 53 140.5t38 324.5t30 561h-702q-19 -149 -63 -305.5t-127.5 -312.5t-217 -303.5t-329.5 -278.5q-19 28 -54.5 60.5t-64.5 52.5q245 158 389 341.5t215.5 374.5t95.5 371h-643v152h660q4 64 6 125.5t2 119.5v240h151
v-242q0 -114 -6 -243zM1432 432l-134 -74q-25 54 -70.5 124t-99.5 143t-106 135l125 61q54 -59 109.5 -129t102 -138.5t73.5 -121.5z" />
    <glyph glyph-name="uni4E3B" unicode="&#x4e3b;" 
d="M1104 59h829v-149h-1810v149h819v504h-631v146h631v448h-725v150h899q-40 47 -98 102.5t-123.5 110.5t-126.5 100l123 86q65 -47 137 -105.5t135 -117.5t103 -107l-97 -69h662v-150h-727v-448h643v-146h-643v-504z" />
    <glyph glyph-name="uni4E3D" unicode="&#x4e3d;" 
d="M928 1233v-1202q0 -60 -14 -94.5t-54 -53.5q-38 -18 -99 -23t-155 -3q-3 29 -16 71t-27 74q62 -3 114 -3.5t68 1.5q33 0 33 33v1061h-407v-1250h-144v1389h701zM733 459l-125 -56q-18 56 -50 127.5t-69.5 146.5t-74.5 140l118 43q37 -62 75.5 -135t72 -143t53.5 -123z
M1837 1233v-1206q0 -62 -14.5 -95.5t-53.5 -52.5q-39 -20 -104 -23t-162 -3q-4 30 -16.5 71t-28.5 72q66 -3 122 -2.5t73 0.5q35 0 35 33v1067h-437v-1250h-143v1389h729zM1630 449l-119 -56q-21 53 -55.5 123t-74 143t-74.5 136l112 47q39 -63 79.5 -134.5t75.5 -139.5
t56 -119zM117 1589h1816v-147h-1816v147z" />
    <glyph glyph-name="uni4E3E" unicode="&#x4e3e;" 
d="M1133 1409l-136 -61q-23 64 -74 155t-108 166l127 55q55 -72 109.5 -161t81.5 -154zM1100 637v-250h768v-145h-768v-402h-152v402h-751v145h751v250h-465v143h465v250h152v-250h481v-143h-481zM1931 1174h-487q97 -137 242 -253.5t301 -179.5q-27 -21 -56.5 -56.5
t-46.5 -66.5q-116 56 -227 142.5t-206 192.5t-163 221h-516q-65 -123 -160.5 -233t-209 -197t-234.5 -142q-17 28 -46 62.5t-52 54.5q161 66 307.5 187.5t238.5 267.5h-495v139h414q-31 61 -90 144t-117 149l129 61q63 -66 126 -150t95 -149l-109 -55h734q42 50 89.5 116
t90.5 134t71 125l160 -54q-55 -81 -119.5 -166.5t-124.5 -154.5h461v-139z" />
    <glyph glyph-name="uni4E43" unicode="&#x4e43;" 
d="M1323 856h502l-0.5 -29.5t-1.5 -46.5q-15 -267 -30.5 -433t-38 -255t-58.5 -125q-36 -40 -77.5 -54.5t-102.5 -18.5q-56 -5 -155.5 -2.5t-205.5 8.5q-5 35 -22 79.5t-41 77.5q116 -10 219.5 -13t146.5 -3q34 0 57 4.5t39 20.5q39 33 62.5 180t40.5 461h-557
q33 94 69.5 214.5t71.5 251t64 252.5h-617v-61q0 -122 -8 -268.5t-34.5 -306.5t-81 -323.5t-146.5 -322t-232 -301.5q-18 25 -54.5 62.5t-63.5 58.5q165 166 259.5 352.5t138.5 374.5t56.5 361t12.5 313v61h-330v148h1302q-25 -113 -56.5 -238.5t-64 -248.5t-63.5 -230z" />
    <glyph glyph-name="uni4E45" unicode="&#x4e45;" 
d="M1290 1391l109 -50q-36 -142 -83 -273t-104 -249q70 -184 182 -348.5t258.5 -291.5t319.5 -199q-27 -22 -58.5 -62.5t-49.5 -71.5q-245 116 -433 327.5t-311 479.5q-173 -288 -406.5 -491.5t-496.5 -323.5q-17 29 -53 71t-64 62q248 106 464.5 279.5t380.5 418t255 562.5
h-534q-96 -181 -210 -335t-243 -269q-22 21 -64 55.5t-71 54.5q206 166 363.5 422.5t252.5 552.5l160 -37q-25 -75 -53.5 -148.5t-61.5 -144.5h523z" />
    <glyph glyph-name="uni4E48" unicode="&#x4e48;" 
d="M907 1690l158 -58q-100 -157 -232.5 -319.5t-282 -311.5t-300.5 -266q-22 25 -56.5 58t-60.5 53q149 106 296 249t271.5 297.5t206.5 297.5zM1931 -53l-143 -80q-22 46 -52 102.5t-65 114.5q-298 -26 -513 -44t-361.5 -30t-239.5 -20.5t-146.5 -14.5t-82 -11.5
t-47.5 -12.5q-8 26 -28 74t-38 81q48 11 115 63t159 136q51 42 148 138t219.5 229t252 290.5t245.5 323.5l155 -74q-235 -318 -484.5 -590t-494.5 -483l1051 84q-68 100 -140.5 199.5t-142.5 185.5l136 68q95 -115 191.5 -246.5t177 -258t128.5 -224.5z" />
    <glyph glyph-name="uni4E49" unicode="&#x4e49;" 
d="M1188 1233l-139 -57q-18 66 -51 152t-72.5 175.5t-77.5 167.5l131 49q39 -78 79.5 -165.5t74.5 -171.5t55 -150zM1618 1563l156 -50q-109 -310 -262 -578.5t-371 -490.5q175 -155 380.5 -272.5t442.5 -189.5q-28 -25 -58 -65t-46 -73q-243 80 -451 203.5t-383 286.5
q-172 -152 -384.5 -274.5t-475.5 -215.5q-14 30 -38.5 67.5t-45.5 63.5q255 85 462.5 201.5t375.5 263.5q-199 206 -352.5 457t-262.5 537l139 43q100 -263 247.5 -499t340.5 -429q208 209 350 465.5t236 548.5z" />
    <glyph glyph-name="uni4E4B" unicode="&#x4e4b;" 
d="M1206 1391l-139 -80q-20 44 -55.5 104t-77 123.5t-80.5 116.5l131 67q41 -52 84.5 -113t80 -118.5t56.5 -99.5zM1659 1319l115 -78q-95 -140 -223 -286t-277.5 -286t-308.5 -264t-316 -221q13 -9 25.5 -18t27.5 -19q97 -61 225 -78.5t300 -17.5q119 0 252 5t260 13.5
t225 18.5q-14 -29 -28.5 -79.5t-16.5 -84.5q-57 -4 -144.5 -8t-187.5 -7t-196.5 -5t-169.5 -2q-185 0 -316.5 23t-232.5 87q-63 40 -111 79.5t-82 39.5q-49 0 -117.5 -76.5t-140.5 -177.5l-112 139q101 111 197.5 184.5t174.5 73.5q8 0 14.5 -1t12.5 -3q140 81 282 186
t275.5 224t248 242t199.5 239h-1300v148h1413z" />
    <glyph glyph-name="uni4E4C" unicode="&#x4e4c;" 
d="M1546 403v-137h-1421v137h1421zM1878 772v-72q-15 -257 -30.5 -415.5t-36 -243t-52.5 -119.5q-30 -35 -65.5 -48t-87.5 -17q-46 -5 -128.5 -3.5t-172.5 7.5q-3 32 -15.5 72t-34.5 71q96 -8 177 -10t118 -2q28 0 47.5 4.5t34.5 17.5q23 22 40 90t30 196t24 331h-1329v872
h398q26 52 52 112t40 109l160 -24q-25 -51 -51 -102.5t-52 -94.5h742l-7 -69q-18 -219 -40.5 -320.5t-57.5 -138.5q-26 -26 -60.5 -37t-78.5 -14q-40 0 -113 1t-151 7q-2 27 -11.5 64t-23.5 65q78 -8 146.5 -10t94.5 -2q28 0 44 3t28 17q19 20 34.5 88.5t29.5 206.5h-975
v-592h1333z" />
    <glyph glyph-name="uni4E4E" unicode="&#x4e4e;" 
d="M1935 752v-154h-813v-549q0 -83 -26 -123t-84 -57q-57 -20 -159 -24.5t-263 -4.5q-9 33 -28.5 78.5t-39.5 77.5q129 -5 236.5 -4.5t142.5 0.5q34 1 48 14t14 45v547h-844v154h844v678q-172 -16 -344.5 -25.5t-331.5 -13.5q-3 32 -14.5 70.5t-22.5 66.5q183 7 380.5 19.5
t389.5 32t360 45t293 58.5l80 -137q-129 -32 -291 -57.5t-340 -42.5v-694h813zM344 1280l133 45q41 -70 81 -150.5t71 -157t47 -134.5l-139 -56q-15 59 -45 137t-69 160.5t-79 155.5zM1499 831l-123 52q38 63 80 147.5t79.5 171.5t61.5 160l162 -55q-61 -122 -130.5 -253.5
t-129.5 -222.5z" />
    <glyph glyph-name="uni4E4F" unicode="&#x4e4f;" 
d="M1720 1675l103 -127q-147 -36 -333.5 -63.5t-393.5 -47.5t-417 -32.5t-403 -18.5q-3 30 -14.5 70t-21.5 68q190 7 396 19.5t406 31.5t375 44t303 56zM1130 1112l-137 -76q-30 57 -83.5 143t-102.5 156l131 64q49 -68 105.5 -150t86.5 -137zM1667 1018l111 -80
q-123 -147 -298.5 -295t-378 -277.5t-407.5 -224.5q99 -66 228.5 -85t310.5 -19q123 0 256.5 5t259.5 13t225 19q-15 -28 -30 -79t-17 -85q-55 -3 -143 -7t-189.5 -7.5t-199 -6t-170.5 -2.5q-198 0 -331 25t-239 98q-64 43 -114 89t-82 46t-69.5 -39.5t-79.5 -104
t-87 -138.5l-119 149q105 128 196.5 203.5t162.5 75.5q29 0 55 -15.5t55 -39.5q172 72 344 175t323 219t261 230h-1249v150h1382z" />
    <glyph glyph-name="uni4E50" unicode="&#x4e50;" 
d="M487 571l148 -49q-57 -97 -129 -197t-148 -191.5t-147 -162.5q-20 20 -59 51t-64 48q71 63 144.5 145.5t139.5 174t115 181.5zM1888 748h-745v-707q0 -71 -20.5 -109t-67.5 -55q-49 -20 -131.5 -25t-214.5 -4q-7 31 -22 75.5t-32 76.5q97 -3 178 -3.5t107 1.5
q26 1 37.5 10t11.5 35v705h-479q-101 0 -162.5 -6.5t-77.5 -20.5q-6 24 -22.5 69t-28.5 72q20 8 35 43t29 88q9 33 26 122t31.5 206.5t15.5 234.5q173 5 360 15t368 26t339.5 39t274.5 54l88 -134q-121 -29 -274 -52.5t-322.5 -40t-344 -26.5t-339.5 -14q-14 -135 -38 -272
t-54 -252h575v408h154v-408h745v-151zM1415 508l131 61q74 -80 154 -174t149 -184.5t111 -159.5l-141 -74q-40 70 -107 163t-145 190t-152 178z" />
    <glyph glyph-name="uni4E52" unicode="&#x4e52;" 
d="M739 352l138 -88q-84 -73 -190.5 -147.5t-219 -142t-215.5 -117.5q-19 24 -49.5 57t-57.5 53q105 47 216.5 112.5t211 137t166.5 135.5zM616 1020v-475h695v475h-695zM1462 545h480v-146h-1831v146h352v1038q151 8 313 19.5t320 27t298.5 34.5t247.5 42l80 -139
q-146 -28 -330.5 -50.5t-384 -39t-391.5 -25.5v-289h1211v-143h-365v-475z" />
    <glyph glyph-name="uni4E53" unicode="&#x4e53;" 
d="M1202 244l115 94q97 -54 209.5 -123t215 -137.5t171.5 -122.5l-121 -109q-65 54 -165 124.5t-212 142.5t-213 131zM616 1020v-475h695v475h-695zM1462 545h480v-146h-1831v146h352v1038q151 8 313 19.5t320 27t298.5 34.5t247.5 42l80 -139q-146 -28 -330.5 -50.5
t-384 -39t-391.5 -25.5v-289h1211v-143h-365v-475z" />
    <glyph glyph-name="uni4E54" unicode="&#x4e54;" 
d="M612 543v227h152v-231q0 -89 -14 -183t-57.5 -186t-131 -176t-233.5 -154q-20 28 -54.5 61t-62.5 52q136 61 216.5 133t120 149.5t52 155.5t12.5 152zM1262 -156v928h153v-928h-153zM1931 1063h-573q107 -140 270.5 -247t347.5 -163q-26 -23 -56.5 -60.5t-47.5 -68.5
q-209 74 -389 214.5t-295 324.5h-334q-124 -187 -294.5 -323t-385.5 -230q-14 23 -47 64t-57 63q375 146 598 426h-549v147h649q34 57 62 118.5t51 127.5q-157 -11 -314 -17t-305 -9q-1 27 -11.5 65.5t-23.5 63.5q187 4 387 14t393 25t361 36t291 47l110 -120
q-147 -33 -331 -55t-385 -38q-23 -69 -51.5 -133.5t-59.5 -124.5h989v-147z" />
    <glyph glyph-name="uni4E56" unicode="&#x4e56;" 
d="M575 866v183h146v-830h-146v176q-105 -40 -207.5 -77.5t-191.5 -69.5l-67 139q89 23 211.5 61t254.5 78v205h-421v135h421zM1925 1137h-827v-1295h-156v1295h-815v141h815v203q-166 -11 -334.5 -18.5t-324.5 -12.5q-2 28 -13 64.5t-22 62.5q183 6 377 16.5t381.5 25.5
t351.5 35t287 46l104 -125q-135 -26 -301.5 -46.5t-349.5 -35.5v-215h827v-141zM1534 365h217q27 0 41.5 14.5t21 60t9.5 138.5q23 -19 61.5 -35.5t69.5 -24.5q-8 -114 -27.5 -176.5t-57.5 -87.5t-104 -25h-252q-119 0 -159.5 41t-40.5 158v619h147v-259q94 42 182.5 91.5
t149.5 95.5l109 -111q-93 -57 -211 -111t-230 -96v-229q0 -40 13 -51.5t61 -11.5z" />
    <glyph glyph-name="uni4E58" unicode="&#x4e58;" 
d="M1315 1092h141v-209q82 30 158 64t133 65l92 -113q-84 -37 -186 -74.5t-197 -66.5v-166q0 -34 12.5 -43.5t57.5 -9.5h200q36 0 47.5 25.5t14.5 125.5q23 -18 60 -32t69 -19q-14 -137 -51 -184t-123 -47h-236q-115 0 -153.5 38t-38.5 146v500zM166 442l-31 131
q88 11 205.5 29.5t245.5 38.5v180h-391v125h391v141h141v-661h-141v94zM1100 1147v-469q86 -142 221 -270t301 -225.5t344 -149.5q-24 -23 -53 -60.5t-47 -66.5q-221 77 -421.5 226t-344.5 341v-627h-156v617q-144 -186 -344 -330t-424 -219q-17 29 -44.5 66.5t-53.5 60.5
q179 51 344.5 146.5t300 221.5t221.5 267v471h-807v139h807v189q-163 -13 -326.5 -20.5t-314.5 -10.5q-3 29 -13.5 66t-21.5 63q178 6 369.5 17t378.5 27.5t352 37.5t289 47l69 -133q-127 -26 -288.5 -46.5t-337.5 -35.5v-201h807v-139h-807z" />
    <glyph glyph-name="uni2F04" unicode="&#x2f04;" 
d="M612 80h951q72 0 112.5 33t58.5 124t25 265q32 -19 77 -34.5t79 -23.5q-14 -211 -51.5 -322.5t-112.5 -153.5t-203 -42h-919q-223 0 -331 75.5t-108 207.5q0 38 10 80t43.5 99.5t104.5 140t192.5 200.5t307 280.5t448.5 381.5h-1093v153h1308l37 10l107 -75
q-11 -14 -31 -23q-300 -244 -512.5 -423.5t-352 -307t-222 -212.5t-122 -140t-51.5 -90t-12 -62q0 -74 71 -107.5t189 -33.5z" />
    <glyph glyph-name="uni2F04" unicode="&#x4e59;" 
d="M612 80h951q72 0 112.5 33t58.5 124t25 265q32 -19 77 -34.5t79 -23.5q-14 -211 -51.5 -322.5t-112.5 -153.5t-203 -42h-919q-223 0 -331 75.5t-108 207.5q0 38 10 80t43.5 99.5t104.5 140t192.5 200.5t307 280.5t448.5 381.5h-1093v153h1308l37 10l107 -75
q-11 -14 -31 -23q-300 -244 -512.5 -423.5t-352 -307t-222 -212.5t-122 -140t-51.5 -90t-12 -62q0 -74 71 -107.5t189 -33.5z" />
    <glyph glyph-name="uni4E5D" unicode="&#x4e5d;" 
d="M1567 23h209q28 0 43 22.5t21 86t9 185.5q26 -23 68.5 -40.5t73.5 -26.5q-8 -142 -27 -224.5t-60.5 -117.5t-117.5 -35h-242q-118 0 -162.5 48t-44.5 188v931h-469q-16 -192 -55.5 -367.5t-115.5 -328.5t-199.5 -279.5t-309.5 -220.5q-15 28 -48.5 64t-63.5 57
q231 110 362.5 272.5t192 366.5t80.5 436h-541v152h551q5 120 5.5 245.5t0.5 254.5h162q-2 -128 -3 -253.5t-7 -246.5h551v-2h61v-1084q0 -53 13.5 -68t62.5 -15z" />
    <glyph glyph-name="uni4E5E" unicode="&#x4e5e;" 
d="M1896 1303h-1349q-77 -111 -160.5 -209.5t-169.5 -173.5q-23 21 -63.5 55.5t-69.5 54.5q155 120 290 302.5t220 383.5l156 -47q-23 -55 -51.5 -110t-59.5 -107h1257v-149zM668 35l940 -2q57 0 89.5 21t47.5 84t20 188q70 -38 150 -52q-13 -164 -45.5 -248.5t-97.5 -113.5
t-177 -29h-909q-192 0 -283.5 61t-91.5 169q0 35 11.5 74.5t55 94.5t136 134t253 191.5t409.5 269.5h-760v147h1020l34 6l111 -78q-6 -4 -15 -11t-20 -13q-303 -184 -501 -312t-314.5 -212.5t-172.5 -137t-72.5 -84.5t-16.5 -55q0 -49 54 -70.5t145 -21.5z" />
    <glyph glyph-name="uni4E5F" unicode="&#x4e5f;" 
d="M831 25h721q96 0 144.5 29t69.5 107t34 224q28 -20 69.5 -37t72.5 -24q-16 -165 -50 -261t-112 -137t-226 -41h-716q-152 0 -237.5 27t-121 97t-35.5 198v639l-333 -105l-41 138l374 114v582h148v-537l424 131v541h149v-496l475 148l13 10l30 23l107 -47l-8 -29
q-5 -287 -19.5 -474t-46.5 -276q-29 -78 -70 -112t-94 -41q-47 -8 -115.5 -10t-123.5 0q-3 29 -13.5 72t-25.5 69q54 -5 115.5 -5.5t89.5 -0.5q33 0 59.5 17t46.5 79q23 66 33.5 211t13.5 366l-467 -145v-790h-149v743l-424 -131v-688q0 -72 18.5 -110.5t70 -53t150.5 -14.5
z" />
    <glyph glyph-name="uni4E60" unicode="&#x4e60;" 
d="M1438 682l28 -143q-210 -74 -425.5 -148.5t-413.5 -142.5t-355 -121l-55 152q147 44 347.5 109t426.5 141t447 153zM479 1151l103 98q89 -60 192 -134t196.5 -146.5t153.5 -128.5l-108 -117q-58 57 -149 132.5t-194 153t-194 142.5zM1812 1565v-86q-5 -402 -12 -676
t-18 -446t-29.5 -265t-46.5 -131q-34 -51 -73.5 -71.5t-96.5 -24.5q-58 -6 -149 -4.5t-179 6.5q0 32 -13.5 73.5t-35.5 71.5q108 -7 195 -8.5t129 -1.5q27 0 46.5 6.5t35.5 26.5q24 27 40.5 114.5t26.5 250.5t16 414t11 603h-1409v148h1562z" />
    <glyph glyph-name="uni4E61" unicode="&#x4e61;" 
d="M1657 934l162 -55q-138 -310 -364 -512t-532.5 -324.5t-684.5 -192.5q-10 33 -36 79.5t-46 74.5q430 66 759.5 203t538.5 387q-289 -23 -482.5 -39t-314 -27t-187.5 -19.5t-101 -15t-56 -14.5q-4 23 -19.5 71.5t-31.5 80.5q57 7 129 40t172 87q63 30 195.5 110t294.5 191
q-208 -16 -334 -27t-193 -19t-97 -14.5t-48 -13.5q-6 25 -21.5 73.5t-29.5 82.5q38 4 80.5 29t97.5 65q31 20 89.5 66t132 110.5t151 140t145.5 154.5l141 -88q-126 -129 -261.5 -247t-272.5 -212l616 39q65 51 129.5 103t124.5 104l137 -100q-227 -189 -464.5 -346.5
t-475.5 -280.5l859 61q26 45 51 94t47 101z" />
    <glyph glyph-name="uni4E66" unicode="&#x4e66;" 
d="M1942 1374l-95 -114q-41 39 -105.5 90.5t-137 104t-138.5 95.5l90 101q65 -41 138 -91t138.5 -99t109.5 -87zM1012 1208v-399h473v399h-473zM1634 809h295l-1.5 -27.5t-4.5 -44.5q-15 -203 -31.5 -331t-38 -198.5t-51.5 -101.5q-32 -32 -69.5 -45t-90.5 -16
q-46 -3 -131 -1.5t-180 5.5q-1 34 -15 74.5t-34 71.5q97 -10 183.5 -11.5t123.5 -1.5q31 0 50 3.5t36 17.5q29 26 51.5 132t40.5 329h-755v-820h-152v820h-729v145h729v399h-594v148h594v350h152v-350h622v-547z" />
    <glyph glyph-name="uni4E70" unicode="&#x4e70;" 
d="M1653 1079l-125 62q37 57 78.5 134t76.5 159h-1447v145h1499v2h28l25 8l110 -45q-53 -123 -118.5 -250t-126.5 -215zM940 1102l-86 -117q-42 35 -109 76.5t-143 81.5t-145 69l82 103q68 -27 144 -64t144 -76t113 -73zM713 815l-86 -115q-42 34 -108.5 73.5t-141.5 77.5
t-144 67l82 102q68 -27 143.5 -62t143 -72.5t111.5 -70.5zM1090 250l77 106q136 -58 271.5 -125.5t254.5 -135.5t205 -130l-96 -117q-84 63 -198.5 133t-246.5 139t-267 130zM1153 618h760v-143h-803q-55 -160 -163.5 -282.5t-290.5 -210t-459 -144.5q-11 29 -35 67t-45 62
q247 45 411.5 115.5t266 168t157.5 224.5h-807v143h856q34 140 45 311.5t17 379.5h151q-6 -202 -17.5 -373.5t-43.5 -317.5z" />
    <glyph glyph-name="uni4E71" unicode="&#x4e71;" 
d="M922 109v417h-584v-417h584zM702 1481v-336h451v-139h-451v-342h369v-768h-149v75h-584v-88h-143v781h358v342h-465v139h465v309q-97 -15 -196 -27.5t-193 -21.5q-5 26 -17 62t-26 61q154 17 318 42.5t310 57t246 68.5l117 -115q-87 -31 -191.5 -55.5t-218.5 -44.5z
M1487 12h239q38 0 57.5 32.5t28 115.5t13.5 235q27 -21 66 -40.5t71 -26.5q-8 -169 -28 -268.5t-65 -143t-130 -43.5h-269q-86 0 -134 22.5t-67.5 79.5t-19.5 160v1555h150v-1557q0 -77 16.5 -99t71.5 -22z" />
    <glyph glyph-name="uni4E73" unicode="&#x4e73;" 
d="M1149 557l2 -135q-104 -12 -212 -24.5t-212 -24.5v-367q0 -58 -15.5 -89.5t-58.5 -49.5q-44 -17 -113 -20t-175 -3q-7 31 -21 68.5t-27 67.5q76 -4 141 -4t85 1q21 2 29 8.5t8 24.5v348q-129 -15 -247.5 -27.5t-215.5 -23.5l-17 146q97 9 220 20t260 25v133
q69 46 143 111.5t137 131.5h-649v132h768l35 10l100 -78q-78 -94 -182 -188.5t-205 -167.5v-70q103 11 210 22t212 23zM483 1073l-131 -55q-20 71 -63 170t-84 180l123 49q46 -81 89 -178.5t66 -165.5zM512 1411l125 37q32 -83 66 -180t51 -166l-131 -47q-16 70 -48 171
t-63 185zM928 1032l-121 47q34 56 71.5 130.5t71 152t56.5 141.5l145 -57q-51 -105 -111 -220t-112 -194zM1067 1716l104 -121q-128 -36 -293.5 -62t-344 -42.5t-343.5 -26.5q-3 26 -15.5 62.5t-24.5 62.5q160 10 332.5 28t326.5 42.5t258 56.5zM1511 33h224q34 0 52 31.5
t26 114t12 235.5q27 -22 65.5 -41t69.5 -27q-7 -167 -26 -265t-63 -140.5t-126 -42.5h-252q-84 0 -130 22t-64.5 77t-18.5 155v1507h150v-1509q0 -76 15.5 -96.5t65.5 -20.5z" />
    <glyph glyph-name="uni4E86" unicode="&#x4e86;" 
d="M1704 1565l119 -88q-90 -99 -208 -199t-248 -190.5t-257 -159.5v-885q0 -78 -23.5 -116.5t-82.5 -55.5q-59 -18 -162 -22.5t-258 -4.5q-6 33 -24.5 77t-37.5 75q128 -5 234 -4.5t141 2.5q32 1 43.5 11t11.5 38v961q99 48 201 114t197 140t172 147h-1317v149h1462z" />
    <glyph glyph-name="uni4E88" unicode="&#x4e88;" 
d="M1825 965l121 -58q-82 -133 -177.5 -268.5t-189.5 -228.5l-123 77q57 62 120.5 146.5t119.5 173.5h-582v-772q0 -71 -21 -107t-75 -53t-144.5 -21t-224.5 -4q-7 33 -24.5 74.5t-32.5 73.5q106 -5 197.5 -4.5t121.5 2.5q28 1 39 9.5t11 31.5v770h-844v145h1061
q-87 44 -189.5 92.5t-206 95t-194.5 85.5l78 112q84 -33 180.5 -73.5t189.5 -81.5q97 55 201.5 130t187.5 150h-1116v142h1264l35 8l110 -84q-109 -109 -251.5 -218.5t-280.5 -197.5q63 -28 120.5 -55.5t100.5 -50.5l-35 -54h422z" />
    <glyph glyph-name="uni4E89" unicode="&#x4e89;" 
d="M1538 446v238h-451v-238h451zM1087 1047v-224h451v224h-451zM1266 1411h-578q-49 -58 -105.5 -115.5t-119.5 -111.5h608q52 47 102.5 108t92.5 119zM1962 823v-139h-274v-377h-601v-272q0 -74 -21 -110t-75 -54q-52 -18 -141 -22t-225 -3q-8 31 -26 72.5t-34 73.5
q111 -3 200.5 -3.5t117.5 1.5q29 1 40 11t11 36v270h-639v139h639v238h-840v139h840v224h-557v69q-53 -39 -103 -72q-20 25 -53.5 56.5t-60.5 48.5q201 121 344.5 276t220.5 291l164 -28q-20 -36 -44 -71.5t-50 -72.5h573l25 8l108 -73q-46 -74 -110 -151t-134 -144h431
v-361h274z" />
    <glyph glyph-name="uni4E8B" unicode="&#x4e8b;" 
d="M1585 270v154h-491v-154h491zM1094 688v-143h491v143h-491zM502 1051h440v147h-440v-147zM1552 1198h-458v-147h458v147zM1948 545v-121h-211v-363h-152v93h-491v-142q0 -70 -22 -102t-68 -49q-48 -17 -130.5 -21t-209.5 -4q-7 29 -22.5 66t-31.5 63q92 -3 173.5 -2.5
t107.5 0.5q29 2 40 12.5t11 36.5v142h-661v116h661v154h-838v121h838v143h-643v113h643v143h-586v361h586v118h-799v125h799v164h152v-164h815v-125h-815v-118h610v-361h-610v-143h643v-256h211z" />
    <glyph glyph-name="uni2F06" unicode="&#x2f06;" 
d="M295 1419h1460v-162h-1460v162zM123 213h1804v-166h-1804v166z" />
    <glyph glyph-name="uni2F06" unicode="&#x4e8c;" 
d="M295 1419h1460v-162h-1460v162zM123 213h1804v-166h-1804v166z" />
    <glyph glyph-name="uni4E8E" unicode="&#x4e8e;" 
d="M1931 901v-149h-809v-686q0 -83 -24.5 -124.5t-81.5 -60.5q-57 -20 -159 -24t-257 -4q-8 32 -27.5 78.5t-37.5 78.5q125 -3 230 -3t140 1q32 2 46 13.5t14 44.5v686h-846v149h846v516h-705v150h1528v-150h-666v-516h809z" />
    <glyph glyph-name="uni4E8F" unicode="&#x4e8f;" 
d="M1765 1595v-143h-1486v143h1486zM1923 969h-1151q-20 -92 -41 -187t-43 -180h1012l-6 -70q-19 -199 -38 -326t-43.5 -198t-58.5 -104q-38 -37 -81 -49t-109 -15q-58 -3 -164 -1t-223 9q-3 34 -20 74.5t-42 71.5q84 -7 166 -10.5t145.5 -5t94.5 -1.5q40 0 63 3.5t41 15.5
q39 29 63 137t46 328h-1026v2h-23q31 101 62.5 239.5t54.5 266.5h-483v143h1804v-143z" />
    <glyph glyph-name="uni4E91" unicode="&#x4e91;" 
d="M1718 1548v-153h-1374v153h1374zM1929 821h-964q-103 -190 -222.5 -372.5t-242.5 -329.5l1026 78q-62 96 -128.5 192t-127.5 180l135 72q86 -115 177.5 -245t171 -254t128.5 -218l-141 -86q-25 46 -56 102t-69 117q-336 -29 -561 -49t-365 -33t-217 -22t-115.5 -17
t-62.5 -18q-8 28 -25 80.5t-32 87.5q33 9 70.5 49t84.5 103q31 34 91 122.5t132 209t138 251.5h-633v154h1808v-154z" />
    <glyph glyph-name="uni4E92" unicode="&#x4e92;" 
d="M608 539h746q17 119 29.5 231.5t23.5 206.5h-709q-23 -117 -45.5 -229.5t-44.5 -208.5zM1444 66h498v-150h-1827v150h1171q12 76 24.5 159.5t24.5 169.5h-929q26 101 55.5 229.5t58.5 271t55.5 284t47.5 268.5h-441v147h1698v-147h-1096q-12 -78 -27 -160t-32 -168h713
l28 8l113 -14q-10 -104 -25.5 -232.5t-34 -269t-38 -281t-37.5 -265.5z" />
    <glyph glyph-name="uni4E94" unicode="&#x4e94;" 
d="M1421 774h-514q-29 -183 -60 -356.5t-61 -313.5h572q11 109 22.5 227.5t22 233t18.5 209.5zM1516 104h415v-149h-1808v149h498q30 140 62 313.5t62 356.5h-380v150h405q37 229 66 440h-584v149h1532v-149h-787q-15 -103 -32 -215.5t-35 -224.5h516l27 8l116 -12
q-7 -113 -18.5 -252t-25.5 -284.5t-29 -279.5z" />
    <glyph glyph-name="uni4E95" unicode="&#x4e95;" 
d="M737 657h576v486h-565v-230q0 -64 -2.5 -128.5t-8.5 -127.5zM1919 657v-151h-451v-662h-155v662h-594q-34 -195 -131.5 -369.5t-304.5 -312.5q-22 24 -60.5 58t-68.5 52q185 119 276 263.5t125 308.5h-422v151h447q6 63 8 127.5t2 130.5v228h-393v149h393v412h158v-412
h565v414h155v-414h404v-149h-404v-486h451z" />
    <glyph glyph-name="uni4E9A" unicode="&#x4e9a;" 
d="M846 1440v-1329h330v1329h-330zM1337 111h611v-148h-1848v148h584v1329h-528v149h1745v-149h-564v-1329zM178 1102l133 47q54 -109 109 -233t101.5 -240t74.5 -201l-143 -59q-25 86 -70 204.5t-99 245t-106 236.5zM1534 426l-133 51q52 88 110 204.5t110.5 238
t88.5 227.5l145 -49q-45 -115 -99.5 -236t-112 -234t-109.5 -202z" />
    <glyph glyph-name="uni4E9B" unicode="&#x4e9b;" 
d="M1716 682h-348q-96 0 -149 20t-74 70t-21 139v801h152v-405q129 46 251 100t204 106l120 -116q-119 -65 -272 -122t-303 -104v-260q0 -52 19 -68t89 -16h320q41 0 61.5 19.5t29 76.5t13.5 171q26 -20 67 -37.5t75 -26.5q-11 -136 -33.5 -211.5t-69.5 -106t-131 -30.5z
M350 342v145h1372v-145h-1372zM1030 879l2 -138q-165 -22 -330.5 -44t-317.5 -41t-273 -33l-19 147l135 14v705h142v-688l180 22v889h149v-350h318v-139h-318v-381zM123 -106v149h1804v-149h-1804z" />
    <glyph glyph-name="uni4EA1" unicode="&#x4ea1;" 
d="M1927 1135h-1356v-1018h1235v-152h-1392v1170h-293v149h911q-12 49 -37.5 115t-58 136t-66.5 130l154 51q54 -90 104.5 -196.5t71.5 -182.5l-153 -53h880v-149z" />
    <glyph glyph-name="uni4EA4" unicode="&#x4ea4;" 
d="M1901 1432v-150h-1758v150h850q-21 53 -59.5 122.5t-75.5 128.5l141 50q43 -62 86.5 -137t65.5 -128l-92 -36h842zM1266 1135l116 88q94 -64 194.5 -142t188.5 -156.5t144 -144.5l-125 -98q-51 64 -137 145t-186.5 162t-194.5 146zM655 1219l146 -58q-69 -87 -159 -173.5
t-187 -164t-187 -135.5q-20 23 -56 59t-60 56q90 51 182.5 118.5t176 143.5t144.5 154zM1331 874l156 -43q-125 -310 -342 -518q158 -119 360.5 -200t448.5 -119q-25 -25 -52 -65t-42 -72q-254 49 -460.5 137.5t-369.5 220.5q-169 -134 -378.5 -224t-456.5 -153
q-13 28 -41.5 70.5t-51.5 66.5q246 51 452 134.5t366 205.5q-106 103 -188.5 230t-143.5 276l135 41q105 -263 307 -452q98 93 174.5 209t126.5 255z" />
    <glyph glyph-name="uni4EA6" unicode="&#x4ea6;" 
d="M1178 1421l-150 -57q-24 61 -71.5 150.5t-96.5 162.5l144 47q49 -70 100 -155.5t74 -147.5zM1919 1210h-537v-1169q0 -72 -19.5 -109.5t-68.5 -56.5q-50 -18 -136.5 -23.5t-215.5 -5.5q-6 33 -21 77.5t-32 76.5q100 -3 183.5 -3.5t109.5 1.5q27 1 37 10t10 35v1167h-342
v-235q0 -135 -16 -283t-66.5 -298.5t-154 -294t-279.5 -267.5q-19 26 -54 60t-61 53q165 113 261.5 243t143 266t60.5 269t14 252v235h-604v150h1788v-150zM395 993l154 -28q-48 -185 -124 -354t-167 -285q-21 18 -63 45t-70 41q92 106 161 261.5t109 319.5zM1481 942
l131 53q66 -103 129 -222.5t112.5 -233.5t73.5 -201l-143 -64q-23 88 -69.5 204t-107.5 237.5t-126 226.5z" />
    <glyph glyph-name="uni4EA7" unicode="&#x4ea7;" 
d="M1841 1466v-145h-1610v145h766q-21 50 -55 106.5t-70 100.5l150 43q46 -57 90 -126t64 -120l-11 -4h676zM854 1016l-139 -62q-23 60 -72.5 143t-99.5 152l131 54q52 -65 103 -146t77 -141zM1894 948v-147h-1476v-135q0 -121 -16.5 -270t-62 -298t-132.5 -270
q-20 21 -61 57t-64 49q80 110 118.5 240t50 259t11.5 237v278h979q43 71 90.5 169t75.5 175l164 -53q-42 -74 -87.5 -150t-88.5 -141h499z" />
    <glyph glyph-name="uni4EA9" unicode="&#x4ea9;" 
d="M948 928h-516v-334h516v334zM1606 594v334h-508v-334h508zM1098 100h508v353h-508v-353zM432 453v-353h516v353h-516zM283 -158v1231h1476v-1223h-153v105h-1174v-113h-149zM1126 1434h789v-148h-1784v148h864q-26 55 -63 120.5t-72 122.5l144 47q44 -63 90 -142t67 -134
z" />
    <glyph glyph-name="uni4EAB" unicode="&#x4eab;" 
d="M1907 1536v-133h-1770v133h821q-15 40 -34 82.5t-37 79.5l151 31q25 -43 49.5 -95.5t40.5 -97.5h779zM545 1159v-184h962v184h-962zM1665 862h-1270v410h1270v-410zM1931 369v-133h-831v-238q0 -63 -21.5 -93.5t-74.5 -47.5q-53 -14 -143.5 -16.5t-227.5 -2.5
q-6 31 -21 65.5t-30 61.5q103 -3 194 -3t117 1q29 2 39 10t10 29v234h-823v133h823v123q103 21 212 52.5t204 69.5h-1049v125h1290l33 9l103 -86q-131 -74 -298 -136.5t-337 -103.5v-53h831z" />
    <glyph glyph-name="uni4EAC" unicode="&#x4eac;" 
d="M487 418l146 -51q-77 -120 -187.5 -245t-218.5 -214q-21 20 -55 48.5t-57 45.5q68 55 139.5 126.5t133 146.5t99.5 143zM541 1012v-328h979v328h-979zM1677 549h-567v-531q0 -67 -19 -102t-71 -53q-52 -19 -142 -21.5t-225 -1.5q-6 33 -21 73t-30 73q105 -3 190.5 -3.5
t112.5 1.5q29 0 38 8.5t9 30.5v526h-561v596h1286v-596zM1399 344l125 76q65 -66 138.5 -144t138.5 -153.5t106 -132.5l-133 -90q-38 58 -100 136t-134.5 159t-140.5 149zM1155 1458h758v-149h-1774v149h838q-26 52 -58.5 111.5t-66.5 111.5l143 45q43 -59 87.5 -134
t72.5 -134z" />
    <glyph glyph-name="uni4EAD" unicode="&#x4ead;" 
d="M408 373v127h1245v-127h-512v-353q0 -66 -20.5 -99t-76.5 -50q-55 -17 -148.5 -20t-236.5 -3q-6 33 -20.5 71t-30.5 69q111 -5 202.5 -4.5t119.5 2.5q29 1 39 9t10 30v348h-571zM156 403v365h1742v-365h-143v244h-1462v-244h-137zM1491 1010v172h-932v-172h932zM410 1290
h1239v-391h-1239v391zM1151 1540h772v-131h-1794v131h846q-23 37 -48.5 74t-52.5 69l146 41q34 -40 70 -90.5t61 -93.5z" />
    <glyph glyph-name="uni4EAE" unicode="&#x4eae;" 
d="M1495 8h207q28 0 42 15.5t20 63t10 142.5q24 -17 65.5 -33t73.5 -22q-8 -118 -28 -182.5t-59.5 -89.5t-107.5 -25h-245q-130 0 -171.5 40t-41.5 151v297h-488q-18 -150 -72.5 -251t-170.5 -166t-320 -106q-9 29 -35 68t-49 59q157 27 253.5 66.5t148.5 100t72.5 148
t25.5 210.5h792v-426q0 -39 14.5 -49.5t63.5 -10.5zM166 414v340h1712v-338h-149v215h-1418v-217h-145zM1487 991v176h-920v-176h920zM418 1276h1227v-393h-1227v393zM1155 1522h760v-131h-1786v131h854q-36 86 -90 170l149 34q33 -46 64.5 -103.5t48.5 -100.5z" />
    <glyph glyph-name="uni4EB2" unicode="&#x4eb2;" 
d="M1800 1460v-131h-1524v131h691q-22 51 -49 109.5t-56 107.5l148 35q37 -57 72 -126.5t55 -125.5h663zM553 420l147 -45q-72 -129 -176 -249.5t-209 -205.5q-20 20 -58.5 49.5t-66.5 44.5q106 76 204.5 182.5t158.5 223.5zM1313 350l125 76q69 -61 144 -135t139.5 -147
t103.5 -132l-133 -88q-37 59 -99.5 134t-136 152t-143.5 140zM1898 846h-792v-213h760v-137h-760v-476q0 -66 -17 -98.5t-63 -50.5q-44 -17 -119.5 -21t-187.5 -4q-6 33 -20 72t-29 70q81 -3 151.5 -3.5t91.5 1.5q23 0 31 7.5t8 29.5v473h-755v137h755v213h-800v135h501
q-20 65 -56.5 146t-78.5 147l137 35q46 -73 89.5 -159.5t60.5 -148.5l-62 -20h476q41 75 85 164t70 162l156 -33q-37 -72 -76.5 -148.5t-79.5 -144.5h524v-135z" />
    <glyph glyph-name="uni2F08" unicode="&#x2f08;" 
d="M938 1706h168q-2 -55 -4.5 -130.5t-9.5 -166.5q7 -61 25.5 -166.5t55 -238.5t98 -276.5t155.5 -283t227.5 -258t314.5 -198.5q-32 -26 -63 -61.5t-47 -67.5q-192 90 -332.5 222.5t-238 287.5t-160 314t-99.5 302q-35 -154 -96.5 -312t-157 -309t-233 -282.5
t-324.5 -231.5q-20 31 -53.5 63.5t-69.5 55.5q213 108 358.5 255.5t237.5 316.5t142.5 341.5t72.5 331t26.5 286.5t6.5 206z" />
    <glyph glyph-name="uni2F08" unicode="&#x4eba;" 
d="M938 1706h168q-2 -55 -4.5 -130.5t-9.5 -166.5q7 -61 25.5 -166.5t55 -238.5t98 -276.5t155.5 -283t227.5 -258t314.5 -198.5q-32 -26 -63 -61.5t-47 -67.5q-192 90 -332.5 222.5t-238 287.5t-160 314t-99.5 302q-35 -154 -96.5 -312t-157 -309t-233 -282.5
t-324.5 -231.5q-20 31 -53.5 63.5t-69.5 55.5q213 108 358.5 255.5t237.5 316.5t142.5 341.5t72.5 331t26.5 286.5t6.5 206z" />
    <glyph glyph-name="uni4EBF" unicode="&#x4ebf;" 
d="M578 1708l143 -45q-40 -103 -89.5 -207t-105.5 -203v-1407h-147v1172q-52 -75 -108 -144.5t-113 -128.5q-13 28 -39.5 77t-46.5 75q100 98 194 228.5t173.5 279t138.5 303.5zM1100 82l530 -2q54 0 83.5 30.5t42 119t18.5 262.5q29 -17 68 -31.5t71 -20.5
q-9 -160 -27 -260t-50 -153t-83.5 -73t-128.5 -20h-514q-181 0 -265.5 64.5t-84.5 175.5q0 32 7 69.5t32 92t78 136t143.5 201.5t229 287.5t335.5 395.5h-784v145h938l37 6l96 -53q-5 -6 -11 -12l-12 -12q-222 -251 -378.5 -434.5t-260 -312t-164.5 -214t-90 -138.5t-38 -85
t-9 -56q0 -56 52.5 -82t138.5 -26z" />
    <glyph glyph-name="uni4EC0" unicode="&#x4ec0;" 
d="M598 1706l143 -45q-85 -219 -200 -418v-1397h-150v1160q-54 -76 -110 -145.5t-113 -129.5q-12 26 -39 74t-47 76q102 100 198.5 232.5t178 283.5t139.5 309zM1948 1010v-150h-551v-1018h-154v1018h-571v150h571v682h154v-682h551z" />
    <glyph glyph-name="uni4EC0" unicode="&#xf9fd;" 
d="M598 1706l143 -45q-85 -219 -200 -418v-1397h-150v1160q-54 -76 -110 -145.5t-113 -129.5q-12 26 -39 74t-47 76q102 100 198.5 232.5t178 283.5t139.5 309zM1948 1010v-150h-551v-1018h-154v1018h-571v150h571v682h154v-682h551z" />
    <glyph glyph-name="uni4EC1" unicode="&#x4ec1;" 
d="M1855 1368v-158h-1058v158h1058zM606 1708l150 -47q-46 -115 -101 -229t-118 -222v-1364h-150v1133q-51 -71 -105 -134t-108 -118q-12 26 -41.5 74t-52.5 76q105 100 203.5 233t181.5 285.5t141 312.5zM682 150h1262v-158h-1262v158z" />
    <glyph glyph-name="uni4EC5" unicode="&#x4ec5;" 
d="M606 1700l150 -47q-46 -112 -101 -223t-118 -216v-1368h-150v1143q-55 -77 -113.5 -145.5t-119.5 -126.5q-14 27 -43 75.5t-52 75.5q110 100 212 232.5t188 285.5t147 314zM1690 1346h-723q53 -245 139 -459.5t209 -390.5q129 167 224 379t151 471zM1763 1497l99 -35
q-59 -347 -176 -616.5t-277 -470.5q114 -134 256 -235.5t315 -164.5q-26 -21 -54.5 -57t-43.5 -65q-173 69 -314.5 172.5t-256.5 236.5q-132 -141 -285 -244t-321 -174q-14 30 -41 67t-50 58q166 62 319 165.5t284 246.5q-137 193 -234 435t-162 523l29 7h-102v143h989z" />
    <glyph glyph-name="uni4EC6" unicode="&#x4ec6;" 
d="M596 1706l149 -47q-85 -222 -204 -436v-1379h-154v1129q-54 -77 -111.5 -147.5t-115.5 -133.5q-13 28 -40 78.5t-50 79.5q105 103 203 240t181 294t142 322zM1108 -152v1840h160v-1840h-160zM1282 1051l107 106q90 -78 195 -170.5t200.5 -181t157.5 -154.5l-113 -127
q-59 69 -152.5 160.5t-198.5 188t-196 178.5z" />
    <glyph glyph-name="uni4EC7" unicode="&#x4ec7;" 
d="M551 1708l143 -43q-40 -114 -92 -224.5t-108 -217.5v-1381h-150v1133q-43 -63 -88.5 -120t-89.5 -107q-12 26 -40 73.5t-48 75.5q95 98 183 228.5t162.5 279t127.5 303.5zM1692 10h69q32 0 49 10q19 16 25 64q3 31 5.5 95.5t2.5 152.5q54 -48 125 -68q-1 -77 -7 -157.5
t-15 -114.5q-10 -37 -25 -59t-37 -37q-23 -14 -53 -19.5t-59 -5.5h-115q-32 0 -66.5 8.5t-58.5 30.5q-16 15 -26.5 36t-15.5 63t-5 120v961h-342q-16 -266 -62 -500.5t-146.5 -426t-281.5 -327.5q-17 28 -51 61t-61 50q168 122 261.5 296t135.5 388.5t55 458.5h-352v147h356
q3 114 3.5 233t0.5 240h152q0 -121 -1 -240t-5 -233h489v-1118q0 -85 17 -99q17 -10 39 -10z" />
    <glyph glyph-name="uni4ECA" unicode="&#x4eca;" 
d="M1608 711l26 10l117 -57q-84 -115 -194.5 -257.5t-229.5 -290.5t-227 -280l-156 72q88 100 182.5 215t185 228t165.5 208h-1143v152h1274zM1296 858l-108 -106q-41 45 -107 104t-140.5 120t-139.5 111l102 93q66 -47 141 -105t142.5 -115t109.5 -102zM1014 1726l143 -69
q-9 -14 -19.5 -29t-19.5 -29q103 -118 246.5 -236t301.5 -217t302 -163q-31 -23 -64 -63.5t-55 -71.5q-134 67 -281 169t-286.5 223t-251.5 247q-166 -198 -385 -367t-450 -284q-20 30 -51.5 67.5t-65.5 63.5q183 84 359 202.5t325 260.5t252 296z" />
    <glyph glyph-name="uni4ECB" unicode="&#x4ecb;" 
d="M573 649v260h156v-262q0 -102 -14 -209.5t-59.5 -213t-136.5 -203.5t-245 -181q-18 26 -55.5 59t-66.5 52q142 74 227 160t126.5 177t54.5 182.5t13 178.5zM1335 -162v1073h156v-1073h-156zM1022 1724l121 -82q-8 -13 -16.5 -26t-16.5 -27q93 -126 234.5 -243.5t309 -210
t339.5 -142.5q-28 -23 -58.5 -65t-50.5 -74q-163 56 -320.5 150t-296 214t-243.5 257q-109 -139 -248.5 -262t-296 -221.5t-317.5 -162.5q-16 33 -41 74t-51 70q143 47 283.5 125.5t267 178.5t229.5 214t172 233z" />
    <glyph glyph-name="uni4ECD" unicode="&#x4ecd;" 
d="M475 1702l139 -41q-32 -103 -72.5 -206t-86.5 -200v-1413h-146v1141q-40 -66 -82.5 -127.5t-85.5 -114.5q-10 28 -37 77.5t-47 78.5q85 98 163 227.5t143 277t112 300.5zM1516 981h362v-28t-2 -42q-17 -328 -34.5 -529.5t-41 -306.5t-59.5 -145q-31 -36 -65.5 -51.5
t-88.5 -19.5q-47 -5 -128 -3.5t-175 7.5q-1 34 -14.5 75.5t-34.5 71.5q95 -9 176 -10.5t117 -1.5q29 0 48 5t36 22q27 26 47.5 114t36.5 258t30 445h-389q31 115 65 273t60 310h-405q-5 -210 -20.5 -432t-58.5 -434.5t-126 -398.5t-223 -324q-22 26 -55 56t-64 47
q133 125 210.5 298.5t116 374.5t51 409.5t15.5 403.5h-237v142h968q-26 -140 -57.5 -297t-60.5 -289z" />
    <glyph glyph-name="uni4ECE" unicode="&#x4ece;" 
d="M1047 444l-115 -108q-48 98 -131.5 231t-175.5 256q-50 -302 -141 -546.5t-246 -430.5q-20 20 -68.5 53t-79.5 52q168 178 260 434.5t133 579.5t58 700l164 -6q-10 -171 -22.5 -330.5t-29.5 -306.5q76 -90 152 -194t139.5 -204.5t102.5 -179.5zM1321 1669l164 -8
q-12 -183 -28.5 -349.5t-41.5 -320.5q28 -128 72 -268t109 -274.5t153.5 -250t204.5 -194.5q-23 -21 -57.5 -62.5t-53.5 -72.5q-124 96 -217 230t-159.5 285.5t-110.5 299.5q-65 -260 -172.5 -467.5t-276.5 -363.5q-20 20 -68 54t-79 52q204 170 317.5 420.5t167 574.5
t76.5 715z" />
    <glyph glyph-name="uni4ED3" unicode="&#x4ed3;" 
d="M1016 1716l143 -63q-11 -17 -23 -35t-24 -35q180 -215 398 -363.5t468 -265.5q-29 -24 -58 -59.5t-44 -69.5q-244 126 -453.5 278t-392.5 367q-109 -136 -241.5 -257.5t-278.5 -223.5h1049l-1.5 -26.5t-1.5 -42.5q-8 -178 -17.5 -287.5t-24 -169.5t-35.5 -86
q-28 -29 -61.5 -41.5t-78.5 -13.5q-43 -5 -119.5 -4t-160.5 6q-2 30 -12 68t-25 67q83 -8 154.5 -10.5t99.5 -2.5q53 0 74 21q18 21 30 107t21 272h-770v-684q0 -48 15.5 -73.5t59.5 -34.5t130 -9h587q77 0 115.5 23t54.5 89.5t25 196.5q29 -20 73.5 -38t80.5 -25
q-16 -156 -47.5 -242t-100.5 -119.5t-197 -33.5h-593q-139 0 -217 21.5t-110 78.5t-32 164v805q-71 -46 -144 -88.5t-149 -77.5q-18 29 -48 66t-60 63q188 83 366 204t326.5 269.5t249.5 314.5z" />
    <glyph glyph-name="uni4ED4" unicode="&#x4ed4;" 
d="M551 1712l143 -45q-90 -241 -215 -467v-1358h-145v1125q-42 -59 -85.5 -113.5t-86.5 -101.5q-12 26 -40 74t-46 73q94 99 182.5 229.5t163.5 279t129 304.5zM1958 831v-147h-578v-639q0 -74 -21 -112.5t-73 -55.5q-52 -18 -144 -22.5t-229 -4.5q-6 33 -21 77.5t-32 76.5
q108 -3 199.5 -4.5t122.5 0.5q27 2 37 10.5t10 36.5v637h-586v147h586v295q103 56 213 136t194 163h-866v144h1004l30 8l105 -76q-103 -120 -246.5 -237t-282.5 -203v-230h578z" />
    <glyph glyph-name="uni4ED6" unicode="&#x4ed6;" 
d="M551 1706l139 -43q-43 -111 -95 -220.5t-112 -213.5v-1383h-149v1149q-95 -135 -203 -245q-12 24 -39 71t-47 72q100 98 194.5 228.5t174.5 279.5t137 305zM1139 8h522q62 0 94 24t46.5 88t23.5 185q27 -20 67 -38t74 -25q-13 -141 -40 -222t-86.5 -115t-172.5 -34h-534
q-122 0 -191 23.5t-97 84.5t-28 173v665l-199 -78l-59 133l258 101v538h150v-479l299 117v561h145v-508l318 123l20 18l27 23l104 -43l-6 -27q0 -184 -2.5 -338t-7.5 -261t-15 -150q-12 -71 -43.5 -104t-79.5 -46q-41 -10 -100.5 -13t-105.5 -1q-3 34 -13 75t-24 68
q41 -3 88 -3.5t67 -0.5q28 0 44.5 11t25.5 51q12 41 16.5 195.5t6.5 394.5l-320 -125v-752h-145v694l-299 -119v-720q0 -59 12.5 -90t49.5 -42.5t110 -11.5z" />
    <glyph glyph-name="uni4ED7" unicode="&#x4ed7;" 
d="M606 1700l148 -47q-93 -221 -217 -428v-1379h-150v1153q-58 -78 -119.5 -149t-126.5 -131q-10 26 -39.5 74t-52.5 75q111 100 215 233t192 286t150 313zM1503 1137v-11q0 -133 -14.5 -272t-57.5 -277.5t-131 -269.5q125 -123 293.5 -206t386.5 -126q-24 -26 -52 -65.5
t-44 -71.5q-215 51 -382 138t-296 210q-84 -95 -205 -183t-284 -165q-16 26 -48.5 64t-58.5 61q168 75 288 163t202 181q-103 132 -177 294.5t-124 361.5l139 28q41 -163 103.5 -303.5t150.5 -257.5q104 171 132 349t28 347v11h-680v145h680v422h151v-422h453v-145h-453z
" />
    <glyph glyph-name="uni4ED8" unicode="&#x4ed8;" 
d="M606 1700l150 -47q-46 -115 -100 -228t-117 -219v-1358h-152v1123q-49 -69 -102 -131.5t-105 -116.5q-14 26 -43 74.5t-51 74.5q104 100 201.5 232.5t179 284.5t139.5 311zM1948 1260v-152h-260v-1057q0 -86 -26 -126.5t-83 -57.5q-60 -19 -166 -22.5t-272 -2.5
q-6 29 -24.5 74t-35.5 76q86 -3 166 -4.5t139.5 -1t83.5 1.5q34 3 49 15.5t15 47.5v1057h-825v152h825v430h154v-430h260zM1276 397l-141 -75q-31 63 -81 151t-107 182.5t-109 175.5l131 62q53 -79 111.5 -170.5t110.5 -177t85 -148.5z" />
    <glyph glyph-name="uni4ED9" unicode="&#x4ed9;" 
d="M549 1710l143 -43q-43 -114 -93.5 -226t-109.5 -218v-1379h-145v1141q-88 -128 -186 -235q-11 26 -38.5 74t-47.5 73q95 99 183.5 229.5t164 279.5t129.5 304zM1722 1249h150v-1403h-150v125h-981v1270h150v-1126h334v1564h151v-1564h346v1134z" />
    <glyph glyph-name="uni4EE3" unicode="&#x4ee3;" 
d="M1907 1341l-119 -81q-33 46 -87.5 105t-118 119.5t-124.5 110.5l111 74q61 -48 126 -106.5t121 -116.5t91 -105zM643 1690l143 -45q-44 -108 -100 -211t-119 -203v-1385h-153v1166q-66 -86 -135 -161.5t-140 -139.5q-12 27 -40 74t-48 73q117 99 227.5 232t204.5 286
t160 314zM1946 1030l-619 -78q35 -271 92 -476.5t138.5 -324t191.5 -128.5q45 -4 71 85.5t42 266.5q23 -22 63.5 -45.5t63.5 -34.5q-23 -175 -57.5 -274.5t-79 -139.5t-97.5 -37q-168 13 -282 150.5t-185 377.5t-110 560l-492 -62l-20 144l495 61q-12 143 -22.5 295
t-16.5 311h152q4 -155 13.5 -302.5t25.5 -282.5l612 78z" />
    <glyph glyph-name="uni4EE4" unicode="&#x4ee4;" 
d="M1634 782l111 -69q-76 -80 -171 -177t-197.5 -200t-200.5 -199q66 -47 124 -93.5t103 -84.5l-117 -127q-69 68 -180.5 153.5t-237 171.5t-237.5 154l108 109q73 -42 152.5 -93.5t159.5 -103.5q104 100 211 206.5t194 197.5h-1108v147h1260zM1245 924l-115 -99
q-30 45 -81.5 101t-111 112.5t-116.5 102.5l109 86q55 -44 116 -98.5t114 -108t85 -96.5zM1042 1720l140 -73q-14 -17 -28 -34.5t-28 -35.5q106 -110 251.5 -217.5t304 -197t303.5 -144.5q-28 -25 -60.5 -66t-52.5 -71q-136 62 -287 155.5t-294.5 206t-258.5 230.5
q-173 -183 -394 -336.5t-450 -259.5q-18 27 -47.5 63t-60.5 64q184 77 365.5 189.5t336.5 247t260 279.5z" />
    <glyph glyph-name="uni4EE5" unicode="&#x4ee5;" 
d="M1212 1047l-137 -80q-28 65 -78 150.5t-110 173.5t-119 163l129 68q60 -73 121 -158t112.5 -168t81.5 -149zM496 340l475 221q4 -34 16.5 -75.5t22.5 -67.5q-222 -106 -355 -171.5t-204.5 -103t-104 -58.5t-51.5 -38q-9 26 -36.5 65t-47.5 60q21 12 50 37.5t51 62.5
t22 84v1198h162v-1214zM1970 -53l-131 -99q-41 66 -107 148.5t-145.5 170.5t-161.5 169q-99 -163 -245.5 -287t-354.5 -219q-15 25 -50.5 66.5t-61.5 64.5q245 98 402.5 244t247.5 349.5t133 471t60 606.5l160 -8q-21 -364 -69.5 -649.5t-149.5 -503.5q88 -84 178.5 -178
t168 -184.5t126.5 -161.5z" />
    <glyph glyph-name="uni4EEA" unicode="&#x4eea;" 
d="M1464 1260l-129 -74q-19 54 -55.5 126.5t-81.5 149.5t-90 144l121 59q46 -63 92.5 -137t84.5 -144.5t58 -123.5zM551 1706l143 -45q-44 -112 -97.5 -222t-113.5 -216v-1375h-145v1149q-49 -70 -102 -133t-105 -119q-11 27 -37.5 75t-48.5 73q100 98 194.5 228.5
t174.5 279.5t137 305zM1714 1595l150 -26q-65 -357 -172.5 -661t-302.5 -543q113 -131 258.5 -229t324.5 -163q-26 -23 -58.5 -62.5t-49.5 -70.5q-180 71 -324.5 173t-259.5 231q-121 -122 -276.5 -222.5t-352.5 -179.5q-14 25 -41.5 59.5t-50.5 57.5q200 75 355.5 175
t273.5 224q-166 229 -270 527t-168 659l145 19q54 -323 150 -596.5t249 -487.5q175 226 270 508.5t150 607.5z" />
    <glyph glyph-name="uni4EEC" unicode="&#x4eec;" 
d="M467 1702l139 -39q-31 -111 -71 -221.5t-84 -214.5v-1383h-148v1088q-67 -120 -141 -215q-6 16 -20.5 45.5t-31.5 59t-30 46.5q121 155 221 377t166 457zM696 -158v1461h148v-1461h-148zM780 1649l119 63q45 -61 92.5 -132.5t87.5 -139.5t64 -119l-125 -72
q-22 51 -60 121t-85 143t-93 136zM1880 1638v-1601q0 -71 -18.5 -107t-63.5 -55q-46 -18 -126 -22.5t-199 -4.5q-5 30 -19.5 72.5t-30.5 73.5q88 -5 163 -4.5t100 2.5q26 1 35.5 11t9.5 36v1460h-553v139h702z" />
    <glyph glyph-name="uni4EF0" unicode="&#x4ef0;" 
d="M496 1714l139 -41q-34 -103 -74 -206.5t-86 -202.5v-1422h-147v1145q-43 -72 -88.5 -136.5t-92.5 -121.5q-10 25 -36.5 75t-42.5 79q87 102 166.5 235.5t146 285.5t115.5 310zM1149 1669l106 -113q-89 -38 -198 -76t-215 -67v-1038l323 110q2 -29 7 -66t10 -59
q-147 -56 -237 -92.5t-139 -58t-72.5 -35t-37.5 -24.5q-9 23 -32 57.5t-41 52.5q24 17 51.5 57t27.5 109v1069q120 34 244.5 82t202.5 92zM1886 1487v-1122q0 -60 -15 -96t-56 -56q-40 -18 -107.5 -22.5t-171.5 -4.5q-3 31 -18.5 73t-30.5 73q75 -3 136 -2.5t81 0.5
q35 0 35 37v985h-334v-1510h-145v1645h626z" />
    <glyph glyph-name="uni4EF6" unicode="&#x4ef6;" 
d="M553 1706l143 -45q-43 -112 -93.5 -224t-108.5 -218v-1373h-146v1137q-44 -66 -92.5 -126t-95.5 -114q-11 28 -38.5 76t-47.5 74q95 99 184 229.5t165 279.5t130 304zM1942 698v-149h-556v-707h-151v707h-584v149h584v449h-322q-32 -89 -69 -168t-78 -143q-22 16 -62 40
t-69 37q91 126 153.5 313.5t98.5 385.5l143 -31q-14 -72 -30.5 -143.5t-36.5 -141.5h272v392h151v-392h467v-149h-467v-449h556z" />
    <glyph glyph-name="uni4EF7" unicode="&#x4ef7;" 
d="M553 1712l143 -43q-40 -112 -91 -224t-107 -218v-1383h-150v1133q-41 -63 -85 -119.5t-89 -105.5q-14 26 -42 74t-46 73q94 99 181 230t160.5 280t125.5 303zM901 643v277h152v-279q0 -88 -12 -191.5t-48 -212.5t-107.5 -213.5t-191.5 -195.5q-18 26 -49.5 57t-60.5 49
q110 77 174 170t95 189.5t39.5 187t8.5 162.5zM1479 -152v1076h153v-1076h-153zM1223 1718l159 -28q-10 -22 -21 -46t-22 -47q73 -122 178 -240.5t225 -217t238 -160.5q-26 -20 -57.5 -55.5t-48.5 -63.5q-110 64 -220 158.5t-210.5 208t-179.5 235.5q-106 -173 -263.5 -337
t-375.5 -294q-14 28 -43 63.5t-52 55.5q182 103 318 232.5t229 268t146 267.5z" />
    <glyph glyph-name="uni4EFB" unicode="&#x4efb;" 
d="M606 1712l148 -45q-46 -112 -100 -221t-117 -213v-1391h-150v1166q-116 -158 -242 -277q-10 28 -39.5 76t-54.5 76q112 99 215.5 232t190.5 285.5t149 311.5zM1958 696h-578v-628h547v-148h-1225v148h527v628h-604v148h604v540q-123 -21 -248 -39t-242 -32q-4 27 -19 65
t-28 64q190 24 390 58.5t378 76t303 86.5l113 -127q-104 -34 -230.5 -65.5t-265.5 -59.5v-567h578v-148z" />
    <glyph glyph-name="uni4EFD" unicode="&#x4efd;" 
d="M537 1706l143 -41q-38 -114 -87.5 -225t-105.5 -217v-1381h-149v1131q-42 -63 -86 -120t-88 -110q-11 28 -38.5 76t-47.5 74q92 99 177 229.5t157 279.5t125 304zM823 918h916l-0.5 -28.5t-1.5 -43.5q-15 -311 -30 -500t-36 -286t-53 -134q-28 -34 -60 -48.5t-75 -18.5
q-39 -3 -103 -3t-135 5q-1 32 -11.5 72t-29.5 69q69 -6 128.5 -8t86.5 -2q25 0 40.5 5t29.5 21q21 25 38.5 105t31.5 237.5t26 413.5h-360q-42 -338 -155.5 -566t-340.5 -368q-15 22 -48 57.5t-56 55.5q213 117 315 321t133 500h-260v131q-32 -37 -65 -69.5t-70 -63.5
q-12 26 -41.5 68t-52.5 65q159 126 273 322.5t177 431.5l148 -31q-59 -206 -149 -387.5t-210 -322.5zM1405 1647l135 24q43 -179 102.5 -314t143 -241t199.5 -198q-31 -24 -61 -58t-44 -69q-127 107 -216.5 229.5t-151.5 275.5t-107 351z" />
    <glyph glyph-name="uni4EFF" unicode="&#x4eff;" 
d="M1450 1405l-158 -43q-14 60 -41 149t-53 164l150 33q27 -72 57 -158.5t45 -144.5zM549 1710l147 -43q-85 -231 -207 -453v-1368h-147v1131q-43 -63 -88.5 -121t-89.5 -108q-12 27 -41 75t-49 76q95 98 183.5 228.5t163.5 279.5t128 303zM1958 1206h-784q-4 -77 -7.5 -151
t-9.5 -148h653v-27t-2 -42q-14 -309 -28.5 -494.5t-35.5 -281t-52 -132.5q-30 -35 -65 -49t-83 -18q-44 -5 -119.5 -3t-156.5 5q-3 32 -15 72t-30 69q83 -6 154.5 -8t101.5 -2q29 0 46.5 5t30.5 22q23 22 40.5 101t31 234t25.5 406h-510q-22 -189 -71 -360t-140 -314.5
t-240 -249.5q-18 26 -50.5 57.5t-61.5 47.5q144 99 229 237t127.5 303.5t57.5 348.5t20 372h-348v148h1292v-148z" />
    <glyph glyph-name="uni4F01" unicode="&#x4f01;" 
d="M1120 551v-508h783v-139h-1733v139h258v756h150v-756h385v1114h157v-469h592v-137h-592zM1020 1733l137 -66q-11 -17 -23 -33l-24 -32q192 -225 413 -366.5t459 -246.5q-26 -24 -54 -59.5t-44 -69.5q-233 114 -446 259.5t-410 375.5q-166 -198 -386.5 -361.5
t-461.5 -271.5q-17 29 -46 64.5t-58 62.5q188 76 367 190.5t328.5 256t248.5 297.5z" />
    <glyph glyph-name="uni4F0D" unicode="&#x4f0d;" 
d="M559 1708l141 -41q-40 -107 -89.5 -213.5t-104.5 -206.5v-1405h-148v1166q-106 -154 -221 -275q-9 26 -35.5 74t-46.5 76q101 100 194.5 232.5t173 284t136.5 308.5zM1610 770h-420q-29 -192 -61.5 -373.5t-61.5 -324.5h473q13 113 26 238t24.5 244t19.5 216zM1690 72
h270v-144h-1346v144h297q33 144 65 325t64 373h-317v143h338q20 128 38 253.5t34 240.5h-431v143h1192v-143h-606q-17 -115 -35.5 -240.5t-38.5 -253.5h420l25 9l113 -11q-8 -114 -21 -257.5t-29 -294t-32 -287.5z" />
    <glyph glyph-name="uni4F0F" unicode="&#x4f0f;" 
d="M1855 1298l-122 -77q-24 48 -63.5 111t-87 129t-93.5 122l115 68q46 -55 94.5 -119t90 -125.5t66.5 -108.5zM569 1710l146 -45q-85 -223 -203 -428v-1393h-150v1153q-103 -147 -210 -258q-11 28 -38 77t-48 77q100 98 194 229.5t173.5 281.5t135.5 306zM1935 963h-577
q49 -223 130.5 -415t199.5 -339t278 -234q-28 -21 -61 -59.5t-52 -71.5q-207 128 -345.5 348.5t-223.5 507.5q-49 -224 -175 -445.5t-374 -410.5q-21 25 -56.5 52t-68.5 47q203 152 319 324.5t170.5 350t71.5 345.5h-526v149h537q1 32 1.5 63t0.5 62v473h151v-473v-62
t-2 -63h602v-149z" />
    <glyph glyph-name="uni4F10" unicode="&#x4f10;" 
d="M1808 1397l-100 -97q-38 39 -96.5 91t-124 106t-123.5 100l96 82q59 -43 125 -94.5t125 -101t98 -86.5zM606 1704l146 -45q-87 -222 -213 -434v-1377h-152v1141q-51 -70 -105 -133t-108 -119q-12 25 -40.5 73t-49.5 73q104 99 201.5 230.5t180 282t140.5 308.5zM1698 971
l145 -53q-81 -159 -186 -296t-230 -255q63 -174 141 -272.5t163 -98.5q43 0 65 82.5t33 277.5q26 -23 63.5 -46t69.5 -34q-14 -168 -41 -262.5t-75.5 -133t-127.5 -38.5q-130 0 -234.5 111t-183.5 303q-254 -202 -567 -340q-15 28 -46.5 68t-55.5 61q172 68 328.5 157.5
t289.5 203.5q-41 132 -72 287t-53 327l-499 -53l-15 143l500 49q-12 129 -19.5 262t-9.5 269h156q0 -269 25 -514l639 65l12 -141l-635 -66q34 -286 100 -510q96 97 177 209.5t143 237.5z" />
    <glyph glyph-name="uni4F11" unicode="&#x4f11;" 
d="M604 1700l152 -47q-95 -230 -224 -439v-1368h-149v1149q-117 -154 -242 -270q-10 28 -40 77t-52 77q113 97 217 227t191 281.5t147 312.5zM1946 1047h-504q65 -163 154.5 -319.5t192.5 -287.5t210 -217q-28 -21 -62 -56.5t-53 -66.5q-99 93 -195 222.5t-181.5 283.5
t-153.5 318v-1082h-150v1039q-103 -240 -242.5 -448.5t-289.5 -340.5q-22 26 -55.5 61.5t-59.5 55.5q111 87 216.5 219.5t196 292t154.5 326.5h-495v147h575v492h150v-492h592v-147z" />
    <glyph glyph-name="uni4F17" unicode="&#x4f17;" 
d="M1049 289l-107 -109q-49 65 -135 151.5t-178 166.5q-60 -203 -155.5 -364t-233.5 -277q-20 20 -62 49t-69 45q208 160 315 422.5t145 609.5l154 -16q-21 -170 -55 -322q71 -56 144 -120t135.5 -125.5t101.5 -110.5zM1305 973l153 -19q-8 -69 -17 -134t-22 -130
q37 -123 104.5 -256.5t170 -250t243.5 -189.5q-24 -22 -56 -62t-50 -69q-114 66 -203 162t-155 207t-111 223q-60 -197 -154.5 -349.5t-232.5 -263.5q-19 20 -61 50.5t-68 46.5q218 156 321.5 416t137.5 618zM1012 1724l147 -59q-24 -52 -55 -98q88 -127 222 -241
t297 -201.5t337 -133.5q-26 -23 -57 -63.5t-50 -69.5q-161 51 -313 139.5t-282.5 204.5t-227.5 250q-147 -204 -356.5 -357.5t-462.5 -250.5q-17 32 -46.5 72.5t-60.5 66.5q201 67 376.5 173.5t312 249.5t219.5 318z" />
    <glyph glyph-name="uni4F18" unicode="&#x4f18;" 
d="M1815 1360l-113 -84q-28 42 -73.5 96t-98 110t-103.5 103l107 76q49 -45 102.5 -99.5t101 -107.5t77.5 -94zM561 1708l144 -43q-45 -120 -99.5 -237.5t-116.5 -229.5v-1354h-145v1121q-41 -60 -85 -115t-87 -102q-12 26 -40 73.5t-48 75.5q95 99 184 229t164 278.5
t129 303.5zM1939 1085h-739q-18 -250 -69.5 -481t-158.5 -423.5t-292 -327.5q-18 27 -51 59.5t-62 50.5q174 122 273.5 297t146.5 385.5t64 439.5h-451v146h461q4 114 6 228.5t2 228.5h150q0 -114 -2.5 -228.5t-8.5 -228.5h731v-146zM1524 39h207q29 0 45 23t22.5 90.5
t9.5 201.5q25 -20 65 -38t71 -27q-8 -153 -26.5 -237.5t-59.5 -118t-115 -33.5h-238q-120 0 -161 45t-41 170v811h149v-811q0 -46 13 -61t59 -15z" />
    <glyph glyph-name="uni4F19" unicode="&#x4f19;" 
d="M1784 1335l164 -47q-35 -97 -76 -201.5t-83 -201.5t-81 -170l-133 45q36 75 75.5 175.5t75 206t58.5 193.5zM817 678l-147 59q40 71 70.5 170t51.5 208.5t31 209.5l146 -20q-11 -105 -31 -219t-50.5 -220.5t-70.5 -187.5zM563 1710l146 -47q-40 -108 -91 -215.5
t-108 -208.5v-1393h-154v1143q-46 -64 -94 -123.5t-96 -111.5q-8 16 -24 45.5t-33.5 59t-30.5 46.5q97 97 187.5 226.5t167 277t130.5 301.5zM1214 1696h160q0 -220 -2.5 -415.5t-17.5 -367.5q32 -236 104 -422t198 -313.5t322 -189.5q-26 -23 -54.5 -63.5t-45.5 -74.5
q-237 90 -374.5 261.5t-211.5 425.5q-61 -234 -198 -406t-392 -285q-16 30 -47 65t-57 58q192 82 311 197.5t182.5 267t89 341t29.5 419.5t4 502z" />
    <glyph glyph-name="uni4F1A" unicode="&#x4f1a;" 
d="M190 543v147h1682v-147h-893q-95 -126 -201 -245.5t-217 -219.5l930 69q-55 65 -117 128.5t-121 117.5l129 70q92 -82 181.5 -177t164 -188t119.5 -170l-135 -84q-21 37 -51 80.5t-64 89.5q-323 -27 -540 -45t-351.5 -30t-208.5 -20.5t-110.5 -15.5t-58.5 -16
q-8 25 -23.5 74.5t-28.5 83.5q33 6 69.5 34t82.5 73q29 23 84.5 81t124.5 138.5t135 171.5h-582zM1032 1712l146 -63q-16 -20 -31 -41t-29 -41q93 -96 228.5 -196.5t295 -188t324.5 -144.5q-26 -23 -57 -63t-49 -72q-159 65 -313 158.5t-287.5 198.5t-229.5 204
q-193 -211 -461 -383h947v-141h-973v125q-80 -51 -164.5 -96.5t-173.5 -85.5q-17 29 -51 68.5t-60 62.5q199 84 379 194.5t324 238.5t235 265z" />
    <glyph glyph-name="uni4F1E" unicode="&#x4f1e;" 
d="M1098 1208v-751h835v-148h-835v-467h-154v467h-835v148h835v751h154zM414 979l127 55q45 -64 89 -139.5t79 -148.5t53 -130l-135 -63q-17 56 -50.5 130t-76 151.5t-86.5 144.5zM1505 1034l148 -55q-60 -109 -130 -227t-130 -201l-117 53q39 56 82 132t82 154.5t65 143.5z
M1051 1724l120 -67q-15 -19 -29.5 -36t-29.5 -34q195 -166 416.5 -274.5t458.5 -188.5q-28 -24 -56.5 -61.5t-44.5 -71.5q-232 88 -448 205t-422 297q-174 -163 -397 -296t-447 -220q-17 31 -45 69t-57 64q184 64 368.5 158t344 210t268.5 246z" />
    <glyph glyph-name="uni4F1F" unicode="&#x4f1f;" 
d="M563 1706l144 -43q-43 -115 -95 -228.5t-110 -222.5v-1372h-148v1133q-43 -63 -88.5 -120t-91.5 -110q-12 28 -39 75.5t-47 72.5q95 100 184 231t163.5 280t127.5 304zM1331 694h598l-1 -24t-3 -39q-12 -185 -25 -300.5t-30 -178t-39 -86.5q-22 -27 -47.5 -38t-59.5 -14
q-27 -4 -74 -4.5t-100 2.5q-3 31 -12 68.5t-25 66.5q50 -6 89.5 -7t58.5 -1q37 0 55 19q19 24 34.5 111.5t29.5 281.5h-449v-707h-145v707h-559v143h559v236h-447v141h447v227h-498v144h498v270h145v-270h547v-144h-547v-227h488v-141h-488v-236z" />
    <glyph glyph-name="uni4F20" unicode="&#x4f20;" 
d="M549 1706l143 -45q-89 -226 -211 -440v-1375h-149v1143q-48 -67 -99 -128.5t-102 -115.5q-12 27 -39 74.5t-49 73.5q100 98 194.5 228.5t174.5 279.5t137 305zM1946 950h-822q-18 -64 -37 -126t-36 -117h653l27 10l104 -68q-92 -107 -213 -243t-238 -265q66 -49 124 -97
t100 -89l-113 -113q-55 59 -144 133t-191 149.5t-197 135.5l108 92q48 -29 98 -61t99 -66q78 85 157.5 173t145.5 165h-727q29 80 60.5 179t64.5 208h-367v142h410q17 59 33.5 121t33.5 122h-360v142h399q14 58 28.5 114.5t27.5 110.5l151 -21q-12 -47 -25.5 -99.5
t-27.5 -104.5h581v-142h-620q-15 -61 -33 -122.5t-35 -120.5h781v-142z" />
    <glyph glyph-name="uni4F24" unicode="&#x4f24;" 
d="M553 1710l145 -45q-46 -117 -101 -232t-118 -223v-1364h-145v1141q-48 -66 -98 -127.5t-101 -114.5q-11 28 -38.5 77t-49.5 75q100 98 194.5 228.5t174.5 279.5t137 305zM1278 870h573v-26t-2 -43q-9 -287 -20.5 -461t-29 -264t-46.5 -125q-28 -34 -62 -47.5t-81 -18.5
q-46 -4 -126 -3t-167 5q-2 34 -14.5 73t-32.5 69q90 -8 169 -10.5t109 -2.5q28 0 46 5t32 22q20 20 33.5 93t24 216.5t18.5 376.5h-440q-26 -188 -85 -355.5t-170.5 -304.5t-295.5 -233q-16 28 -45 61.5t-54 53.5q167 83 269 202.5t156 265.5t77 310h-407v141h423
q8 74 12 148.5t7 150.5h149q-3 -76 -7.5 -150.5t-12.5 -148.5zM1038 1411h860v-145h-935q-51 -88 -108.5 -164t-117.5 -137q-18 20 -57 48.5t-66 45.5q125 115 224 287.5t159 361.5l146 -33q-22 -67 -48 -134t-57 -130z" />
    <glyph glyph-name="uni4F2A" unicode="&#x4f2a;" 
d="M1032 1315l-135 -70q-28 59 -82.5 139t-109.5 146l126 59q57 -61 114.5 -139t86.5 -135zM559 1706l148 -45q-43 -111 -97 -220t-114 -212v-1383h-146v1155q-98 -138 -205 -247q-12 27 -39 75t-49 72q101 98 194 227t172 276.5t136 301.5zM1264 1184h622l-1 -31t-1 -45
q-11 -297 -23 -504t-26 -340t-33.5 -208t-46.5 -109q-32 -40 -67.5 -55.5t-85.5 -20.5q-50 -6 -130 -4.5t-167 6.5q-5 34 -17.5 75.5t-32.5 71.5q93 -7 170 -8.5t111 -1.5q28 0 47.5 5.5t34.5 25.5q28 30 47.5 134.5t34.5 312t29 546.5h-482q-25 -220 -87.5 -438
t-182 -409.5t-315.5 -331.5q-19 27 -52.5 57.5t-62.5 48.5q183 124 295.5 297t171.5 372.5t84 403.5h-449v150h463q12 138 14.5 268t3.5 244h154q-1 -117 -4.5 -246.5t-15.5 -265.5zM1604 444l-134 -77q-22 49 -62 112t-88 128t-95 120l123 70q48 -55 97.5 -118.5t91.5 -125
t67 -109.5z" />
    <glyph glyph-name="uni4F2F" unicode="&#x4f2f;" 
d="M569 1708l146 -35q-40 -133 -94 -262.5t-115 -249.5v-1321h-150v1073q-43 -63 -90 -120t-96 -109q-14 26 -43.5 69t-50.5 66q161 158 289 393t204 496zM901 94h744v486h-744v-486zM1645 1200h-744v-471h744v471zM1239 1343h559v-1480h-153v80h-744v-95h-149v1495h331
q33 87 62 188.5t47 182.5l176 -28q-29 -85 -63 -175.5t-66 -167.5z" />
    <glyph glyph-name="uni4F30" unicode="&#x4f30;" 
d="M551 1706l143 -45q-90 -230 -215 -449v-1366h-145v1145q-48 -69 -99.5 -130.5t-103.5 -117.5q-11 28 -37.5 76t-48.5 74q100 97 194.5 227.5t174.5 280t137 305.5zM1681 76v483h-747v-483h747zM1960 1118h-582v-416h457v-852h-154v80h-747v-88h-150v860h441v416h-557v148
h557v448h153v-448h582v-148z" />
    <glyph glyph-name="uni4F34" unicode="&#x4f34;" 
d="M1710 1624l154 -55q-56 -114 -119 -236.5t-117 -208.5l-123 50q35 59 74 138t74 161t57 151zM1044 1180l-139 -58q-13 57 -40.5 132t-63.5 155t-74 150l127 49q40 -68 78 -146t67.5 -152t44.5 -130zM571 1708l142 -43q-89 -221 -209 -422v-1393h-144v1174
q-110 -154 -227 -270q-11 24 -38.5 72.5t-47.5 74.5q104 97 201.5 226.5t180.5 277.5t142 303zM1964 563v-143h-608v-576h-154v576h-586v143h586v357h-502v143h502v627h154v-627h520v-143h-520v-357h608z" />
    <glyph glyph-name="uni4F36" unicode="&#x4f36;" 
d="M549 1706l143 -45q-44 -114 -97.5 -224t-113.5 -216v-1375h-149v1141q-95 -135 -201 -244q-11 28 -37.5 76t-48.5 74q100 98 194.5 228.5t174 279.5t135.5 305zM1686 766l108 -70q-57 -97 -138.5 -202t-169.5 -201.5t-165 -169.5q66 -48 124 -94.5t99 -83.5l-108 -105
q-60 58 -154.5 133.5t-200.5 153t-200 139.5l102 90q49 -33 104.5 -70t112.5 -77q88 77 188 189t177 218h-820v142h914zM1083 1075l119 62q59 -54 119.5 -121t95.5 -113l-125 -80q-34 51 -93.5 122.5t-115.5 129.5zM1219 1714l143 -45q-9 -18 -18.5 -36.5t-18.5 -35.5
q72 -117 175.5 -233t219 -213t224.5 -160q-25 -23 -58 -58t-51 -65q-100 67 -205.5 164t-203 211.5t-175.5 233.5q-115 -180 -271.5 -337.5t-342.5 -279.5q-15 23 -48.5 56.5t-58.5 52.5q151 93 283 214.5t236 257.5t170 273z" />
    <glyph glyph-name="uni4F38" unicode="&#x4f38;" 
d="M547 1706l141 -43q-85 -226 -211 -442v-1373h-143v1149q-49 -70 -101 -133t-106 -119q-12 27 -38.5 75t-47.5 73q100 98 194 228.5t173.5 279.5t138.5 305zM1360 551h409v285h-409v-285zM813 551h397v285h-397v-285zM1210 1253h-397v-282h397v282zM1769 1253h-409v-282
h409v282zM1360 1391h557v-1074h-148v93h-409v-564h-150v564h-397v-107h-143v1088h540v313h150v-313z" />
    <glyph glyph-name="uni4F3C" unicode="&#x4f3c;" 
d="M1391 893l-138 -53q-18 82 -57 192t-89 227t-103 220l122 47q57 -101 110 -215.5t94 -224t61 -193.5zM483 1702l140 -41q-33 -100 -73.5 -201.5t-86.5 -197.5v-1418h-146v1145q-44 -75 -93.5 -143.5t-98.5 -128.5q-11 27 -36.5 76.5t-43.5 76.5q88 103 170 236.5
t150.5 285.5t117.5 310zM893 334l369 244q7 -31 20 -69t23 -63q-169 -117 -271.5 -189.5t-158 -114t-81 -64.5t-40.5 -41q-13 26 -38.5 69t-43.5 66q21 17 46 61t25 113v1227h150v-1239zM1972 -20l-141 -72q-29 106 -89.5 258t-129.5 301q-65 -189 -165 -341.5t-249 -270.5
q-17 21 -56 57.5t-67 56.5q165 118 268.5 283t160 376t82 468.5t34.5 560.5l154 -2q-13 -287 -35.5 -532.5t-71.5 -452.5q60 -114 121.5 -241t110.5 -244.5t73 -204.5z" />
    <glyph glyph-name="uni4F46" unicode="&#x4f46;" 
d="M1638 1024v399h-677v-399h677zM1638 473v410h-677v-410h677zM1798 1567v-1237h-993v1237h993zM573 1706l148 -47q-45 -112 -98.5 -223t-114.5 -215v-1375h-150v1143q-49 -69 -101.5 -131.5t-104.5 -118.5q-13 28 -40 78t-49 78q102 97 197 226.5t175.5 278.5t137.5 306z
M633 68h1337v-144h-1337v144z" />
    <glyph glyph-name="uni4F4D" unicode="&#x4f4d;" 
d="M1411 1411l-149 -45q-13 65 -40.5 157t-56.5 169l144 37q27 -77 57.5 -166t44.5 -152zM1862 1343v-147h-1104v147h1104zM1180 211l-150 -43q-8 106 -29 256t-49.5 312t-60.5 304l137 31q34 -142 64.5 -302t53 -307t34.5 -251zM590 1706l143 -43q-41 -112 -94 -221
t-113 -213v-1383h-151v1145q-48 -69 -99.5 -130.5t-103.5 -117.5q-11 28 -37.5 76t-48.5 74q100 98 194.5 228.5t174 279.5t135.5 305zM1528 74h418v-148h-1274v148h714q28 103 56.5 230.5t54.5 264.5t47.5 270.5t36.5 247.5l158 -28q-27 -157 -62 -333.5t-73.5 -346
t-75.5 -305.5z" />
    <glyph glyph-name="uni4F4E" unicode="&#x4f4e;" 
d="M547 1706l143 -41q-79 -218 -194 -434v-1385h-148v1141q-49 -74 -102 -141t-107 -125q-12 26 -38 75.5t-48 73.5q100 103 192 236.5t169.5 286.5t132.5 313zM1182 270l110 37q36 -61 73 -132.5t67.5 -139t48.5 -117.5l-119 -43q-15 51 -44.5 119.5t-65 141t-70.5 134.5z
M915 932h455q-12 121 -20.5 252.5t-14.5 269.5q-104 -21 -209.5 -39.5t-210.5 -32.5v-450zM1942 788h-412q25 -220 63 -387.5t86 -263t105 -98.5q29 0 48 76t32 219q20 -20 54.5 -44.5t55.5 -33.5q-20 -154 -49.5 -240t-65 -120.5t-75.5 -34.5q-111 2 -189 119t-129.5 325
t-81.5 483h-469v-747l289 72q-1 -28 0 -66t4 -59q-139 -40 -225 -66t-133.5 -42t-70.5 -26.5t-36 -19.5q-4 28 -21 67t-34 62q26 11 55 37t29 86v1405h2l-2 2q172 26 351 60t337 73.5t269 81.5l129 -121q-83 -27 -179 -53.5t-200 -50.5q4 -146 13 -285t21 -266h429v-144z
" />
    <glyph glyph-name="uni4F4F" unicode="&#x4f4f;" 
d="M1438 1391l-148 -58q-13 44 -40 103t-60.5 121t-67.5 114l138 51q52 -78 103.5 -171.5t74.5 -159.5zM588 1706l145 -45q-41 -112 -95 -222t-114 -216v-1377h-151v1139q-48 -67 -99.5 -128t-103.5 -114q-11 25 -39 74.5t-49 75.5q101 98 195.5 228.5t173.5 279.5t137 305z
M1389 57h573v-145h-1317v145h592v518h-471v146h471v448h-539v146h1235v-146h-544v-448h483v-146h-483v-518z" />
    <glyph glyph-name="uni4F53" unicode="&#x4f53;" 
d="M520 1706l142 -43q-37 -109 -84 -218.5t-99 -213.5v-1385h-145v1133q-82 -128 -174 -236q-13 27 -40.5 75.5t-47.5 74.5q90 99 173 229.5t153.5 279.5t121.5 304zM1946 1155h-512q60 -171 147 -334.5t191 -300t215 -225.5q-28 -20 -61.5 -55t-53.5 -66q-108 98 -207 240
t-183 310.5t-147 346.5v-711h330v-139h-330v-366h-147v366h-334v139h334v697q-66 -177 -151.5 -343t-184.5 -306t-207 -238q-20 26 -52 60.5t-58 54.5q111 90 216 228t193.5 303.5t151.5 338.5h-482v148h574v403h147v-403h611v-148z" />
    <glyph glyph-name="uni4F55" unicode="&#x4f55;" 
d="M551 1712l141 -45q-38 -103 -84 -207.5t-98 -204.5v-1409h-150v1160q-44 -71 -92.5 -132.5t-97.5 -115.5q-11 26 -38.5 74.5t-45.5 72.5q93 100 180 229.5t160 277.5t125 300zM1253 946h-352v-432h352v432zM1395 379h-494v-141h-145v843h639v-702zM1964 1516v-148h-149
v-1315q0 -81 -23.5 -120t-77.5 -58q-57 -18 -158.5 -23.5t-250.5 -5.5q-5 33 -22 78.5t-34 77.5q123 -5 224 -4.5t135 2.5q32 2 44.5 12.5t12.5 40.5v1315h-969v148h1268z" />
    <glyph glyph-name="uni4F59" unicode="&#x4f59;" 
d="M563 420l142 -51q-91 -123 -217.5 -244.5t-245.5 -206.5q-20 20 -55.5 53t-63.5 49q121 76 240 182.5t200 217.5zM1323 352l123 76q78 -60 163 -134.5t159 -148t120 -131.5l-131 -92q-44 61 -116.5 136.5t-156 152.5t-161.5 141zM1030 1733l119 -66q-9 -12 -18.5 -22.5
t-18.5 -22.5q183 -200 403.5 -335.5t477.5 -239.5q-26 -24 -55.5 -60t-45.5 -72q-250 114 -465 256t-405 351q-111 -120 -243 -229.5t-275 -202.5h1048v-140h-440v-258h752v-143h-752v-522q0 -68 -19.5 -104t-68.5 -54q-48 -19 -127 -23.5t-199 -3.5q-6 33 -24.5 75
t-36.5 71q94 -3 171 -2.5t101 0.5q26 1 35.5 9.5t9.5 31.5v522h-751v143h751v258h-458v133q-83 -53 -167 -101.5t-165 -86.5q-19 28 -46 63.5t-57 61.5q179 77 360 188.5t340 245.5t269 279z" />
    <glyph glyph-name="uni4F5B" unicode="&#x4f5b;" 
d="M547 1706l141 -43q-86 -227 -209 -438v-1379h-145v1151q-49 -70 -102 -133.5t-105 -120.5q-12 28 -38.5 76t-47.5 74q100 98 194.5 228.5t174 279.5t137.5 305zM1124 610h238v269h-234v-111q0 -40 -1 -79.5t-3 -78.5zM750 610h235q6 77 6 158v111h-196
q-11 -70 -22 -138.5t-23 -130.5zM1128 1280v-268h234v268h-234zM1733 1280h-234v-268h234v268zM1499 610h430v-21t-2 -38q-8 -235 -20 -343t-39 -140q-35 -41 -101 -50q-27 -3 -77.5 -3t-104.5 3q-3 30 -12 66.5t-23 62.5q51 -6 92 -7t60 -1q35 0 51 17q15 20 23 90.5
t14 230.5h-291v-633h-137v633h-252q-18 -131 -66.5 -248t-140 -216t-239.5 -177q-16 22 -45.5 53t-51.5 50q197 102 285.5 240t116.5 298h-383q17 71 34.5 163t33 189t26.5 183h311v268h-348v131h348v279h137v-279h234v279h137v-279h371v-532h-371v-269z" />
    <glyph glyph-name="uni4F5C" unicode="&#x4f5c;" 
d="M588 1706l145 -47q-41 -111 -95 -221.5t-114 -216.5v-1375h-151v1139q-48 -67 -99.5 -128.5t-103.5 -115.5q-7 18 -22.5 47.5t-33.5 59t-32 45.5q101 98 195.5 228.5t173.5 279.5t137 305zM1962 1227h-631v-293h584v-141h-584v-310h613v-143h-613v-496h-153v1383h-142
q-135 -252 -291 -426q-18 20 -55 52t-63 50q92 95 176 221t154 270t120 294l146 -39q-25 -71 -53.5 -140t-59.5 -137h852v-145z" />
    <glyph glyph-name="uni4F60" unicode="&#x4f60;" 
d="M547 1706l143 -43q-44 -114 -97.5 -224t-113.5 -214v-1377h-145v1149q-49 -70 -102 -133.5t-105 -120.5q-12 28 -38.5 76t-47.5 74q100 98 194.5 228.5t174 279.5t137.5 305zM920 842l149 -29q-49 -201 -127 -385t-172 -311q-21 18 -62 43t-69 41q97 116 168 287.5
t113 353.5zM1786 1180h-385v-1151q0 -65 -16 -101.5t-56 -54.5q-41 -20 -107 -25.5t-163 -5.5q-6 33 -22 77.5t-31 76.5q72 -3 131.5 -2.5t79.5 0.5q34 0 34 35v1151h-311q-88 -209 -199 -353q-18 17 -57 48.5t-63 48.5q112 141 198.5 348.5t136.5 431.5l150 -33
q-46 -179 -109 -350h830l24 6l105 -24q-20 -113 -45 -233t-45 -202l-127 25q9 55 22 131.5t25 155.5zM1550 813l133 45q59 -108 111 -231.5t90 -241.5t55 -211l-145 -49q-16 93 -53 212.5t-86.5 244t-104.5 231.5z" />
    <glyph glyph-name="uni4F63" unicode="&#x4f63;" 
d="M547 1706l143 -45q-44 -114 -97.5 -224t-113.5 -214v-1377h-145v1151q-49 -70 -102 -133.5t-105 -120.5q-12 28 -38.5 76t-47.5 74q100 98 194.5 228t174 279t137.5 306zM1382 616h371v332h-371v-332zM883 616h354v332h-348v-123q0 -98 -6 -209zM1237 1419h-348v-336h348
v336zM1753 1083v336h-371v-336h371zM1898 1556v-1529q0 -65 -15.5 -99.5t-55.5 -54.5q-42 -18 -111 -22.5t-174 -4.5q-4 30 -17.5 71.5t-27.5 72.5q75 -3 136 -3.5t81 1.5q39 0 39 41v452h-371v-616h-145v616h-367q-20 -172 -70 -341.5t-153 -303.5q-18 23 -54 53.5
t-61 42.5q96 126 140.5 281t57.5 314t13 298v731h1155z" />
    <glyph glyph-name="uni4F69" unicode="&#x4f69;" 
d="M449 1702l135 -37q-28 -103 -64 -207.5t-78 -204.5v-1407h-137v1123q-38 -68 -78 -130.5t-82 -117.5q-9 26 -34 76t-45 77q122 154 221.5 373.5t161.5 454.5zM879 1151v125h677v-125h-266v-217h250v-696q0 -39 -8 -62t-33 -37q-23 -15 -58.5 -18.5t-82.5 -3.5
q-11 53 -39 102h100q19 0 19 19v600h-162v-973h-105v973h-170v-725h-102v821h258v217h-278zM664 1610h1120q-3 -260 -4.5 -500t0 -443.5t8.5 -355.5t22.5 -236.5t40.5 -84.5q12 0 19 48.5t10.5 127.5t3.5 170q19 -25 43.5 -51t42.5 -41q-6 -150 -18.5 -236.5t-39 -123
t-75.5 -36.5q-78 0 -117 118t-53 335t-15 516t-1 662h-858v-428q0 -129 -7 -283t-26 -317.5t-55.5 -320t-96.5 -288.5q-17 19 -52 43t-58 33q56 128 89.5 274t50 297.5t21.5 295.5t5 266v559z" />
    <glyph glyph-name="uni4F73" unicode="&#x4f73;" 
d="M1214 1012v291h-440v143h440v268h152v-268h459v-143h-459v-291h551v-146h-1243v146h540zM553 1706l143 -41q-41 -115 -91.5 -227t-106.5 -221v-1375h-150v1127q-41 -62 -85 -118.5t-87 -107.5q-12 28 -39.5 76t-46.5 74q93 99 179.5 229.5t159 279.5t124.5 304zM1366 66
h592v-148h-1350v148h606v342h-483v143h483v233h152v-233h494v-143h-494v-342z" />
    <glyph glyph-name="uni4F7F" unicode="&#x4f7f;" 
d="M571 1718l144 -45q-43 -107 -97 -215t-114 -211v-1413h-146v1194q-53 -75 -110.5 -142t-114.5 -124q-11 26 -37.5 74.5t-48.5 72.5q104 98 201.5 227.5t180.5 278.5t142 303zM860 715h363q1 23 1.5 46t0.5 46v211h-365v-303zM1751 1018h-377v-211v-46t-2 -46h379v303z
M1896 586h-532q-12 -106 -43 -205t-92 -188q153 -85 344 -138t409 -80q-24 -24 -49 -63.5t-41 -73.5q-216 32 -406.5 93t-346.5 155q-77 -75 -190 -138.5t-273 -111.5q-12 25 -40 64.5t-52 62.5q150 39 255 90.5t177 116.5q-185 138 -297 332l127 41q46 -80 111 -148
t147 -125q49 71 74.5 151t35.5 165h-495v561h506v201h-566v139h566v217h149v-217h590v-139h-590v-201h522v-561z" />
    <glyph glyph-name="uni4F84" unicode="&#x4f84;" 
d="M1915 872l-137 -69q-16 31 -35.5 69t-42.5 78q-249 -16 -416 -27.5t-270.5 -20t-161 -14.5t-85.5 -12t-46 -14q-6 31 -24.5 78t-30.5 72q29 6 64 20t63 43q20 17 56 60.5t79.5 101t86 115.5t75.5 104h-383v139h1208v-139h-649q-42 -60 -95 -134t-107.5 -147.5
t-102.5 -134.5l659 39q-38 62 -79 122t-83 112l127 61q62 -79 125.5 -170t117.5 -178t87 -154zM537 1710l145 -45q-41 -115 -92.5 -229.5t-110.5 -223.5v-1366h-149v1121q-40 -60 -83.5 -115t-86.5 -104q-11 26 -38.5 74.5t-47.5 74.5q93 99 179.5 229.5t159 279.5
t124.5 304zM1366 57h588v-141h-1338v141h598v371h-475v137h475v281h152v-281h494v-137h-494v-371z" />
    <glyph glyph-name="uni4F8B" unicode="&#x4f8b;" 
d="M440 1710l138 -39q-30 -101 -65 -199.5t-75 -195.5v-1430h-143v1139q-35 -60 -71 -113.5t-74 -101.5q-8 25 -32 74.5t-44 79.5q118 144 212 353t154 433zM612 1456v143h707v-143h-344q-16 -78 -34 -155.5t-40 -151.5h262l25 4l88 -23q-51 -486 -205 -805.5t-389 -484.5
q-14 28 -42 62.5t-54 54.5q225 141 368 453q-46 46 -105 95t-112 91l80 102q46 -32 99 -72t96 -77q38 103 66 218t46 241h-264q-47 -139 -103.5 -259.5t-123.5 -216.5q-19 19 -55 48.5t-62 46.5q114 150 190.5 368t122.5 461h-217zM1544 1477v-1137h-135v1137h135z
M1743 1704h143v-1655q0 -71 -19.5 -107t-62.5 -55q-46 -18 -123.5 -23t-195.5 -5q-6 30 -20 73.5t-29 75.5q89 -3 162 -3.5t98 -0.5q26 2 36.5 11.5t10.5 33.5v1655z" />
    <glyph glyph-name="uni4F8D" unicode="&#x4f8d;" 
d="M553 1706l143 -43q-44 -114 -97.5 -226t-115.5 -218v-1373h-147v1141q-48 -67 -99 -128.5t-102 -115.5q-12 28 -39 75.5t-49 72.5q100 99 194.5 229.5t174.5 280t137 305.5zM811 418l127 69q49 -53 99 -116t91 -125.5t64 -112.5l-135 -76q-22 49 -61.5 113t-88 129.5
t-96.5 118.5zM1960 909h-299v-225h287v-139h-287v-516q0 -69 -18.5 -103.5t-67.5 -52.5t-132 -22.5t-206 -4.5q-6 33 -21 73.5t-32 72.5q97 -3 175.5 -3.5t104.5 1.5q25 1 34 9t9 30v516h-858v139h858v225h-886v142h591v260h-464v139h464v254h154v-254h483v-139h-483v-260
h594v-142z" />
    <glyph glyph-name="uni4F9B" unicode="&#x4f9b;" 
d="M555 1708l143 -45q-43 -111 -96 -221.5t-113 -216.5v-1379h-149v1149q-48 -69 -99.5 -131.5t-103.5 -115.5q-12 26 -39 73.5t-47 75.5q101 97 194.5 227.5t173 279.5t136.5 304zM991 367l146 -45q-77 -134 -183 -260t-209 -214q-19 20 -56.5 50.5t-63.5 44.5
q104 80 203 192.5t163 231.5zM1454 293l119 67q71 -66 141 -144.5t129 -154t94 -135.5l-129 -86q-33 64 -91 143.5t-126.5 160.5t-136.5 149zM1098 1130v-499h399v499h-399zM1645 631h315v-150h-1323v150h313v499h-264v148h264v412h148v-412h399v414h148v-414h290v-148h-290
v-499z" />
    <glyph glyph-name="uni4F9D" unicode="&#x4f9d;" 
d="M1405 1391l-143 -54q-17 63 -58.5 155t-83.5 169l133 43q45 -74 88.5 -162t63.5 -151zM551 1710l143 -41q-44 -121 -98.5 -239t-116.5 -230v-1360h-145v1127q-42 -59 -85.5 -113.5t-86.5 -103.5q-12 26 -40 73.5t-46 75.5q94 99 182.5 229t163.5 278.5t129 303.5z
M1833 991l111 -104q-96 -86 -211.5 -177.5t-216.5 -158.5q92 -171 208.5 -307t257.5 -219q-27 -22 -59.5 -59t-52.5 -64q-165 107 -295 278t-227.5 388t-163.5 464q-43 -63 -92.5 -120.5t-100.5 -112.5v-731l365 129q3 -31 9.5 -69t12.5 -62q-168 -63 -271 -102
t-159.5 -62.5t-83.5 -38t-43 -27.5q-9 25 -33.5 60.5t-44.5 54.5q28 20 63.5 62.5t35.5 113.5v526q-122 -109 -244 -194q-17 24 -49.5 63.5t-56.5 61.5q176 107 342 265t284 341h-504v143h1313v-143h-637l-6 -10q32 -136 76 -265.5t98 -250.5q98 70 201 161t174 166z" />
    <glyph glyph-name="uni4FA6" unicode="&#x4fa6;" 
d="M893 995v-696h-139v834h395v575h149v-172h582v-139h-582v-264h498v-830h-145v692h-758zM565 1708l144 -41q-42 -112 -95.5 -223t-113.5 -215v-1383h-146v1155q-49 -70 -102 -133.5t-107 -119.5q-10 26 -37 74.5t-49 74.5q101 98 195 228.5t174 279t137 303.5zM1194 580
v278h145v-283q0 -89 -21.5 -185.5t-87.5 -193t-195 -186t-343 -164.5q-12 27 -39.5 63t-50.5 56q205 64 324.5 141t176.5 159t74 162.5t17 152.5zM1343 164l84 100q86 -40 183 -93.5t183.5 -110t141.5 -103.5l-88 -115q-54 49 -138.5 107.5t-180.5 115t-185 99.5z" />
    <glyph glyph-name="uni4FA7" unicode="&#x4fa7;" 
d="M725 1468v-1153h-123v1268h690v-1264h-127v1149h-440zM420 1712l133 -35q-28 -101 -62 -202t-71 -199v-1428h-127v1143q-37 -70 -74.5 -134.5t-77.5 -121.5q-9 26 -34.5 71.5t-45.5 72.5q114 156 207 377t152 456zM1004 1329v-692q0 -102 -14 -210.5t-53.5 -214.5
t-115.5 -200.5t-200 -169.5q-11 20 -37 48.5t-43 41.5q154 95 228 212.5t96 244.5t22 250v690h117zM981 209l92 59q48 -51 99.5 -111.5t96.5 -118t72 -101.5l-98 -74q-25 46 -68 106.5t-94 123.5t-100 116zM1579 1520v-1219h-123v1219h123zM1755 1696h129v-1676
q0 -61 -16 -93.5t-51 -49.5q-39 -18 -102.5 -23.5t-166.5 -5.5q-4 28 -16 66t-25 68q74 -2 132.5 -2h76.5q22 1 30.5 9t8.5 31v1676z" />
    <glyph glyph-name="uni4FA8" unicode="&#x4fa8;" 
d="M543 1704l141 -43q-90 -231 -209 -440v-1377h-141v1153q-98 -140 -205 -254q-11 28 -37.5 75.5t-46.5 72.5q99 99 192 229t171 279t135 305zM924 567v115h147v-119q0 -111 -29.5 -241.5t-105.5 -258.5t-215 -231q-17 23 -52.5 54t-58.5 44q132 96 199.5 208t91 223.5
t23.5 205.5zM1448 -154v834h149v-834h-149zM1911 1034h-391q83 -118 207 -219.5t253 -157.5q-24 -21 -53 -54t-47 -60q-96 49 -192 126.5t-179.5 171.5t-140.5 193h-207q-93 -169 -228 -293t-317 -213q-12 25 -41 63.5t-51 59.5q152 66 268.5 161.5t202.5 221.5h-391v137
h467q31 62 54.5 131t41.5 144q-103 -9 -204 -16.5t-193 -12.5q-3 29 -16 65t-25 62q168 10 349.5 28t345.5 42.5t280 56.5l88 -127q-97 -26 -218 -47t-253 -35q-38 -162 -94 -291h684v-137z" />
    <glyph glyph-name="uni4FAE" unicode="&#x4fae;" 
d="M473 1702l139 -41q-32 -100 -69 -201.5t-80 -199.5v-1418h-146v1131q-39 -71 -83 -135t-89 -121q-10 27 -35.5 76.5t-43.5 76.5q82 103 158.5 237t140 286t108.5 309zM1896 1343h-985q-50 -98 -107 -186t-114 -156q-23 19 -62 44.5t-67 37.5q109 117 200 285t146 346
l146 -37q-17 -49 -37 -98t-41 -96h921v-140zM1087 528l89 60q70 -52 141.5 -121t107.5 -127l-96 -66q-34 56 -103 127.5t-139 126.5zM870 274h756q8 62 14.5 140.5t14.5 175.5h-740q-10 -85 -22 -165t-23 -151zM1221 1014h-248q-9 -69 -18.5 -141t-18.5 -144h430
q-32 52 -95.5 116t-129.5 113zM1675 1014h-442q66 -48 129.5 -110.5t95.5 -112.5l-88 -62h293q3 65 6 135t6 150zM1966 590h-170q-12 -188 -24 -316h137v-135h-154q-14 -84 -31 -133.5t-38 -75.5q-28 -36 -62 -51.5t-80 -19.5q-44 -3 -114.5 -3t-145.5 5q-1 29 -11.5 66
t-27.5 65q80 -8 145.5 -9t94.5 -1q27 -2 44.5 4t31.5 26q25 26 47 127h-908q19 91 38 208t36 243h-188v139h209q13 109 26.5 216t22.5 202h979l-1 -29t-1 -43q-5 -97 -8.5 -183t-8.5 -163h162v-139z" />
    <glyph glyph-name="uni4FB5" unicode="&#x4fb5;" 
d="M1784 1638v-645h-1006v115h862v149h-802v117h802v148h-862v116h1006zM555 1704l143 -43q-44 -114 -97.5 -225t-115.5 -215v-1375h-145v1149q-49 -69 -101 -133.5t-104 -118.5q-12 28 -39 76t-47 74q101 98 194.5 228t173.5 279t138 304zM1573 489h-565q50 -82 121.5 -154
t158.5 -132q88 57 160.5 128t124.5 158zM1677 618l86 -40q-55 -143 -146 -254.5t-206 -194.5q222 -117 508 -164q-25 -21 -50.5 -58.5t-39.5 -66.5q-154 31 -291 82t-254 123q-134 -75 -287 -124.5t-317 -80.5q-9 29 -30 66.5t-40 60.5q149 23 289.5 63t263.5 101
q-92 72 -166.5 158.5t-130.5 187.5l35 12h-88v123h838zM637 864h1298v-303h-135v189h-1032v-191h-131v305z" />
    <glyph glyph-name="uni4FBF" unicode="&#x4fbf;" 
d="M530 1706l144 -43q-40 -115 -89 -230t-106 -223v-1364h-145v1117q-39 -60 -81 -115t-83 -105q-12 28 -40 76t-48 74q90 99 173.5 229.5t154 279.5t120.5 304zM872 635h357q1 26 1.5 54t0.5 54v103h-359v-211zM872 1169v-211h359v211h-359zM1712 1169h-332v-211h332v211z
M1712 635v211h-332v-103q0 -26 -0.5 -54t-3.5 -54h336zM1862 516h-498q-15 -97 -51 -188t-105 -174q159 -66 352.5 -104.5t417.5 -53.5q-24 -26 -49 -67t-41 -74q-229 21 -428 68.5t-360 125.5q-80 -63 -192 -116.5t-263 -96.5q-15 26 -42 64t-50 61q137 32 239 73.5
t175 92.5q-89 57 -163.5 129t-129.5 160l129 49q51 -75 119.5 -136t154.5 -110q62 68 94 142.5t46 154.5h-488v772h502v170h-555v137h1255v-137h-551v-170h482v-772z" />
    <glyph glyph-name="uni4FBF" unicode="&#xf965;" 
d="M530 1706l144 -43q-40 -115 -89 -230t-106 -223v-1364h-145v1117q-39 -60 -81 -115t-83 -105q-12 28 -40 76t-48 74q90 99 173.5 229.5t154 279.5t120.5 304zM872 635h357q1 26 1.5 54t0.5 54v103h-359v-211zM872 1169v-211h359v211h-359zM1712 1169h-332v-211h332v211z
M1712 635v211h-332v-103q0 -26 -0.5 -54t-3.5 -54h336zM1862 516h-498q-15 -97 -51 -188t-105 -174q159 -66 352.5 -104.5t417.5 -53.5q-24 -26 -49 -67t-41 -74q-229 21 -428 68.5t-360 125.5q-80 -63 -192 -116.5t-263 -96.5q-15 26 -42 64t-50 61q137 32 239 73.5
t175 92.5q-89 57 -163.5 129t-129.5 160l129 49q51 -75 119.5 -136t154.5 -110q62 68 94 142.5t46 154.5h-488v772h502v170h-555v137h1255v-137h-551v-170h482v-772z" />
    <glyph glyph-name="uni4FC3" unicode="&#x4fc3;" 
d="M483 1706l140 -39q-33 -100 -72.5 -199t-83.5 -196v-1430h-150v1151q-44 -78 -93.5 -146t-98.5 -126q-11 26 -36.5 75t-43.5 78q88 103 170 236.5t150.5 285.5t117.5 310zM926 1483v-420h739v420h-739zM1372 471v-420q55 -11 113.5 -14.5t120.5 -3.5q20 -1 68.5 -1h107
t110 0.5t78.5 0.5q-14 -26 -28.5 -69.5t-20.5 -74.5h-326q-159 0 -293.5 29t-242.5 107t-187 227q-38 -125 -96 -228t-133 -186q-18 19 -57.5 48t-65.5 44q138 131 207.5 336t95.5 461l146 -14q-15 -140 -43 -267q49 -142 124.5 -224.5t172.5 -127.5v832h-443v694h1035v-694
h-443v-312h479v-143h-479z" />
    <glyph glyph-name="uni4FCA" unicode="&#x4fca;" 
d="M1382 1087l105 74q74 -54 155.5 -119t154.5 -129t120 -114l-113 -86q-44 50 -114.5 116t-151.5 134t-156 124zM1872 1198l-119 -74q-15 25 -36 53.5t-46 59.5q-241 -18 -403 -31t-263 -22t-156.5 -16t-83 -12.5t-44.5 -12.5q-6 23 -19.5 66.5t-27.5 72.5q27 3 57 24
t66 52q25 20 80.5 75.5t120.5 131t120 157.5l146 -53q-77 -97 -160.5 -187t-167.5 -165l635 43q-43 51 -89 102.5t-89 96.5l112 65q66 -65 136.5 -143t131.5 -152.5t99 -130.5zM1004 1137l131 -56q-93 -101 -211.5 -206t-223.5 -181q-16 19 -48.5 53.5t-55.5 53.5
q104 66 215 157t193 179zM561 1712l144 -45q-43 -112 -95 -224t-112 -218v-1379h-148v1145q-91 -131 -192 -241q-11 27 -38.5 75t-47.5 74q97 99 188 230t168.5 280t132.5 303zM1018 549l-23 -23q48 -75 116 -146.5t159 -135.5q89 61 161.5 137.5t122.5 167.5h-536z
M1661 680l98 -49q-58 -148 -150.5 -263t-207.5 -204q112 -62 246 -110.5t292 -76.5q-23 -23 -48.5 -60t-39.5 -67q-170 36 -314.5 95.5t-262.5 134.5q-143 -86 -307.5 -143t-339.5 -93q-11 30 -34.5 67.5t-43.5 61.5q161 26 313.5 75.5t286.5 121.5q-151 120 -246 262
q-47 -44 -96 -86t-96 -76q-17 22 -49.5 54t-57.5 51q140 90 272.5 223t217.5 279l135 -50q-51 -79 -107 -153h512z" />
    <glyph glyph-name="uni4FD7" unicode="&#x4fd7;" 
d="M1921 1231l-125 -92q-43 61 -113.5 144t-151.5 169.5t-155 159.5l115 80q74 -70 156 -153.5t155 -164.5t119 -143zM1026 1690l143 -50q-56 -97 -128 -194.5t-149.5 -185.5t-150.5 -154q-20 20 -58.5 48.5t-68.5 45.5q117 91 227.5 222.5t184.5 267.5zM537 1706l141 -43
q-85 -229 -199 -438v-1381h-145v1143q-45 -67 -93 -128t-98 -114q-12 27 -39.5 75t-46.5 73q96 99 185 229.5t164.5 279.5t130.5 304zM797 610h921q-136 97 -252.5 216t-218.5 280q-87 -146 -202 -271.5t-248 -224.5zM918 63h667v408h-667v-408zM1214 1354l136 -49
q-8 -17 -15.5 -33t-15.5 -31q130 -223 296.5 -365.5t369.5 -246.5q-30 -23 -57.5 -58t-41.5 -67q-76 44 -151 94v-743h-150v69h-667v-84h-146v752q-34 -23 -68 -44.5t-69 -41.5q-15 29 -44 63.5t-59 59.5q148 74 278.5 185.5t234 248.5t169.5 291z" />
    <glyph glyph-name="uni4FD8" unicode="&#x4fd8;" 
d="M1776 1712l98 -121q-149 -41 -343 -70t-402.5 -48t-401.5 -29q-3 27 -14 63t-25 62q143 9 294.5 22.5t297 31.5t273 40t223.5 49zM1604 1030l-119 51q34 54 72 123.5t72.5 141.5t58.5 133l141 -60q-54 -100 -113.5 -206t-111.5 -183zM1372 1104l-137 -49
q-15 69 -46.5 165.5t-62.5 176.5l131 39q33 -79 65.5 -172t49.5 -160zM1028 1087l-129 -55q-20 65 -63 157t-84 167l125 47q43 -74 86.5 -162.5t64.5 -153.5zM522 1706l140 -43q-37 -112 -84 -222t-99 -216v-1379h-147v1123q-39 -62 -81 -117.5t-83 -106.5q-12 27 -40 74.5
t-48 73.5q89 100 171 231t151 279.5t120 302.5zM1913 528v-141h-551v-385q0 -57 -14 -87t-56 -48q-40 -17 -103 -20t-157 -3q-4 31 -19 67.5t-30 65.5q68 -3 124 -3t73 1q34 0 34 29v383h-587v141h587v113q71 43 147 103.5t140 121.5h-737v140h870l33 8l98 -76
q-79 -91 -187.5 -183t-215.5 -163v-64h551z" />
    <glyph glyph-name="uni4FDD" unicode="&#x4fdd;" 
d="M569 1708l144 -43q-45 -111 -97 -218.5t-112 -207.5v-1391h-146v1168q-52 -74 -107.5 -140t-111.5 -122q-12 24 -39 72.5t-47 74.5q102 97 198 226.5t178 277.5t140 303zM924 1481v-375h759v375h-759zM1948 578h-486q68 -108 156 -209t186.5 -184t196.5 -136
q-25 -20 -57 -55.5t-52 -65.5q-136 89 -274.5 238.5t-243.5 316.5v-641h-151v635q-108 -169 -253 -314t-294 -231q-20 28 -50.5 64t-56.5 57q106 52 210 133.5t195.5 182t160.5 209.5h-506v139h594v254h-443v647h1055v-647h-461v-254h574v-139z" />
    <glyph glyph-name="uni4FE1" unicode="&#x4fe1;" 
d="M1389 1448l-138 -59q-20 53 -61.5 131t-79.5 141l129 53q45 -64 86.5 -138t63.5 -128zM530 1706l136 -41q-36 -103 -79.5 -205t-92.5 -198v-1426h-142v1180q-46 -74 -95.5 -140t-98.5 -124q-11 24 -37.5 69.5t-46.5 71.5q92 99 176.5 229.5t156 279.5t123.5 304z
M1659 373h-768v-324h768v324zM758 -158v658h1036v-652h-135v74h-768v-80h-133zM786 672v125h988v-125h-988zM1774 1083v-125h-988v125h988zM639 1376h1296v-129h-1296v129z" />
    <glyph glyph-name="uni4FE9" unicode="&#x4fe9;" 
d="M455 1702l135 -37q-28 -97 -62 -193t-71 -188v-1442h-140v1147q-38 -74 -81 -141t-86 -125q-11 26 -36.5 73.5t-45.5 73.5q121 156 221.5 376.5t165.5 455.5zM1384 1143v289h-233v-289h233zM1931 1432h-420v-289h361v-1106q0 -59 -14 -92t-56 -51q-41 -17 -110.5 -21
t-167.5 -4q-5 29 -18.5 67.5t-26.5 67.5q75 -1 138 -1t85 1q35 0 35 35v969h-226q-1 -50 -4.5 -105t-9.5 -110q46 -75 90.5 -157.5t80 -159t54.5 -132.5l-96 -86q-23 69 -65 162t-93 188q-26 -123 -77 -242t-136 -221q-15 20 -43 48t-51 45q94 108 141.5 242.5t63.5 272
t18 255.5h-235q-3 -112 -19 -238q45 -68 86.5 -139t61.5 -119l-84 -90q-15 38 -39.5 89t-54.5 101q-28 -118 -79 -235.5t-134 -218.5q-16 23 -44 51t-52 45q93 106 140 237.5t64.5 266t20.5 250.5h-228v-1162h-139v1297h369v289h-410v143h1323v-143z" />
    <glyph glyph-name="uni4FED" unicode="&#x4fed;" 
d="M504 1708l139 -41q-76 -230 -180 -442v-1379h-146v1117q-81 -131 -174 -242q-9 26 -35 76t-45 80q90 101 171.5 234.5t150.5 286t119 310.5zM840 944v133q-121 -102 -256 -184q-14 23 -42.5 62t-49.5 61q216 115 401.5 299.5t296.5 408.5l133 -47q-9 -20 -19.5 -37.5
t-19.5 -37.5q80 -101 196 -204t244.5 -193.5t247.5 -151.5q-21 -26 -44 -66t-34 -69q-116 68 -240.5 161t-239.5 197.5t-204 208.5q-78 -115 -172 -217.5t-198 -190.5h800v-133h-800zM1356 348l-129 -22q-6 64 -20 147t-33 169.5t-39 162.5l122 20q21 -75 41 -161t35.5 -168
t22.5 -148zM717 743l119 33q32 -80 62.5 -169.5t54 -175t34.5 -152.5l-123 -39q-11 68 -33.5 155.5t-52 178.5t-61.5 169zM1671 797l144 -39q-46 -108 -98.5 -226.5t-108.5 -232.5t-109 -207h406v-141h-1330v141h785q54 94 112.5 217.5t110.5 251.5t88 236z" />
    <glyph glyph-name="uni4FEE" unicode="&#x4fee;" 
d="M487 1702l140 -41q-34 -103 -75 -205t-87 -201v-1413h-146v1143q-44 -75 -92.5 -142.5t-97.5 -127.5q-11 26 -36 76t-44 79q88 102 170 235t150.5 285.5t117.5 311.5zM629 164v981h131v-981h-131zM1704 1364h-571q46 -75 117 -148.5t163 -138.5q89 59 163 130.5
t128 156.5zM1808 1497l86 -45q-60 -140 -152 -250.5t-210 -193.5q192 -106 450 -158q-21 -22 -46 -58.5t-38 -64.5q-142 34 -264.5 85t-222.5 114q-130 -76 -276.5 -126.5t-298.5 -84.5q-11 26 -31.5 61.5t-40.5 54.5q140 27 275.5 70.5t256.5 108.5q-75 58 -135 121.5
t-104 128.5q-42 -57 -88 -108.5t-92 -94.5q-19 18 -55 46.5t-62 43.5q123 103 228.5 253t168.5 314l139 -35q-20 -47 -42.5 -95.5t-47.5 -92.5h576zM1620 588l117 -49q-77 -84 -188.5 -154.5t-243 -124.5t-269.5 -90q-14 23 -35.5 50.5t-44.5 47.5q129 30 256 77
t233.5 108.5t174.5 134.5zM1425 791l117 -50q-94 -96 -237 -172.5t-289 -126.5q-16 22 -39.5 48t-46.5 42q91 28 184.5 67.5t175 88t135.5 103.5zM1812 369l130 -58q-102 -121 -257.5 -210.5t-349 -152t-409.5 -100.5q-13 28 -35 62.5t-45 60.5q206 29 392 82.5t334 132
t240 183.5z" />
    <glyph glyph-name="uni4FEF" unicode="&#x4fef;" 
d="M461 1702l135 -39q-29 -104 -66.5 -209t-80.5 -207v-1401h-144v1112q-37 -66 -75 -124.5t-76 -110.5q-11 25 -36.5 73t-45.5 74q121 156 223.5 376.5t165.5 455.5zM1083 1321l129 -31q-18 -73 -42.5 -150.5t-55.5 -152.5v-1137h-131v867q-51 -87 -109 -160
q-10 25 -29.5 59t-33.5 56q67 84 120.5 195t92 229t59.5 225zM1767 1300v-284h175v-129h-175v-873q0 -58 -14.5 -90t-52.5 -49q-39 -17 -101.5 -21t-160.5 -4q-5 28 -17 65t-26 67q70 -4 127 -3t75 1q20 1 28.5 7.5t8.5 26.5v873h-428v129h428v284h133zM1554 332l-112 -58
q-20 57 -52 130.5t-69.5 150.5t-73.5 143l107 50q37 -66 76 -141.5t72 -147.5t52 -127zM1399 1501h547v-135h-1168v-526q0 -110 -5 -238t-20.5 -261.5t-45.5 -259t-80 -231.5q-19 19 -56 43t-63 33q61 133 89.5 293t36 321t7.5 300v661h606q-18 46 -41 98t-43 95l133 35
q28 -54 56 -115.5t47 -112.5z" />
    <glyph glyph-name="uni4FF1" unicode="&#x4ff1;" 
d="M946 639v-186h666v186h-666zM1612 1509h-666v-174h666v174zM1612 932h-666v-182h666v182zM1612 1044v181h-666v-181h666zM598 453h203v1183h960v-1183h189v-138h-1352v138zM549 1710l143 -43q-43 -112 -96 -223t-113 -215v-1383h-145v1153q-49 -70 -102 -133t-105 -118
q-12 27 -39 74.5t-47 72.5q100 99 194 230t173.5 280t136.5 305zM1028 287l121 -82q-85 -106 -210.5 -201t-256.5 -164q-17 23 -45 54t-51 51q127 64 247.5 157t194.5 185zM1417 193l96 92q75 -49 159 -109.5t158.5 -120.5t121.5 -108l-103 -107q-45 48 -117.5 110.5
t-155.5 126t-159 116.5z" />
    <glyph glyph-name="uni500D" unicode="&#x500d;" 
d="M1896 1485v-135h-1179v135h522q-9 50 -25.5 109.5t-31.5 111.5l137 25q23 -59 43.5 -126.5t28.5 -119.5h505zM1120 973l-133 -43q-12 74 -46.5 173t-76.5 183l125 37q45 -81 80.5 -180.5t50.5 -169.5zM547 1710l139 -45q-41 -115 -94 -230t-113 -223v-1370h-145v1137
q-86 -125 -180 -229q-13 26 -40.5 73.5t-45.5 73.5q95 99 184 229.5t165 279.5t130 304zM1630 457h-676v-387h676v387zM811 -156v750h969v-744h-150v82h-676v-88h-143zM1565 911h393v-139h-1321v139h782q30 61 61.5 135t59 149t45.5 136l146 -37q-37 -93 -81 -196.5
t-85 -186.5z" />
    <glyph glyph-name="uni5012" unicode="&#x5012;" 
d="M1581 1544v-1198h-133v1198h133zM463 1702l135 -37q-31 -104 -71 -208t-85 -206v-1409h-141v1137q-41 -72 -86.5 -139t-91.5 -125q-9 27 -34 77.5t-42 79.5q84 103 161.5 236.5t142.5 285t112 308.5zM1010 518v-289q86 17 175 34.5t177 35.5l10 -125
q-221 -46 -440.5 -90.5t-386.5 -81.5l-27 139q74 11 163 27t187 35v315h-297v129h297v227h142v-227h319v-129h-319zM1051 1286l108 45q46 -63 92.5 -137t84.5 -145t59 -125l-113 -56q-11 30 -27 64.5t-36 71.5q-185 -28 -297 -45.5t-172.5 -28.5t-87.5 -18.5t-41 -14.5
q-7 23 -21.5 64t-28.5 69q23 5 44 28.5t42 57.5q20 31 66.5 121t87.5 199h-207v131h750v-131h-393q-40 -99 -90.5 -195.5t-102.5 -177.5l391 51q-27 45 -54.5 88.5t-53.5 83.5zM1739 1655h139v-1587q0 -70 -20 -104t-66 -52q-48 -18 -125 -22.5t-197 -4.5q-6 29 -23 68.5
t-34 69.5q100 -4 177.5 -4t103.5 1q45 3 45 48v1587z" />
    <glyph glyph-name="uni5018" unicode="&#x5018;" 
d="M1720 1647l144 -48q-68 -107 -148.5 -220t-150.5 -193l-113 47q45 54 95.5 127t96.5 148.5t76 138.5zM483 1702l140 -39q-65 -210 -156 -420v-1401h-145v1119q-39 -68 -81 -129.5t-83 -116.5q-11 27 -36.5 76.5t-45.5 78.5q126 156 233 376.5t174 455.5zM1067 1251
l-117 -69q-26 56 -70.5 127t-98 144t-107.5 134l110 60q57 -61 111.5 -131.5t99.5 -139.5t72 -125zM1405 649h-283v-311h283v311zM1530 217h-408v-106h-125v659h533v-553zM1851 1081v-1056q0 -65 -17 -100t-60 -52q-48 -18 -125 -21.5t-197 -3.5q-5 30 -18.5 69t-30.5 69
q91 -2 163 -2t95 2q43 0 43 39v919h-879v-1102h-143v1239h506v633h149v-633h514z" />
    <glyph glyph-name="uni5019" unicode="&#x5019;" 
d="M1939 1241v-131h-1112v131h740q10 60 19.5 123.5t19.5 120.5h-664v129h692l25 8l104 -12q-10 -91 -24.5 -187t-28.5 -182h229zM477 1702l139 -39q-33 -115 -75.5 -228.5t-91.5 -222.5v-1372h-146v1094q-69 -119 -147 -217q-10 24 -35.5 74.5t-46.5 76.5q126 155 231 376
t172 458zM612 240v1032h133v-1032h-133zM1944 377h-463q26 -74 81.5 -150.5t155 -142t258.5 -104.5q-24 -24 -50 -59.5t-40 -65.5q-139 40 -234.5 102.5t-157 137.5t-99.5 151q-54 -111 -178 -216.5t-353 -191.5q-15 26 -43 59.5t-53 53.5q178 57 285.5 127t162 146.5
t74.5 152.5h-459v131h480v21.5v21.5v223h-226q-33 -64 -72 -120.5t-79 -102.5q-20 15 -56.5 39.5t-62.5 40.5q83 84 148.5 208.5t105.5 258.5l137 -33q-24 -82 -59 -162h729v-129h-416v-225v-20.5v-20.5h484v-131z" />
    <glyph glyph-name="uni501A" unicode="&#x501a;" 
d="M682 1501h535q18 85 24 197h156q-5 -52 -11 -102t-14 -95h531v-131h-562q-6 -17 -12 -33.5t-12 -31.5q98 -40 206.5 -90t207 -100t165.5 -91l-94 -117q-60 39 -151 89t-194.5 102t-203.5 96q-75 -104 -207.5 -174t-349.5 -115q-10 26 -34 62t-46 59q255 46 383.5 129
t182.5 215h-500v131zM547 1706l145 -45q-44 -112 -97.5 -224t-115.5 -216v-1375h-145v1149q-101 -142 -205 -252q-12 28 -39 76t-47 74q100 98 194 228.5t173 279.5t137 305zM1241 485h-350v-245h350v245zM1380 125h-489v-119h-135v592h624v-473zM1960 889v-135h-184v-742
q0 -66 -19.5 -99t-68.5 -50q-50 -17 -135.5 -20t-217.5 -3q-4 29 -17.5 67t-29.5 68q100 -3 183.5 -3t111.5 1q25 2 34 10t9 29v742h-1032v135h1366z" />
    <glyph glyph-name="uni501F" unicode="&#x501f;" 
d="M547 1706l141 -43q-85 -226 -211 -442v-1373h-143v1149q-49 -70 -101 -133t-106 -119q-12 27 -38.5 75t-47.5 73q100 98 194 228.5t173.5 279.5t138.5 305zM1645 616h-699v-217h699v217zM946 57h699v222h-699v-222zM801 -162v907h993v-899h-149v82h-699v-90h-145z
M1087 1325v-278h381v278h-381zM1616 1047h360v-140h-1392v140h358v278h-272v133h272v236h145v-236h381v236h148v-236h285v-133h-285v-278z" />
    <glyph glyph-name="uni5021" unicode="&#x5021;" 
d="M1618 1317v190h-705v-190h705zM1618 1006v194h-705v-194h705zM1772 1630v-747h-1008v747h1008zM537 1706l145 -43q-41 -117 -94 -231.5t-113 -225.5v-1360h-149v1119q-43 -63 -89 -120.5t-92 -109.5q-12 29 -40 79.5t-50 78.5q97 99 186.5 229.5t165 279.5t130.5 304z
M825 57h885v217h-885v-217zM1710 608h-885v-205h885v205zM676 739h1190v-884h-156v69h-885v-80h-149v895z" />
    <glyph glyph-name="uni5026" unicode="&#x5026;" 
d="M1618 1651l127 -37q-39 -74 -89.5 -154t-96.5 -137q-19 15 -55 33t-60 28q47 56 93 127t81 140zM1053 1409l-111 -72q-28 51 -80 127.5t-98 139.5l104 61q48 -60 102.5 -132.5t82.5 -123.5zM532 1706l144 -43q-80 -232 -197 -449v-1364h-145v1121q-42 -63 -85 -120.5
t-87 -107.5q-12 28 -40 76t-48 74q92 99 177.5 229.5t157.5 279.5t123 304zM954 649h629q-34 45 -64.5 93.5t-56.5 97.5h-377q-29 -51 -61.5 -99.5t-69.5 -91.5zM1935 840h-329q63 -102 151 -188t185 -134q-27 -18 -55 -51t-42 -57q-64 36 -124 90t-113 118v-294
q0 -50 -12.5 -78t-49.5 -43q-35 -17 -92 -19t-143 -2q-5 28 -17 59.5t-26 57.5q64 -2 112 -2t64 2q29 3 29 25v200h-472v-454q0 -46 25.5 -61t114.5 -15h401q47 0 71.5 15.5t34.5 64t15 145.5q25 -17 62.5 -32t68.5 -21q-9 -121 -32 -186.5t-72.5 -91t-137.5 -25.5h-419
q-105 0 -164 17t-83 62t-24 128v477q-46 -46 -97 -88.5t-108 -79.5q-15 21 -48.5 58.5t-57.5 56.5q224 137 362 346h-313v125h387q28 49 50.5 102t43.5 109h-352v124h393q28 96 49.5 199t38.5 215l148 -18q-17 -106 -37.5 -204.5t-46.5 -191.5h541v-124h-580
q-18 -56 -39.5 -109t-46.5 -102h786v-125z" />
    <glyph glyph-name="uni503A" unicode="&#x503a;" 
d="M1200 1286v129h-514v121h514v176h143v-176h486v-121h-486v-129h431v-110h-431v-148h572v-115h-1282v115h567v148h-452v110h452zM1800 215h-143v467h-774v-467h-140v576h1057v-576zM500 1706l143 -39q-34 -106 -76 -212t-88 -208v-1401h-145v1131q-39 -65 -79.5 -123
t-80.5 -111q-12 27 -41.5 75.5t-50.5 74.5q129 150 238 366.5t180 446.5zM1327 559v-178q0 -64 -21.5 -135.5t-87 -144t-195.5 -139t-347 -120.5q-12 23 -39.5 55.5t-50.5 51.5q208 44 328.5 98.5t178.5 113t74.5 116t16.5 106.5v176h143zM1323 104l76 97q89 -31 190.5 -72
t194.5 -84t155 -80l-79 -108q-61 37 -152 81.5t-192.5 88.5t-192.5 77z" />
    <glyph glyph-name="uni503C" unicode="&#x503c;" 
d="M545 1710l139 -43q-43 -118 -96 -237t-115 -228v-1358h-141v1129q-42 -62 -86 -117.5t-88 -105.5q-11 26 -38.5 73.5t-45.5 75.5q94 99 181.5 229t162 278.5t127.5 303.5zM922 203v-168h710v168h-710zM1632 1061h-710v-172h710v172zM1632 602v174h-710v-174h710zM922 492
v-177h710v177h-710zM1774 35h182v-131h-1366v131h194v1145h353q10 41 19 90t20 100h-500v133h522q8 56 15 109.5t12 99.5l161 -10q-9 -46 -18.5 -97t-19.5 -102h546v-133h-573q-12 -51 -23.5 -100t-23.5 -90h500v-1145z" />
    <glyph glyph-name="uni503E" unicode="&#x503e;" 
d="M1112 1243h248q17 48 34 103.5t29 107.5h-397v131h926v-131h-369q-20 -55 -42 -109t-44 -102h361v-942h-138v809h-475v-813h-133v946zM451 1708l137 -39q-31 -97 -67.5 -193t-76.5 -190v-1442h-139v1164q-89 -162 -186 -281q-9 26 -34 77t-42 77q126 153 233 372.5
t175 454.5zM774 418l242 119q-2 -31 -0.5 -68.5t4.5 -60.5q-114 -63 -184 -103.5t-108.5 -65t-57 -39t-29.5 -26.5q-6 28 -25 68.5t-34 66.5q20 11 39.5 40t19.5 89v1051h133v-385h260v-131h-260v-555zM1538 1004v-424q0 -94 -15 -195t-64.5 -200t-151 -187.5t-273.5 -157.5
q-12 20 -36 48t-46 46q155 59 247.5 138t138.5 167.5t60.5 177t14.5 165.5v422h125zM1491 158l86 92q65 -43 138.5 -96t138.5 -106t106 -95l-88 -109q-41 44 -104.5 99t-136 111.5t-140.5 103.5z" />
    <glyph glyph-name="uni5047" unicode="&#x5047;" 
d="M1860 1622v-631h-574v131h432v369h-432v131h574zM436 1702l142 -31q-28 -109 -62.5 -215.5t-73.5 -208.5v-1403h-145v1090q-32 -58 -66 -113t-71 -102q-11 27 -35.5 76.5t-44.5 76.5q117 153 208 373t148 457zM1069 1493h-283v-375h283v375zM1182 256h-396v-408h-141
v1774h559v-635h-418v-219h373v-129h-373v-254h396v-129zM1724 705h-338q30 -103 71 -199t97 -180q56 80 98.5 174t71.5 205zM1800 838l86 -29q-35 -186 -98.5 -334.5t-151.5 -263.5q69 -81 154 -146.5t182 -103.5q-21 -20 -49 -53.5t-43 -63.5q-97 45 -180 112.5t-152 152.5
q-89 -90 -193 -156.5t-220 -114.5q-13 26 -36 59.5t-44 53.5q116 40 221.5 108t189.5 160q-64 102 -113.5 218.5t-84.5 244.5l92 23h-131v129h545z" />
    <glyph glyph-name="uni504F" unicode="&#x504f;" 
d="M578 1706l141 -45q-45 -112 -98.5 -224t-114.5 -216v-1373h-146v1147q-98 -137 -206 -250q-11 27 -37.5 74.5t-46.5 73.5q100 98 194.5 228.5t174.5 279.5t139 305zM1716 1364h-839v-236h839v236zM1866 999h-989q-2 -124 -10 -269.5t-27 -297.5t-53 -297.5t-87 -269.5
q-16 20 -54.5 48.5t-61.5 39.5q52 127 82.5 272.5t45 296t19 292t4.5 259.5v418h514q-17 46 -41 97.5t-47 94.5l135 35q33 -52 61.5 -114t47.5 -113h461v-492zM1585 432h189v307h-189v-307zM1300 432h181v307h-181v-307zM1024 432h172v307h-172v-307zM1896 860v-860
q0 -46 -10 -74t-41 -45q-29 -17 -74.5 -21.5t-111.5 -4.5q-5 27 -17.5 61.5t-23.5 58.5q46 -1 81.5 -1t49.5 1q25 0 25 25v311h-189v-397h-104v397h-181v-405h-104v405h-172v-456h-123v1005h995z" />
    <glyph glyph-name="uni505A" unicode="&#x505a;" 
d="M483 1702l140 -39q-34 -103 -76 -206.5t-88 -203.5v-1411h-142v1151q-44 -75 -93.5 -143.5t-98.5 -126.5q-11 25 -36.5 75.5t-43.5 78.5q88 101 170 233.5t150.5 283.5t117.5 308zM1731 1186h-283q-3 -9 -6 -19.5t-6 -19.5q18 -157 50.5 -324t90.5 -323q60 144 96 315
t58 371zM1079 201v456h-327v-456h327zM1960 1186h-94q-31 -255 -82 -464t-135 -380q60 -115 141.5 -212.5t191.5 -166.5q-21 -21 -50.5 -56.5t-43.5 -64.5q-101 71 -179 164t-136 201q-72 -111 -164 -202t-209 -165q-14 20 -44.5 53t-51.5 52q132 75 230.5 176t168.5 227
q-58 137 -95 283t-58 289q-48 -105 -99 -183q-6 9 -16 21.5t-21 27.5v-718h-462v-134h-136v857h230v387h-283v139h283v373h145v-373h264v-139h-264v-387h219q-29 39 -55 61q103 158 168 386t100 474l138 -22q-16 -94 -35 -187t-43 -184h477v-133z" />
    <glyph glyph-name="uni505C" unicode="&#x505c;" 
d="M543 1710l139 -43q-45 -120 -98 -238t-113 -229v-1356h-141v1127q-42 -62 -85.5 -117.5t-86.5 -105.5q-11 27 -37.5 75t-44.5 74q93 99 180 229.5t160.5 279.5t126.5 304zM815 369v125h938v-125h-387v-359q0 -60 -17 -92t-65 -47t-128 -18t-200 -3q-4 31 -18 67t-31 67
q92 -3 168 -3.5t101 1.5q23 1 32 7.5t9 24.5v355h-402zM637 442v330h1302v-330h-137v203h-1032v-203h-133zM1624 1012v168h-668v-168h668zM815 1290h957v-391h-957v391zM1397 1530h545v-129h-1274v129h565q-17 38 -36.5 78t-41.5 75l135 41q31 -43 60.5 -97t46.5 -97z" />
    <glyph glyph-name="uni5065" unicode="&#x5065;" 
d="M1497 1425v-155h191v155h-191zM1688 991v160h-191v-160h191zM1366 991v160h-360v119h360v155h-266v117h266v170h131v-170h311v-272h144v-119h-144v-277h-311v-149h352v-125h-352v-160h418v-125h-418v-245h-131v245h-352v125h352v160h-301v125h301v149h-266v117h266z
M449 1708l135 -37q-30 -104 -67 -207.5t-79 -201.5v-1416h-135v1147q-71 -124 -149 -223q-8 26 -33 76.5t-43 79.5q118 143 214.5 350.5t156.5 431.5zM940 971l80 -19q-20 -218 -57.5 -393.5t-96.5 -310.5q98 -103 217 -156.5t253 -73.5t278 -20h66.5h100t104 0.5t77.5 1.5
q-15 -25 -29.5 -63t-17.5 -66h-309q-156 0 -298.5 21t-268 76.5t-228.5 158.5q-100 -181 -244 -285q-15 23 -46.5 53t-51.5 44q154 101 252 294q-54 74 -99.5 168.5t-80.5 210.5l110 45q25 -87 56.5 -160t68.5 -132q37 98 62.5 219t42.5 262h-244v2h-66q37 77 78.5 174.5
t83 203t78.5 206.5h-225v133h413q-52 -142 -117 -303t-122 -293h166z" />
    <glyph glyph-name="uni5076" unicode="&#x5076;" 
d="M547 1706l141 -43q-43 -117 -96 -233t-113 -224v-1366h-145v1133q-86 -125 -180 -230q-13 28 -40.5 76t-45.5 74q95 99 183.5 229.5t164.5 279.5t131 304zM903 981h316v201h-316v-201zM903 1495v-199h316v199h-316zM1683 1296v199h-329v-199h329zM1683 981v201h-329v-201
h329zM1915 700v-698q0 -60 -15.5 -91t-60.5 -48q-46 -17 -123.5 -20.5t-193.5 -2.5q-5 29 -17.5 65.5t-25.5 63.5q89 -4 160.5 -3.5t93.5 1.5q23 2 32 9t9 28v565h-420v-258l192 17q-18 38 -36.5 72.5t-36.5 68.5l92 35q58 -94 110 -203.5t72 -187.5l-98 -39q-8 30 -21.5 66
t-30.5 77q-185 -21 -366.5 -42t-327.5 -38l-29 133q73 6 160.5 13.5t184.5 15.5v270h-410v-727h-145v858h555v160h-459v756h1071v-756h-477v-160h561z" />
    <glyph glyph-name="uni5077" unicode="&#x5077;" 
d="M483 1702l140 -39q-66 -214 -156 -418v-1403h-145v1119q-39 -68 -81 -129.5t-83 -116.5q-11 27 -36.5 76.5t-45.5 78.5q126 156 233 376.5t174 455.5zM805 391h295v166h-295v-166zM1100 829h-295v-157h295v157zM1231 952v-938q0 -50 -11 -81t-44 -48q-31 -18 -80 -22
t-115 -4q-5 29 -16 66.5t-23 66.5q46 -2 82.5 -2h50.5q25 2 25 24v260h-295v-424h-133v1102h559zM1616 1208v-125h-762v125h762zM1518 915v-735h-123v735h123zM1692 16v973h129v-973q0 -58 -13.5 -89t-52.5 -48q-38 -17 -100.5 -20.5t-151.5 -3.5q-4 27 -16.5 64t-28.5 67
q69 -2 125.5 -2t73.5 2q35 0 35 30zM1235 1722l123 -57q-8 -12 -16 -22.5t-17 -22.5q131 -135 290.5 -225.5t336.5 -159.5q-25 -22 -51.5 -55t-38.5 -62q-174 79 -327 176.5t-288 237.5q-124 -135 -285.5 -246.5t-328.5 -185.5q-39 60 -98 112q134 54 266.5 133t245.5 175.5
t188 201.5z" />
    <glyph glyph-name="uni507F" unicode="&#x507f;" 
d="M1688 1675l151 -55q-52 -72 -111 -144t-108 -122l-121 47q48 57 101.5 135.5t87.5 138.5zM793 1214v-260h-146v394h283q-29 55 -82.5 129t-106.5 133l127 61q57 -60 114 -133.5t85 -128.5l-115 -61h246v370h152v-370h563v-394h-150v260h-970zM1751 848h-930v141h930v-141
zM479 1700l139 -39q-30 -103 -69.5 -204.5t-83.5 -201.5v-1413h-148v1131q-39 -69 -83 -132t-87 -118q-10 28 -36.5 78t-44.5 80q84 101 161 233.5t141.5 282t110.5 303.5zM1954 510h-729q-71 -114 -153 -225t-167 -205l719 65q-40 60 -85 118.5t-87 109.5l127 65
q67 -79 137 -170.5t129.5 -180t93.5 -157.5l-137 -75q-15 33 -39.5 76t-52.5 87q-255 -24 -425.5 -41t-276.5 -28.5t-164.5 -20t-87 -15t-45.5 -13.5q-8 24 -25 74t-31 83q31 3 60.5 30.5t66.5 70.5q21 22 61.5 74.5t90.5 124.5t98 153h-440v145h1362v-145z" />
    <glyph glyph-name="uni5085" unicode="&#x5085;" 
d="M1706 1153h-344v-125h344v125zM1362 799h344v129h-344v-129zM881 799h336v129h-336v-129zM1217 1153h-336v-125h336v125zM657 1509h560v197h145v-197h311q-44 30 -97.5 62.5t-100.5 58.5l84 74q61 -31 135 -72.5t118 -70.5l-49 -52h179v-123h-580v-124h489v-680h-145v116
h-344v-98h-145v98h-336v-118h-144v682h480v124h-560v123zM547 1706l143 -45q-91 -229 -211 -438v-1377h-145v1151q-49 -70 -102 -133t-105 -119q-12 27 -38.5 75t-47.5 73q100 98 194.5 228.5t174 279.5t137.5 305zM813 256l113 68q45 -42 96.5 -92.5t97.5 -98.5t76 -84
l-115 -82q-29 37 -74 87.5t-96 103.5t-98 98zM1970 483v-125h-297v-352q0 -61 -16 -92.5t-62 -48.5q-47 -16 -126.5 -18.5t-194.5 -2.5q-5 31 -18.5 66.5t-28.5 64.5q92 -3 164.5 -3t95.5 1q24 2 32.5 9.5t8.5 27.5v348h-926v125h926v150h145v-150h297z" />
    <glyph glyph-name="uni508D" unicode="&#x508d;" 
d="M1864 1522l-2 -125h-1162v125h533q-9 46 -21.5 97.5t-27.5 94.5l147 21q20 -49 37 -107.5t25 -105.5h471zM551 1706l141 -43q-43 -120 -97 -237t-116 -228v-1352h-145v1121q-42 -62 -87 -117t-89 -105q-11 28 -38.5 75.5t-47.5 72.5q95 99 184 229.5t165 279.5t130 304z
M1176 922l147 22q18 -49 37 -105.5t26 -101.5h494v-129h-717q-4 -49 -9.5 -97t-12.5 -91h641l-1.5 -23t-2.5 -39q-19 -219 -41.5 -322.5t-59.5 -139.5q-24 -25 -54.5 -36t-72.5 -14q-35 -3 -100.5 -2t-140.5 4q-2 31 -13.5 67t-29.5 62q70 -6 130.5 -7t86.5 -1q24 0 39.5 3
t27.5 14q22 21 38 90t30 215h-508q-46 -152 -143.5 -266t-278.5 -189q-12 26 -39 58.5t-53 52.5q159 60 244.5 154t122 221t49.5 286h-332v129h547q-8 43 -22 93t-29 92zM1591 1133h328v-324h-152v201h-966v-201h-150v324h330q-9 47 -27.5 110.5t-40.5 114.5l140 26
q26 -58 49 -125.5t31 -111.5l-60 -14h367q27 59 55 132t43 130l160 -29q-25 -60 -53 -120.5t-54 -112.5z" />
    <glyph glyph-name="uni50A8" unicode="&#x50a8;" 
d="M936 1315l-111 -80q-32 60 -97.5 143.5t-131.5 151.5l104 69q66 -62 135 -142.5t101 -141.5zM449 1716l126 -35q-61 -217 -151 -426v-1407h-133v1137q-78 -137 -156 -242q-11 25 -35 70.5t-43 71.5q81 103 153.5 237.5t132.5 286.5t106 307zM844 172l196 115
q7 -31 18.5 -66.5t18.5 -56.5q-108 -67 -175 -109.5t-104.5 -68.5t-56.5 -41.5t-30 -28.5q-10 26 -33 65.5t-41 59.5q21 15 47.5 54t26.5 104v719h-201v145h334v-891zM1731 410v204h-443v-204h443zM1288 82h443v211h-443v-211zM1432 1352v-256h45q47 60 91.5 124t86.5 132
h-223zM1956 956h-418q-48 -58 -99.5 -111.5t-105.5 -103.5h535v-882h-137v96h-443v-105h-131v744q-37 -26 -75 -53t-76 -52q-14 22 -46 59t-55 58q243 139 449 350h-387v140h325v256h-266v131h266v231h140v-231h237v-107q39 65 72.5 131.5t62.5 137.5l135 -37
q-119 -278 -290 -512h307v-140z" />
    <glyph glyph-name="uni50AC" unicode="&#x50ac;" 
d="M1864 1618v-449h-1116v449h139v-313h354v405h145v-405h332v313h146zM475 1702l139 -41q-29 -95 -65 -192.5t-76 -192.5v-1434h-145v1141q-42 -74 -86 -141t-88 -125q-13 26 -38.5 75t-43.5 78q83 103 158 237t137.5 286t107.5 309zM899 233v-165h414v165h-414zM1313 633
v158h-414v-158h414zM1313 350v166h-414v-166h414zM1956 68v-131h-1057v-97h-139v772q-36 -53 -74 -103t-78 -91q-9 23 -36.5 67t-47.5 70q109 108 196.5 264t139.5 328l135 -37q-15 -48 -33 -97t-38 -95h409q-17 46 -42 98t-50 96l133 39q34 -54 67 -119t48 -114h432v-127
h-463v-158h416v-117h-416v-166h416v-117h-416v-165h498z" />
    <glyph glyph-name="uni50B2" unicode="&#x50b2;" 
d="M483 1712l140 -39q-33 -109 -75 -219.5t-89 -216.5v-1393h-142v1123q-38 -65 -77.5 -124t-79.5 -110q-13 25 -38.5 75.5t-45.5 76.5q84 102 159.5 235.5t138.5 284.5t109 307zM1716 1210h-217q-6 -17 -11 -33.5t-11 -31.5q17 -160 48 -327.5t87 -323.5q46 149 69.5 327.5
t34.5 388.5zM1956 1210h-107q-13 -272 -49.5 -493t-111.5 -398q55 -105 128 -195.5t169 -156.5q-22 -20 -52 -56.5t-47 -66.5q-84 66 -152 149t-120 177q-57 -97 -135 -180t-181 -154q-10 23 -35.5 63t-43.5 60q109 69 188.5 159.5t136.5 203.5q-61 142 -96.5 297.5
t-56.5 304.5q-20 -40 -38.5 -75t-39.5 -69l-10 13v-95h-412q-3 -49 -6.5 -96t-10.5 -90h375l-1 -22t-3 -37q-8 -174 -18 -282.5t-24.5 -166.5t-35.5 -82q-20 -24 -45 -35t-59 -14q-29 -3 -79.5 -3t-106.5 3q-4 68 -35 127q53 -6 95.5 -7t59.5 -1q22 0 34.5 3t23.5 15
q17 22 28.5 106t22.5 273h-248q-29 -175 -93.5 -311t-174.5 -236q-14 22 -46.5 55t-51.5 50q141 116 194 305.5t64 445.5h-209v127h333v213h-264v127h264v191h-292v127h292v207h140v-207h270v-127h-270v-191h235v-127h-235v-213h258q-17 17 -33.5 33t-30.5 29
q99 150 163.5 370.5t101.5 456.5l139 -24q-16 -89 -35 -177.5t-41 -171.5h420v-131z" />
    <glyph glyph-name="uni50BB" unicode="&#x50bb;" 
d="M1616 1087l-74 -90q-49 34 -116.5 74t-145.5 78q-164 -91 -319 -154q-14 17 -40.5 46.5t-46.5 45.5q71 25 144 55.5t143 65.5q-63 30 -126 56t-122 49l70 80q71 -23 147.5 -55.5t151.5 -67.5q55 32 105 65.5t90 67.5l110 -45q-41 -37 -91 -72.5t-103 -68.5
q66 -34 123 -66.5t100 -63.5zM1694 983v442h-873v-442h873zM1833 1536v-666h-1145v666h416q28 41 53.5 88t42.5 82l158 -33q-23 -37 -49.5 -71t-51.5 -66h576zM1372 768l76 92q78 -26 166.5 -62t170 -74t136.5 -71l-76 -102q-52 32 -132 71.5t-170 78t-171 67.5zM666 551
l-72 92q74 26 161.5 63.5t171.5 79t146 78.5l78 -86q-68 -43 -153 -85t-172 -78.5t-160 -63.5zM500 1702l139 -39q-34 -101 -74 -203t-86 -200v-1410h-145v1139q-45 -75 -94.5 -143.5t-98.5 -128.5q-10 26 -35.5 75t-44.5 78q89 103 170.5 236.5t150.5 285.5t118 310z
M991 414l-10 -8q54 -67 126.5 -124t158.5 -106q83 49 151.5 108t120.5 130h-547zM1645 528l88 -41q-59 -116 -144 -208t-194 -164q248 -107 551 -148q-22 -20 -44 -54t-36 -58q-332 53 -596 188q-143 -74 -307 -123t-336 -78q-8 26 -26.5 61t-35.5 56q152 20 300.5 58.5
t279.5 97.5q-74 47 -139 103.5t-117 121.5q-43 -31 -90 -58.5t-97 -52.5q-15 23 -42 50t-50 40q163 76 284.5 172.5t190.5 182.5l142 -27q-26 -32 -53.5 -63t-59.5 -62h506z" />
    <glyph glyph-name="uni50CF" unicode="&#x50cf;" 
d="M543 1706l143 -45q-43 -117 -96 -233t-113 -224v-1356h-145v1121q-42 -62 -87 -119t-89 -107q-13 28 -40.5 76t-45.5 74q94 99 181.5 229.5t162 279.5t129.5 304zM872 1165v-204h281q37 55 55.5 108t24.5 96h-361zM1364 1448h-369q-30 -42 -63 -84t-72 -82h381
q32 34 63.5 78.5t59.5 87.5zM1692 961v204h-334q-3 -44 -16.5 -96.5t-41.5 -107.5h392zM1753 756l102 -94q-52 -34 -109.5 -66.5t-117.5 -65.5q51 -147 142 -270t210 -186q-26 -20 -54.5 -53.5t-45.5 -61.5q-123 77 -216 214.5t-146 303.5q-52 -25 -101 -47
q35 -107 38.5 -210t-19 -183.5t-66.5 -122.5q-38 -41 -79.5 -55.5t-98.5 -14.5q-26 0 -58.5 0.5t-66.5 3.5q-2 28 -11 66t-26 66q40 -5 74 -7t61 -2q29 0 54 6.5t47 32.5q32 32 46.5 109t0.5 174q-88 -80 -198 -152t-227 -129.5t-226 -95.5q-16 25 -41 56.5t-48 50.5
q126 37 259.5 98.5t252.5 138t201 158.5q-9 29 -21.5 58.5t-27.5 55.5q-75 -62 -171.5 -123t-197.5 -112t-190 -84q-15 23 -40.5 52t-43.5 46q99 30 209 79t210 109t169 122q-36 50 -86 94q-76 -56 -178.5 -108.5t-239.5 -96.5q-12 20 -37.5 48t-46.5 46q161 52 273.5 113.5
t183.5 126.5h-316v315q-49 -47 -108 -90q-16 25 -45 53t-54 43q169 119 288 268.5t183 278.5l144 -26q-16 -30 -33.5 -59.5t-34.5 -59.5h371l27 8l90 -66q-34 -56 -77 -115.5t-87 -111.5h434v-438h-606q-11 -14 -23 -26.5t-22 -24.5q66 -56 115.5 -122t82.5 -139
q96 50 198.5 111.5t174.5 112.5z" />
    <glyph glyph-name="uni50DA" unicode="&#x50da;" 
d="M524 1706l140 -43q-42 -115 -93 -230.5t-108 -224.5v-1362h-144v1125q-41 -63 -85 -120t-87 -108q-13 28 -40 76t-46 74q93 99 179 229.5t159 279.5t125 304zM848 332l135 -39q-58 -106 -144 -207t-169 -170q-19 17 -54.5 45t-60.5 43q86 62 164 149t129 179zM1524 266
l121 66q54 -52 111.5 -114.5t107 -123.5t78.5 -110l-127 -72q-28 49 -75.5 111.5t-104 126t-111.5 116.5zM1591 778v162h-661v-162h661zM1591 508v166h-661v-166h661zM1370 1364h-190q-82 -173 -203 -315h575q-53 72 -100 152t-82 163zM1819 1327l116 -84
q-52 -46 -108 -93.5t-107 -84.5q65 -71 137.5 -127t147.5 -96q-25 -19 -54.5 -53t-47.5 -62q-86 52 -168 125v-453h-392v-397q0 -61 -15.5 -91.5t-59.5 -47.5q-46 -17 -118.5 -20t-176.5 -3q-6 33 -20 69t-29 66q83 -3 147 -3t84 1q23 2 31 8t8 23v395h-401v465
q-85 -69 -177 -127q-15 23 -46 59t-54 56q166 89 297 223q-40 39 -89 82t-95 74l96 86q43 -29 90.5 -66.5t85.5 -72.5q35 43 65 90t58 96h-416v131h477q49 106 76 219l142 -28q-14 -50 -30 -98t-34 -93h703v-131h-431q30 -55 63 -109.5t73 -103.5q46 41 93.5 90t78.5 86z
" />
    <glyph glyph-name="uni50DA" unicode="&#xf9bb;" 
d="M524 1706l140 -43q-42 -115 -93 -230.5t-108 -224.5v-1362h-144v1125q-41 -63 -85 -120t-87 -108q-13 28 -40 76t-46 74q93 99 179 229.5t159 279.5t125 304zM848 332l135 -39q-58 -106 -144 -207t-169 -170q-19 17 -54.5 45t-60.5 43q86 62 164 149t129 179zM1524 266
l121 66q54 -52 111.5 -114.5t107 -123.5t78.5 -110l-127 -72q-28 49 -75.5 111.5t-104 126t-111.5 116.5zM1591 778v162h-661v-162h661zM1591 508v166h-661v-166h661zM1370 1364h-190q-82 -173 -203 -315h575q-53 72 -100 152t-82 163zM1819 1327l116 -84
q-52 -46 -108 -93.5t-107 -84.5q65 -71 137.5 -127t147.5 -96q-25 -19 -54.5 -53t-47.5 -62q-86 52 -168 125v-453h-392v-397q0 -61 -15.5 -91.5t-59.5 -47.5q-46 -17 -118.5 -20t-176.5 -3q-6 33 -20 69t-29 66q83 -3 147 -3t84 1q23 2 31 8t8 23v395h-401v465
q-85 -69 -177 -127q-15 23 -46 59t-54 56q166 89 297 223q-40 39 -89 82t-95 74l96 86q43 -29 90.5 -66.5t85.5 -72.5q35 43 65 90t58 96h-416v131h477q49 106 76 219l142 -28q-14 -50 -30 -98t-34 -93h703v-131h-431q30 -55 63 -109.5t73 -103.5q46 41 93.5 90t78.5 86z
" />
    <glyph glyph-name="uni50F5" unicode="&#x50f5;" 
d="M1935 1620v-115h-1292v115h1292zM887 1128v-118h327v118h-327zM887 1329v-115h327v115h-327zM1669 1214v115h-313v-115h313zM1669 1010v118h-313v-118h313zM1815 918h-1070v503h1070v-503zM1942 831v-110h-1315v110h1315zM874 326v-125h340v125h-340zM874 532v-120h340
v120h-340zM1675 412v120h-319v-120h319zM1675 201v125h-319v-125h319zM1821 109h-1088v516h1088v-516zM483 1700l131 -35q-62 -208 -149 -401v-1420h-143v1135q-40 -69 -82.5 -132t-85.5 -118q-10 25 -35 71t-43 72q84 103 160 236.5t139 284.5t108 307zM565 8h1383v-121
h-1383v121z" />
    <glyph glyph-name="uni50FB" unicode="&#x50fb;" 
d="M1931 1458v-133h-684v133h293q-11 52 -29.5 113t-37.5 115l133 24q24 -58 46.5 -127.5t35.5 -124.5h243zM1513 973l-116 -37q-6 61 -28 153t-48 171l111 26q27 -77 50.5 -166t30.5 -147zM465 1710l129 -39q-31 -109 -70 -217t-84 -211v-1401h-133v1131
q-79 -142 -160 -250q-9 26 -34 77t-43 81q123 153 225 373t170 456zM1075 592h-227v-445h227v445zM1047 1470h-279v-294v-78h279v372zM1206 721v-705h-358v-155h-125v655q-22 -147 -58.5 -288t-93.5 -261q-13 20 -48.5 51t-53.5 41q58 127 92 272.5t50.5 295t22 290.5
t5.5 259v423h539v-630h-414q-2 -59 -6 -121.5t-10 -126.5h458zM1958 774h-297v-280h266v-136h-266v-514h-143v514h-258v136h258v280h-304v135h404q37 83 72 192t57 195l133 -34q-34 -86 -69 -181t-70 -172h217v-135z" />
    <glyph glyph-name="uni2F09" unicode="&#x2f09;" 
d="M1288 1630h154v-1507q0 -72 14 -92.5t64 -20.5h213q36 0 54.5 36t26 128.5t11.5 261.5q69 -52 143 -69q-8 -187 -27.5 -297t-65 -157.5t-132.5 -47.5h-242q-83 0 -129 22.5t-65 79t-19 158.5v1505zM535 1628h151v-659q0 -155 -16.5 -309.5t-67 -300.5t-151.5 -277.5
t-271 -241.5q-15 25 -47.5 62t-58.5 57q155 99 247 217.5t138 249t61 268t15 275.5v659z" />
    <glyph glyph-name="uni2F09" unicode="&#x513f;" 
d="M1288 1630h154v-1507q0 -72 14 -92.5t64 -20.5h213q36 0 54.5 36t26 128.5t11.5 261.5q69 -52 143 -69q-8 -187 -27.5 -297t-65 -157.5t-132.5 -47.5h-242q-83 0 -129 22.5t-65 79t-19 158.5v1505zM535 1628h151v-659q0 -155 -16.5 -309.5t-67 -300.5t-151.5 -277.5
t-271 -241.5q-15 25 -47.5 62t-58.5 57q155 99 247 217.5t138 249t61 268t15 275.5v659z" />
    <glyph glyph-name="uni5141" unicode="&#x5141;" 
d="M1425 29h287q45 0 68 27t32.5 108.5t14.5 243.5q27 -22 69 -39.5t74 -26.5q-9 -181 -31.5 -281t-72.5 -140t-144 -40h-313q-94 0 -146 20.5t-73 72t-21 143.5v764l-311 -27q-12 -200 -44 -360.5t-104 -286t-202.5 -218t-339.5 -155.5q-14 31 -41 69.5t-51 59.5
q193 53 311.5 132t183 186.5t92 246.5t37.5 314q-142 -14 -218.5 -22.5t-113.5 -16t-61 -17.5q-6 25 -22.5 72.5t-30.5 81.5q35 8 74.5 43.5t91.5 93.5q26 28 78 92.5t117 154t132 193t123 209.5l164 -55q-118 -193 -251.5 -371.5t-268.5 -322.5l969 65q-66 90 -135.5 178
t-130.5 166l122 76q81 -99 175 -216t179.5 -227.5t139.5 -191.5l-135 -92q-23 37 -53.5 82t-67.5 94l-254 -20v-776q0 -56 18 -71t84 -15z" />
    <glyph glyph-name="uni5143" unicode="&#x5143;" 
d="M1751 1552v-145h-1442v145h1442zM1444 25h264q41 0 61.5 26t29 104.5t13.5 235.5q27 -21 69 -39.5t73 -27.5q-8 -174 -29.5 -271t-69.5 -135.5t-137 -38.5h-293q-136 0 -183.5 48.5t-47.5 178.5v730h-383q-15 -165 -46 -312.5t-96 -274.5t-177.5 -228t-288.5 -173
q-14 28 -42 63.5t-55 55.5q164 62 266 151.5t158 201.5t82 242t37 274h-518v147h1792v-147h-575v-727q0 -53 18 -68.5t78 -15.5z" />
    <glyph glyph-name="uni5144" unicode="&#x5144;" 
d="M483 1452v-549h1090v549h-1090zM1432 6h276q44 0 66 26.5t31 105t14 235.5q24 -20 66.5 -39t74.5 -27q-8 -177 -30 -274t-71 -134.5t-139 -37.5h-307q-92 0 -142.5 20t-70.5 69t-20 136v668h-365q-14 -169 -45.5 -309t-98.5 -253.5t-186 -200.5t-307 -149
q-14 31 -43 70.5t-53 62.5q173 51 280 125t166.5 171t86 217.5t36.5 265.5h-317v848h1399v-848h-402v-668q0 -51 19 -65.5t82 -14.5z" />
    <glyph glyph-name="uni5145" unicode="&#x5145;" 
d="M1194 1442l-158 -53q-23 56 -70 138t-94 148l150 45q49 -66 97.5 -143.5t74.5 -134.5zM1430 37h276q40 0 60.5 23t29.5 92.5t14 207.5q27 -23 69.5 -41.5t74.5 -27.5q-8 -158 -30 -244.5t-70.5 -121t-135.5 -34.5h-307q-141 0 -190.5 47t-49.5 175v583l-303 -16
q-14 -158 -49 -288t-105 -234.5t-190.5 -183.5t-306.5 -134q-12 29 -41 69.5t-55 63.5q168 46 276 111t170 151t93 194.5t45 240.5q-143 -10 -218.5 -16t-111.5 -12t-60 -13q-7 24 -23 73.5t-30 81.5q31 5 65.5 32t75.5 67q25 22 74.5 75t110.5 126t121 155h-566v147h1766
v-147h-996q-89 -118 -186.5 -228t-194.5 -202l961 43q-65 64 -134.5 125.5t-133.5 114.5l123 73q94 -71 194.5 -160t188 -178t141.5 -161l-133 -88q-23 32 -53.5 67.5t-65.5 75.5l-287 -16v-590q0 -49 17.5 -63.5t79.5 -14.5z" />
    <glyph glyph-name="uni5146" unicode="&#x5146;" 
d="M1716 1546l150 -76q-55 -84 -116.5 -175t-123.5 -175.5t-119 -148.5l-116 67q54 66 114.5 154.5t116 181.5t94.5 172zM618 1044l-137 -77q-25 66 -73.5 152t-109 175t-122.5 166l127 66q62 -75 123.5 -162t112.5 -170.5t79 -149.5zM709 907v781h149v-781q0 -164 -22 -318
t-87.5 -292.5t-194.5 -256.5t-343 -210q-14 28 -41.5 66.5t-50.5 60.5q200 84 319 191t177 232t77 263q-136 -69 -271 -134t-249 -120l-70 150q114 43 275 111.5t330 144.5q1 27 1.5 55t0.5 57zM1415 14h314q35 0 53.5 21t27.5 75t15 152q27 -21 66 -39.5t73 -25.5
q-10 -122 -32 -194t-67.5 -103t-127.5 -31h-340q-92 0 -143.5 22.5t-72 80t-20.5 161.5v1555h150v-863l45 49q102 -53 215 -120.5t213.5 -137t165.5 -129.5l-97 -122q-57 54 -147 120.5t-193.5 134t-201.5 123.5v-610q0 -74 19 -96.5t85 -22.5z" />
    <glyph glyph-name="uni5148" unicode="&#x5148;" 
d="M1452 20h260q37 0 56 22t26.5 88t11.5 198q26 -20 67.5 -38t74.5 -26q-9 -154 -30 -238.5t-67 -117.5t-127 -33h-290q-136 0 -181 46.5t-45 170.5v600h-387q-15 -150 -49.5 -280t-102 -239t-181 -194.5t-287.5 -146.5q-13 29 -41.5 68.5t-55.5 60.5q162 50 265.5 123
t163.5 166.5t88.5 204.5t42.5 237h-531v148h815v409h-422q-37 -87 -82 -167t-96 -144q-26 18 -65 38.5t-68 33.5q71 86 128 198t98.5 231.5t66.5 225.5l154 -31q-16 -58 -35.5 -118t-40.5 -121h362v317h152v-317h672v-146h-672v-409h819v-148h-559v-600q0 -46 17 -59t75 -13
z" />
    <glyph glyph-name="uni5149" unicode="&#x5149;" 
d="M1626 1636l154 -57q-42 -88 -91 -183t-99 -182.5t-95 -152.5l-127 51q44 69 92.5 160t92 186.5t73.5 177.5zM674 1112l-144 -57q-18 66 -55.5 154.5t-86 181t-99.5 172.5l137 51q52 -78 102 -168.5t88.5 -177.5t57.5 -156zM1448 -10h266q40 0 60.5 25t30 98.5t14.5 220.5
q24 -22 66 -40.5t73 -27.5q-9 -165 -30.5 -255.5t-68.5 -126.5t-133 -36h-294q-136 0 -184 46.5t-48 175.5v723h-377q-14 -168 -47 -313.5t-102 -265.5t-190 -213.5t-312 -156.5q-12 28 -41 68t-53 61q179 54 289 134t170 184.5t87 230t40 271.5h-545v145h823v776h152v-776
h841v-145h-581v-721q0 -51 18 -66.5t76 -15.5z" />
    <glyph glyph-name="uni514B" unicode="&#x514b;" 
d="M520 1006v-328h1010v328h-1010zM1415 8h295q42 0 63 20.5t29 85t13 195.5q26 -21 68.5 -38.5t74.5 -24.5q-9 -154 -31.5 -237t-70.5 -114.5t-134 -31.5h-321q-95 0 -147 19t-72.5 66t-20.5 130v461h-305q-18 -132 -57 -241.5t-112.5 -196.5t-195.5 -152.5t-307 -110.5
q-10 32 -37.5 73.5t-50.5 65.5q168 35 277.5 86.5t173.5 121.5t97 158t48 196h-317v604h567v225h-795v141h795v205h152v-205h813v-141h-813v-225h589v-604h-370v-461q0 -45 19 -57.5t83 -12.5z" />
    <glyph glyph-name="uni514D" unicode="&#x514d;" 
d="M1632 1063h-518q-8 -94 -19 -183t-28 -173h565v356zM471 707h436q20 84 31 172.5t18 183.5h-485v-356zM1186 1427h-512q-45 -58 -95.5 -115t-105.5 -112h543q44 48 89 108.5t81 118.5zM1386 23h314q44 0 66 19.5t31 80.5t13 184q27 -20 67.5 -36.5t74.5 -22.5
q-10 -146 -33 -224.5t-71.5 -108.5t-135.5 -30h-342q-98 0 -152 18t-75 63t-21 126v477h-92q-50 -159 -146.5 -293.5t-262 -239t-422.5 -173.5q-11 29 -35.5 66.5t-50.5 62.5q229 56 378.5 141.5t238.5 195.5t136 240h-547v490q-29 -25 -58.5 -47t-61.5 -45q-17 27 -49 59.5
t-58 50.5q138 92 251.5 202t199 223t139.5 214l168 -30q-19 -33 -40 -64.5t-44 -65.5h506l26 9l103 -70q-40 -72 -96 -149.5t-113 -145.5h598v-631h-512v-475q0 -46 19.5 -58.5t88.5 -12.5z" />
    <glyph glyph-name="uni5154" unicode="&#x5154;" 
d="M1638 1051h-522q-8 -102 -20.5 -198.5t-32.5 -186.5h575v385zM453 666h452q22 90 34 186t19 199h-505v-385zM1171 1425h-501q-46 -61 -97 -121t-108 -118h532q48 50 93.5 114t80.5 125zM1350 -8h356q45 0 68.5 18.5t34 74t14.5 167.5q26 -20 66.5 -35t72.5 -22
q-10 -137 -33.5 -211t-73.5 -102.5t-139 -28.5h-377q-104 0 -161 18t-79 64t-22 128v465h-53q-53 -154 -152.5 -285.5t-266 -234t-421.5 -170.5q-10 29 -35.5 67t-48.5 62q226 56 375.5 139.5t241 190t141.5 231.5h-555v506q-29 -23 -60 -47t-63 -47q-17 28 -48.5 59
t-57.5 50q144 96 259.5 210.5t200 232.5t138.5 224l162 -28q-16 -33 -35.5 -64.5t-40.5 -64.5h506l24 6l105 -70q-40 -75 -99 -156t-118 -153h618v-658h-567v-462q0 -47 22 -60.5t101 -13.5zM1333 410l103 79q55 -39 113.5 -89t109 -100.5t82.5 -92.5l-107 -90
q-29 42 -79 93.5t-108 104t-114 95.5z" />
    <glyph glyph-name="uni515A" unicode="&#x515a;" 
d="M305 1194v-305h-147v442h395q-31 60 -86 141t-111 146l127 65q62 -64 120 -142.5t87 -139.5l-119 -70h373v383h154v-383h264q33 49 70.5 112t71.5 126.5t57 116.5l157 -52q-46 -75 -98 -156t-98 -147h372v-442h-151v305h-1438zM625 893v-301h792v301h-792zM1399 2h309
q40 0 60.5 18t29 72t12.5 164q27 -18 68 -34t72 -25q-10 -135 -31.5 -208t-68 -101.5t-128.5 -28.5h-336q-97 0 -149.5 18.5t-73 64.5t-20.5 128v385h-248q-30 -159 -101.5 -277t-216 -200t-391.5 -134q-10 31 -36 72t-48 66q223 37 351.5 100.5t192 155.5t89.5 217h-260
v575h1100v-575h-283v-385q0 -42 20.5 -55t86.5 -13z" />
    <glyph glyph-name="uni2F0A" unicode="&#x2f0a;" 
d="M608 1538l92 131q163 -116 274 -253.5t193 -286.5t155.5 -300t158 -295t200.5 -272t285 -229q-21 -29 -44.5 -81.5t-31.5 -86.5q-175 97 -296.5 229.5t-210.5 285t-165.5 312.5t-160.5 314q-117 -400 -318 -684t-510 -465q-20 24 -63 62.5t-74 60.5q343 176 543.5 484.5
t298.5 741.5q-66 94 -146 178.5t-180 153.5z" />
    <glyph glyph-name="uni2F0A" unicode="&#x5165;" 
d="M608 1538l92 131q163 -116 274 -253.5t193 -286.5t155.5 -300t158 -295t200.5 -272t285 -229q-21 -29 -44.5 -81.5t-31.5 -86.5q-175 97 -296.5 229.5t-210.5 285t-165.5 312.5t-160.5 314q-117 -400 -318 -684t-510 -465q-20 24 -63 62.5t-74 60.5q343 176 543.5 484.5
t298.5 741.5q-66 94 -146 178.5t-180 153.5z" />
    <glyph glyph-name="uni5168" unicode="&#x5168;" 
d="M414 963h1233q-169 113 -324 245.5t-299 298.5q-124 -155 -281 -293.5t-329 -250.5zM1653 825h-551v-317h551v-135h-551v-334h792v-139h-1730v139h782v334h-526v135h526v317h-538v133q-59 -39 -119.5 -73.5t-120.5 -65.5q-17 31 -47 65t-60 60q186 85 365 208.5
t330 272.5t254 310l135 -62q-9 -14 -18.5 -27.5t-18.5 -27.5q189 -220 412.5 -383.5t472.5 -294.5q-29 -25 -59.5 -60t-47.5 -69q-60 37 -118 73t-115 74v-133z" />
    <glyph glyph-name="uni2F0B" unicode="&#x2f0b;" 
d="M629 1513l164 -12q-21 -225 -57 -457t-102 -452t-175 -410t-277 -329q-17 24 -50 58.5t-56 55.5q156 130 257 308t160.5 385t89.5 425t46 428zM1350 1561q1 -38 9 -139t29.5 -244t63.5 -308.5t112 -332.5t173.5 -317t249.5 -261q-85 -45 -132 -104q-147 116 -252.5 274
t-176.5 334.5t-114.5 351t-66.5 326t-32.5 259.5t-12.5 150z" />
    <glyph glyph-name="uni2F0B" unicode="&#x516b;" 
d="M629 1513l164 -12q-21 -225 -57 -457t-102 -452t-175 -410t-277 -329q-17 24 -50 58.5t-56 55.5q156 130 257 308t160.5 385t89.5 425t46 428zM1350 1561q1 -38 9 -139t29.5 -244t63.5 -308.5t112 -332.5t173.5 -317t249.5 -261q-85 -45 -132 -104q-147 116 -252.5 274
t-176.5 334.5t-114.5 351t-66.5 326t-32.5 259.5t-12.5 150z" />
    <glyph glyph-name="uni516C" unicode="&#x516c;" 
d="M668 1653l161 -45q-68 -166 -160 -321t-198 -288t-217 -233q-25 23 -68.5 56.5t-72.5 51.5q114 91 218 214.5t190 267.5t147 297zM1251 561l142 66q89 -109 182.5 -233.5t174 -243.5t130.5 -211l-147 -82q-25 49 -60.5 107.5t-75.5 121.5q-322 -22 -537.5 -37t-349 -25
t-207 -17t-109 -14t-58.5 -16q-6 25 -24.5 76.5t-35.5 83.5q40 9 84 54t103 118q30 34 86.5 112.5t127.5 186.5t143.5 233t133.5 253l164 -74q-126 -232 -272.5 -452t-296.5 -398l952 57q-61 86 -125.5 172.5t-124.5 161.5zM1210 1610l150 57q51 -104 121.5 -213.5t153 -213
t167.5 -192.5t164 -153q-29 -23 -66.5 -60.5t-60.5 -68.5q-105 97 -220.5 236t-222.5 296.5t-186 311.5z" />
    <glyph glyph-name="uni516D" unicode="&#x516d;" 
d="M125 1174h1804v-156h-1804v156zM635 782l166 -53q-75 -158 -167.5 -317t-192 -302.5t-193.5 -252.5q-26 21 -72.5 53.5t-79.5 52.5q99 102 197 236t186 284.5t156 298.5zM1237 731l141 68q72 -100 151 -213.5t156 -227.5t143 -217.5t111 -183.5l-153 -88
q-42 81 -106 186.5t-139.5 222.5t-154 233.5t-149.5 219.5zM836 1651l153 53q36 -68 74 -145.5t71 -150t54 -124.5l-164 -63q-19 53 -50.5 127.5t-68 154t-69.5 148.5z" />
    <glyph glyph-name="uni5170" unicode="&#x5170;" 
d="M809 1352l-135 -72q-21 48 -59 111t-84.5 129t-92.5 122l127 62q47 -53 95 -116.5t87.5 -125.5t61.5 -110zM1849 1253v-149h-1648v149h991q47 64 97.5 144.5t96.5 162.5t78 152l154 -49q-57 -103 -126.5 -212.5t-135.5 -197.5h493zM1708 545h-1397v149h1397v-149zM121 96
h1800v-149h-1800v149z" />
    <glyph glyph-name="uni5171" unicode="&#x5171;" 
d="M678 385l158 -61q-73 -88 -169.5 -177t-203.5 -168t-209 -139q-22 23 -57.5 55t-63.5 54q100 52 204 124.5t194 153.5t147 158zM1202 309l131 78q94 -66 202.5 -148t206.5 -162t163 -140l-144 -95q-60 61 -154.5 142.5t-201.5 167.5t-203 157zM733 1135v-484h582v484
h-582zM1470 651h480v-147h-1841v147h471v484h-390v147h390v414h153v-414h582v414h155v-414h406v-147h-406v-484z" />
    <glyph glyph-name="uni5173" unicode="&#x5173;" 
d="M465 1630l127 64q64 -79 123.5 -175.5t87.5 -166.5l-133 -74q-28 72 -86 172t-119 180zM1909 614h-754q115 -224 320 -383.5t485 -228.5q-28 -26 -59.5 -68t-47.5 -75q-271 78 -471.5 242t-326.5 399q-46 -118 -143 -233.5t-265.5 -222t-429.5 -198.5q-17 27 -48.5 67.5
t-62.5 63.5q273 94 438 199.5t250 217t117 220.5h-764v150h795q2 31 3 59t1 58v247h-676v150h959q40 61 82 136t79 151t64 141l162 -57q-51 -91 -109.5 -189.5t-113.5 -181.5h405v-150h-682v-249q0 -30 -1 -58t-3 -57h797v-150z" />
    <glyph glyph-name="uni5174" unicode="&#x5174;" 
d="M117 735h1816v-145h-1816v145zM1249 401l133 72q94 -81 198.5 -177.5t198.5 -190t154 -164.5l-145 -86q-56 70 -147 166t-194.5 196t-197.5 184zM625 481l163 -59q-68 -101 -160.5 -204.5t-196 -197t-206.5 -163.5q-23 23 -60.5 56.5t-66.5 51.5q101 66 202 152.5
t186 181t139 182.5zM127 1473l137 57q66 -91 128 -196t111.5 -206.5t76.5 -181.5l-146 -67q-26 82 -74.5 185.5t-109 210t-123.5 198.5zM733 1634l139 47q54 -96 101.5 -206t84 -216t54.5 -190l-151 -53q-17 83 -51.5 190.5t-80.5 219.5t-96 208zM1735 1628l172 -51
q-66 -132 -145 -274.5t-160 -274t-154 -231.5l-148 51q74 102 155 237.5t154.5 277.5t125.5 265z" />
    <glyph glyph-name="uni5175" unicode="&#x5175;" 
d="M707 340l143 -92q-84 -72 -189.5 -146t-217.5 -140.5t-216 -117.5q-15 22 -47.5 55.5t-58.5 55.5q103 47 214 112.5t209 136.5t163 136zM1202 240l111 98q97 -52 209 -118.5t214.5 -133t170.5 -119.5l-119 -114q-64 52 -163.5 121t-211 139t-211.5 127zM616 1020v-475
h695v475h-695zM1462 545h480v-146h-1831v146h352v1038q151 8 313 19.5t320 27t298.5 34.5t247.5 42l80 -139q-146 -28 -330.5 -50.5t-384 -39t-391.5 -25.5v-289h1211v-143h-365v-475z" />
    <glyph glyph-name="uni5176" unicode="&#x5176;" 
d="M643 645v-223h758v223h-758zM1401 1331h-758v-203h758v203zM643 997v-221h758v221h-758zM1927 422l2 -141h-1810v141h375v909h-318v144h318v233h149v-233h758v233h151v-233h328v-144h-328v-909h375zM741 244l136 -94q-92 -57 -208 -112.5t-238.5 -105t-231.5 -86.5
q-17 25 -46.5 59t-54.5 58q111 33 232.5 80t230.5 99.5t180 101.5zM1176 137l102 96q120 -42 241.5 -91t229.5 -98t186 -91l-137 -103q-72 44 -172.5 93.5t-216.5 99.5t-233 94z" />
    <glyph glyph-name="uni5178" unicode="&#x5178;" 
d="M696 283l146 -86q-79 -67 -183.5 -133t-217.5 -124t-218 -100q-21 23 -55.5 56t-58.5 55q105 39 217.5 94.5t210.5 117.5t159 120zM1214 188l107 99q109 -53 219 -111.5t207.5 -116t169.5 -106.5l-135 -103q-66 49 -158 106.5t-197.5 117.5t-212.5 114zM440 842v-377h289
v377h-289zM729 1325h-289v-342h289v342zM1171 1325h-299v-342h299v342zM1620 1325h-303v-342h303v342zM1171 465v377h-299v-377h299zM1317 842v-377h303v377h-303zM1772 465h186v-146h-1870v146h205v1001h436v250h143v-250h299v252h146v-252h455v-1001z" />
    <glyph glyph-name="uni517B" unicode="&#x517b;" 
d="M1911 791h-518q107 -103 257 -182.5t310 -121.5q-25 -23 -55 -60.5t-45 -68.5q-120 40 -235.5 102t-215.5 140v-758h-156v760h154q-105 84 -190 189h-371q-39 -53 -84.5 -101t-97.5 -90h112v-129q0 -78 -14 -163t-58.5 -170t-134 -164t-239.5 -144q-16 28 -46.5 63.5
t-56.5 55.5q136 56 216 122t119 136t51 138.5t12 129.5v92q-93 -67 -202.5 -118.5t-240.5 -90.5q-17 33 -46.5 71t-55.5 65q351 84 563 297h-518v127h625q29 36 53.5 78t46.5 85h-535v123h588q16 37 28.5 75.5t22.5 78.5h-737v127h438q-20 43 -54.5 98t-70.5 98l132 45
q43 -47 81.5 -104.5t57.5 -101.5l-90 -35h534q39 52 81 121t65 123l157 -46q-30 -52 -64.5 -103.5t-68.5 -94.5h430v-127h-741q-11 -40 -22 -78.5t-23 -75.5h680v-123h-727q-19 -43 -39 -84t-41 -79h979v-127z" />
    <glyph glyph-name="uni517C" unicode="&#x517c;" 
d="M872 500h281v194h-281v-194zM872 999v-174h281v174h-281zM872 1303v-181h281v181h-281zM1579 999h-279v-174h279v174zM1579 500v194h-279v-194h279zM1726 377h-340q76 -76 173.5 -146.5t202.5 -127.5t204 -93q-24 -21 -54.5 -57t-45.5 -66q-145 63 -297 171.5t-269 234.5
v-451h-147v535h-281v-535h-147v428q-112 -123 -254.5 -226t-284.5 -165q-15 28 -44.5 61.5t-55.5 55.5q98 37 200 96t194 132.5t163 152.5h-367v123h449v194h-602v131h602v174h-430v123h430v181h-569v131h471q-36 52 -90.5 112t-108.5 111l135 61q63 -53 127.5 -122.5
t100.5 -122.5l-80 -39h561q55 61 112 139.5t93 142.5l161 -51q-43 -60 -90.5 -120.5t-93.5 -110.5h442v-131h-596v-181h426v-297h205v-131h-205v-317z" />
    <glyph glyph-name="uni517D" unicode="&#x517d;" 
d="M1614 1167v170h-518v-170h518zM1614 893v172h-518v-172h518zM416 1065v-172h534v172h-534zM416 1337v-170h534v170h-534zM1761 1446v-662h-1487v662h408q-22 48 -59.5 108t-75.5 109l123 55q43 -52 87 -117t64 -114l-80 -41h478q44 58 92 133t78 133l141 -51
q-37 -55 -79 -111t-81 -104h391zM1556 276h-1062v-213h1062v213zM348 -158v561h1358v-555h-150v99h-1062v-105h-146zM113 655h1826v-123h-1826v123z" />
    <glyph glyph-name="uni5185" unicode="&#x5185;" 
d="M1843 1364v-1319q0 -74 -20 -114t-72 -58q-54 -20 -149 -23.5t-232 -3.5q-4 31 -19 77t-32 77q107 -5 200 -5.5t126 1.5q27 1 38 12t11 39v1167h-594q-3 -63 -11.5 -130t-25.5 -136q101 -89 211 -192.5t207 -202t159 -174.5l-124 -98q-53 68 -133.5 156t-175.5 183
t-189 183q-57 -148 -174.5 -288t-323.5 -261q-17 25 -49.5 60t-58.5 55q169 89 273 194.5t159.5 217.5t77.5 222.5t26 210.5h-590v-1374h-149v1524h741v350h152v-350h741z" />
    <glyph glyph-name="uni5188" unicode="&#x5188;" 
d="M1532 281l-115 -111q-61 91 -150.5 199t-195.5 225q-230 -292 -485 -498q-23 20 -63.5 49t-69.5 45q282 206 516 510q-112 116 -233 229t-234 210l106 86q111 -91 226 -195.5t223 -210.5q174 245 299 522l147 -45q-73 -153 -159 -299.5t-183 -281.5q114 -120 210 -231
t161 -203zM1849 1606v-1555q0 -75 -23 -113.5t-75 -58.5q-52 -18 -142.5 -22t-236.5 -4q-6 32 -24.5 76t-36.5 75q106 -5 200 -4t123 2q33 0 45.5 11t12.5 40v1403h-1336v-1614h-153v1764h1646z" />
    <glyph glyph-name="uni518C" unicode="&#x518c;" 
d="M1262 907h325v531h-325v-488v-43zM467 907h287v531h-287v-486v-45zM1956 907v-147h-219v-731q0 -66 -17.5 -102t-58.5 -56q-42 -18 -113.5 -23.5t-183.5 -5.5q-6 31 -20.5 74t-28.5 72q80 -3 145.5 -3.5t85.5 1.5q41 2 41 43v731h-330q-6 -152 -29 -316.5t-72 -321
t-134 -284.5q-17 23 -54.5 57t-60.5 48q76 117 118.5 255.5t61 282.5t23.5 279h-209v-723q0 -63 -17 -98t-57 -54q-43 -18 -111.5 -22t-174.5 -4q-5 29 -20.5 69t-28.5 68q75 -2 138 -2t85 2q39 0 39 41v723h-291q-7 -153 -33 -318.5t-80.5 -323.5t-148.5 -288
q-17 25 -52.5 59.5t-58.5 47.5q85 118 132 257.5t68 284.5t27 281h-225v147h230v45v627h579v-672h213v43v629h623v-672h219z" />
    <glyph glyph-name="uni518D" unicode="&#x518d;" 
d="M1092 477h475v252h-475v-252zM479 729v-252h461v252h-461zM940 1110h-461v-248h461v248zM1567 1110h-475v-248h475v248zM1964 477v-141h-248v-307q0 -69 -19.5 -106.5t-68.5 -55.5q-51 -19 -137.5 -23t-218.5 -4q-6 31 -22.5 73.5t-32.5 72.5q101 -3 187.5 -2.5
t113.5 2.5q27 0 38 9t11 34v307h-1088v-498h-149v498h-242v141h242v772h610v197h-776v143h1724v-143h-796v-197h624v-772h248z" />
    <glyph glyph-name="uni5192" unicode="&#x5192;" 
d="M1503 723h-960v-148h960v148zM543 317h960v148h-960v-148zM543 53h960v154h-960v-154zM395 -152v990h1260v-981h-152v80h-960v-89h-148zM1520 1364v-111h-994v111h994zM1520 997h-992v109h992v-109zM248 1618h1542v-684h-152v567h-1243v-571h-147v688z" />
    <glyph glyph-name="uni5199" unicode="&#x5199;" 
d="M635 791h1051l-2 -27.5t-5 -42.5q-23 -253 -48 -412.5t-55 -247.5t-69 -127q-33 -35 -73 -48t-99 -15q-49 -5 -139.5 -2.5t-189.5 8.5q-4 32 -17 72.5t-33 70.5q105 -10 198.5 -13t131.5 -3q35 0 57 4.5t37 20.5q45 38 79 181.5t65 444.5h-1080q28 98 59.5 231t61 273
t51.5 260l154 -14q-11 -52 -23 -108t-24 -113h907v-133h-936q-15 -69 -29.5 -135t-29.5 -125zM1346 436v-141h-1151v141h1151zM168 1602h1712v-396h-154v254h-1409v-254h-149v396z" />
    <glyph glyph-name="uni519B" unicode="&#x519b;" 
d="M309 1493v-291h-147v426h1724v-426h-151v291h-1426zM1901 322v-142h-734v-336h-149v336h-854v142h854v256h-377q-173 0 -207 -31q-6 24 -21.5 70.5t-29.5 76.5q28 5 56 41.5t59 89.5q17 25 48.5 84t67.5 138h-241v135h301q26 60 51 123.5t43 128.5l156 -48
q-20 -50 -41.5 -102t-44.5 -102h831v-135h-895q-90 -187 -188 -334h432v237h149v-237h564l-2 -135h-562v-256h734z" />
    <glyph glyph-name="uni519C" unicode="&#x519c;" 
d="M1665 956l121 -98q-92 -86 -208.5 -174t-219.5 -156q117 -173 267 -304.5t339 -213.5q-28 -21 -59.5 -59t-51.5 -70q-339 165 -556.5 472t-340.5 722q-58 -100 -127.5 -187.5t-152.5 -162.5v-659l477 139q2 -32 6 -73.5t8 -65.5q-205 -63 -329.5 -102.5t-191.5 -62
t-98 -36t-48 -25.5q-8 28 -28 70.5t-40 66.5q28 13 61 44.5t33 91.5v491q-76 -54 -161 -101t-181 -85q-17 24 -51 63t-61 62q307 112 510.5 300t324.5 468h-557v-275h-149v418h762q20 62 38 126.5t33 133.5l152 -28q-14 -60 -30.5 -119t-33.5 -113h733v-418h-153v275h-631
l-18 -45q41 -169 99.5 -326t135.5 -295q97 68 201.5 153.5t175.5 157.5z" />
    <glyph glyph-name="uni51A0" unicode="&#x51a0;" 
d="M1708 913v-620q0 -59 -16 -91t-56 -50q-43 -16 -108.5 -20.5t-165.5 -2.5q-5 29 -18.5 66.5t-28.5 66.5q74 -1 133.5 -1.5t79.5 -0.5q20 2 27.5 8.5t7.5 26.5v618h-519v138h519v256h145v-256h225v-138h-225zM1114 756l119 47q60 -79 110.5 -173.5t73.5 -168.5l-129 -58
q-20 73 -68.5 173t-105.5 180zM317 1473v-209h-149v350h1714v-350h-151v209h-1414zM258 1087v142h713v-142h-713zM1055 6h592q72 0 108.5 19.5t51.5 79t22 178.5q28 -19 67.5 -34.5t71.5 -21.5q-13 -142 -41 -219.5t-91.5 -108t-184.5 -30.5h-596q-134 0 -209 19.5
t-105 69.5t-30 142v586h-219v-139q0 -110 -24.5 -235.5t-91.5 -247.5t-194 -222q-15 23 -48 58t-56 49q116 89 174 193t78 209.5t20 197.5v137h-235v141h934v-141h-195v-586q0 -38 15 -58t58 -28t128 -8z" />
    <glyph glyph-name="uni51AC" unicode="&#x51ac;" 
d="M457 143l69 123q120 -27 258 -64t276 -77.5t260 -81t210 -76.5l-72 -141q-84 35 -203.5 77.5t-257 86.5t-277 83.5t-263.5 69.5zM711 502l67 116q108 -30 236.5 -69.5t248 -79.5t199.5 -72l-67 -137q-78 33 -196.5 76t-248 87t-239.5 79zM1407 1374h-664
q-10 -14 -22 -28.5t-25 -26.5q63 -83 144 -156.5t178 -138.5q117 75 216 162.5t173 187.5zM1536 1518l100 -62q-84 -153 -207 -282.5t-274 -235.5q174 -95 378 -162t425 -102q-28 -28 -55 -70t-43 -76q-232 45 -445 126t-393 196q-197 -117 -414.5 -200t-431.5 -132
q-9 31 -30.5 73t-43.5 68q199 40 401.5 112t385.5 173q-158 122 -281 279q-72 -74 -155 -146t-179 -135q-16 26 -46 60t-56 53q149 94 268.5 207.5t207.5 231.5t143 224l163 -32q-23 -44 -51.5 -88t-58.5 -89h667z" />
    <glyph glyph-name="uni51B0" unicode="&#x51b0;" 
d="M547 1305l-94 -125q-38 40 -98.5 89.5t-129.5 98.5t-133 88l90 109q63 -36 132.5 -82.5t131.5 -93.5t101 -84zM444 805l115 -92q-49 -103 -106.5 -213.5t-117 -216t-112.5 -193.5l-133 94q50 74 112 178t125 219t117 224zM1018 1190l90 -25q-57 -382 -197 -661.5
t-333 -431.5q-16 27 -44.5 64.5t-54.5 60.5q106 72 196.5 198t159 290t107.5 351h-364v150h413zM1790 1309l129 -80q-92 -112 -205 -228.5t-215 -203.5q88 -195 210 -346t282 -240q-25 -23 -57.5 -60t-51.5 -69q-198 127 -333.5 349t-221.5 503v-885q0 -71 -18.5 -110
t-63.5 -58q-43 -21 -119 -28t-188 -7q-8 33 -25.5 81t-35.5 77q87 -1 158 -1t95 1q25 0 35.5 9.5t10.5 35.5v1661h151v-360q23 -111 52.5 -216.5t66.5 -205.5q91 86 184.5 188t159.5 193z" />
    <glyph glyph-name="uni51B2" unicode="&#x51b2;" 
d="M571 1272l-112 -111q-35 46 -91.5 104.5t-123 118t-129.5 107.5l108 100q63 -46 130 -102t125.5 -112.5t92.5 -104.5zM221 41l-139 94q54 79 120.5 189t133.5 232.5t125 238.5l119 -93q-53 -109 -113.5 -226t-123.5 -229t-122 -206zM1360 690h387v490h-387v-490zM842 690
h366v490h-366v-490zM1360 1333h541v-913h-154v121h-387v-697h-152v697h-366v-131h-150v923h516v379h152v-379z" />
    <glyph glyph-name="uni51B3" unicode="&#x51b3;" 
d="M555 1229l-131 -86q-29 56 -80.5 129.5t-113 148.5t-119.5 138l120 73q59 -60 121.5 -133t116.5 -144t86 -126zM438 700l113 -94q-47 -109 -104 -227.5t-117 -232.5t-115 -212l-129 95q50 80 112 191.5t124.5 236.5t115.5 243zM1300 1245v-213q0 -61 -2 -125.5
t-10 -130.5h324v469h-312zM1962 629h-580q74 -235 221 -405t371 -247q-26 -23 -54.5 -62t-45.5 -69q-235 96 -387 280t-234 445q-34 -136 -107 -267t-200 -249t-323 -217q-17 25 -49 62.5t-60 58.5q195 88 315.5 196.5t186 229t94.5 244.5h-479v147h504q6 66 8 130.5
t2 125.5v213h-410v146h410v319h155v-319h459v-615h203v-147z" />
    <glyph glyph-name="uni51B5" unicode="&#x51b5;" 
d="M608 1257l-112 -112q-33 51 -89.5 113.5t-123 125.5t-129.5 115l104 98q64 -49 131.5 -109t125.5 -120t93 -111zM494 850l102 -102q-56 -109 -122 -227.5t-134.5 -233t-130.5 -209.5l-119 108q56 80 127 191t143 234t134 239zM899 1470v-550h776v550h-776zM1593 10h176
q28 0 42.5 23t20.5 91.5t9 203.5q25 -20 65 -37t70 -25q-8 -154 -26.5 -239t-58 -118.5t-109.5 -33.5h-207q-117 0 -156 43.5t-39 161.5v694h-239q-10 -173 -36.5 -317t-84.5 -259.5t-160.5 -203.5t-265.5 -150q-12 26 -39 62.5t-53 56.5q149 53 241 129t142.5 176t72 226.5
t29.5 279.5h-233v842h1077v-842h-303v-692q0 -45 12.5 -58.5t52.5 -13.5z" />
    <glyph glyph-name="uni51B6" unicode="&#x51b6;" 
d="M563 1249l-123 -94q-31 54 -86 125t-119 144t-124 135l114 79q61 -58 126 -128t121.5 -138t90.5 -123zM213 -72l-129 101q54 81 120.5 192t135 235t127.5 242l113 -102q-55 -109 -117 -226.5t-126.5 -231t-123.5 -210.5zM1618 518h-719v-446h719v446zM752 -160v819h1017
v-813h-151v84h-719v-90h-147zM1368 1382l129 66q86 -91 171.5 -197.5t156.5 -209t114 -183.5l-135 -78q-15 29 -34.5 64t-43.5 71q-266 -17 -445 -29.5t-290 -20.5t-172.5 -14.5t-91.5 -12t-49 -13.5q-6 23 -21.5 69t-29.5 77q32 6 65 41t76 92q22 27 65 88t96 145t107 181
t99 196l155 -45q-93 -180 -201.5 -351.5t-220.5 -309.5l768 43q-61 87 -130 173t-138 158z" />
    <glyph glyph-name="uni51B7" unicode="&#x51b7;" 
d="M518 1188l-143 -74q-24 61 -67 139t-95.5 160t-103.5 154l131 57q53 -68 107.5 -146.5t100 -154.5t70.5 -135zM233 -55l-149 67q44 84 98.5 200.5t109 246t99.5 252.5l131 -70q-42 -117 -91 -240t-99.5 -240.5t-98.5 -215.5zM1679 772l109 -70q-56 -98 -137.5 -204
t-169 -204t-164.5 -173q139 -100 221 -176l-108 -105q-60 58 -154.5 133.5t-200.5 153.5t-201 141l103 88q104 -69 221 -149q57 53 122 122.5t127 145t112 146.5h-826v143h920zM1079 1077l119 64q58 -56 118.5 -123t92.5 -113l-121 -80q-35 51 -94 123t-115 129zM1212 1716
l148 -51q-9 -18 -18.5 -36.5t-20.5 -35.5q75 -116 179 -231.5t220.5 -212t227.5 -158.5q-28 -23 -61.5 -59.5t-53.5 -67.5q-99 67 -204.5 163t-204.5 209.5t-179 231.5q-117 -178 -276 -336t-346 -278q-17 26 -51 61t-60 54q153 93 287 214.5t240 258t173 274.5z" />
    <glyph glyph-name="uni51BB" unicode="&#x51bb;" 
d="M524 1161l-133 -82q-25 64 -71.5 146t-102.5 168.5t-111 160.5l123 68q56 -71 113.5 -154.5t106 -164t75.5 -142.5zM227 -55l-139 80q47 79 103.5 190.5t112.5 235t104 241.5l122 -78q-44 -110 -96 -228.5t-105.5 -232t-101.5 -208.5zM846 510l151 -43
q-56 -132 -142.5 -273.5t-178.5 -244.5q-23 23 -58.5 50t-60.5 44q59 60 114 140t100 165t75 162zM1849 680h-463v-647q0 -68 -16.5 -102.5t-60.5 -53.5q-46 -18 -120.5 -22.5t-187.5 -4.5q-4 33 -17.5 74t-29.5 72q83 -2 152 -2h90q23 1 32 9t9 30v647h-324
q-158 0 -192 -31q-6 25 -21.5 72t-29.5 78q29 9 56.5 54t59.5 114q20 38 57 127.5t79 205.5h-332v142h379q21 69 42 141.5t38 142.5l159 -38q-30 -123 -73 -246h796v-142h-844q-49 -130 -101.5 -252.5t-104.5 -228.5h356v307h149v-307h463v-139zM1530 457l129 55
q52 -76 108.5 -163.5t105 -170t77.5 -143.5l-138 -68q-28 63 -75 148t-101.5 175t-105.5 167z" />
    <glyph glyph-name="uni51C0" unicode="&#x51c0;" 
d="M537 1174l-144 -74q-27 60 -75 140.5t-104 165t-110 157.5l134 61q53 -71 111 -153t108 -160t80 -137zM260 -61l-154 73q46 82 100.5 195.5t110 239.5t101.5 247l135 -73q-43 -114 -92.5 -235t-101 -236t-99.5 -211zM1647 479v219h-355v-219h355zM1292 1044v-206h355v206
h-355zM1386 1405h-413q-39 -58 -79 -115.5t-83 -107.5h430q38 46 76.5 105.5t68.5 117.5zM1956 838v-140h-166v-438h-143v82h-355v-315q0 -68 -18 -103t-66 -53q-46 -18 -124.5 -22t-198.5 -3q-5 31 -19.5 72t-29.5 72q90 -3 164.5 -2.5t99.5 0.5q26 1 35.5 9t9.5 30v315
h-459v137h459v219h-576v140h576v206h-397v64q-25 -26 -47.5 -49.5t-47.5 -46.5q-20 21 -56 52t-62 48q129 109 245.5 270t190.5 334l143 -43q-14 -35 -30.5 -68t-34.5 -67h419l25 8l98 -67q-35 -73 -84 -151.5t-100 -145.5h383v-344h166z" />
    <glyph glyph-name="uni51C6" unicode="&#x51c6;" 
d="M522 1176l-141 -76q-27 59 -72.5 139t-99 164.5t-105.5 157.5l136 61q51 -70 106 -151.5t102.5 -159t73.5 -135.5zM260 -61l-154 73q47 82 101.5 196t109.5 240t101 246l135 -73q-65 -171 -143 -354t-150 -328zM893 403v-276h428v276h-428zM1321 944v270h-428v-270h428z
M1321 539v270h-428v-270h428zM1946 127v-139h-1053v-146h-143v1192q-47 -72 -98 -136t-103 -120q-17 22 -52 56t-61 53q152 144 276.5 359t202.5 450l140 -37q-26 -80 -59 -158t-68 -153h467q-22 61 -66.5 143t-87.5 149l129 60q48 -69 93 -149t67 -138l-127 -65h502v-134
h-435v-270h394v-135h-394v-270h392v-136h-392v-276h476z" />
    <glyph glyph-name="uni51C9" unicode="&#x51c9;" 
d="M1884 1477v-144h-1272v144h584q-40 103 -86 198l145 41q30 -57 60.5 -122t50.5 -117h518zM516 1128l-137 -81q-24 68 -68 158.5t-97.5 185.5t-107.5 176l130 67q54 -79 109.5 -170.5t101.5 -179.5t69 -156zM401 713l134 -68q-45 -118 -96.5 -242t-104.5 -242t-103 -216
l-147 69q47 84 103 200t111.5 245.5t102.5 253.5zM811 494l141 -43q-61 -134 -144 -269.5t-163 -232.5q-18 20 -55.5 48t-65.5 42q80 89 156.5 212t130.5 243zM885 1034v-301h714v301h-714zM1751 604h-422v-590q0 -61 -17 -93.5t-63 -47.5q-46 -18 -119 -21.5t-184 -3.5
q-6 33 -21 70.5t-30 67.5q77 -2 147.5 -2t90.5 2q23 0 30.5 6t7.5 26v586h-432v561h1012v-561zM1518 438l127 54q48 -71 98.5 -152t94 -158t69.5 -135l-131 -63q-28 59 -71 138t-92 162t-95 154z" />
    <glyph glyph-name="uni51C9" unicode="&#xf979;" 
d="M1884 1477v-144h-1272v144h584q-40 103 -86 198l145 41q30 -57 60.5 -122t50.5 -117h518zM516 1128l-137 -81q-24 68 -68 158.5t-97.5 185.5t-107.5 176l130 67q54 -79 109.5 -170.5t101.5 -179.5t69 -156zM401 713l134 -68q-45 -118 -96.5 -242t-104.5 -242t-103 -216
l-147 69q47 84 103 200t111.5 245.5t102.5 253.5zM811 494l141 -43q-61 -134 -144 -269.5t-163 -232.5q-18 20 -55.5 48t-65.5 42q80 89 156.5 212t130.5 243zM885 1034v-301h714v301h-714zM1751 604h-422v-590q0 -61 -17 -93.5t-63 -47.5q-46 -18 -119 -21.5t-184 -3.5
q-6 33 -21 70.5t-30 67.5q77 -2 147.5 -2t90.5 2q23 0 30.5 6t7.5 26v586h-432v561h1012v-561zM1518 438l127 54q48 -71 98.5 -152t94 -158t69.5 -135l-131 -63q-28 59 -71 138t-92 162t-95 154z" />
    <glyph glyph-name="uni51CF" unicode="&#x51cf;" 
d="M1907 1481l-92 -80q-40 49 -113.5 115t-142.5 116l90 74q69 -49 143.5 -112t114.5 -113zM485 1157l-127 -61q-21 61 -61.5 143t-90 167.5t-100.5 158.5l119 53q51 -73 102 -156.5t93 -163t65 -141.5zM369 707l118 -66q-38 -114 -85 -237.5t-95.5 -241.5t-93.5 -215
l-131 61q42 85 93 202t102 246t92 251zM1210 680h-245v-320h245v320zM1321 236h-356v-117h-119v684h475v-567zM1331 1083v-118h-508v118h508zM1778 1077l127 -26q-51 -203 -120.5 -380.5t-160.5 -326.5q34 -154 77.5 -242.5t92.5 -91.5q26 0 47 83t33 237q17 -22 51.5 -44
t54.5 -30q-20 -165 -49.5 -255.5t-64.5 -126t-72 -34.5q-91 3 -158 96t-114 261q-77 -102 -167.5 -187t-193.5 -155q-15 20 -47 49.5t-55 46.5q127 80 232 182.5t190 226.5q-36 179 -60.5 403t-38.5 480h-639v-407q0 -113 -8 -242.5t-31 -264t-67.5 -261.5t-116.5 -234
q-18 19 -54 44t-60 36q91 134 134 295.5t55.5 324.5t12.5 302v544h766q-3 79 -6 159t-6 163h135q2 -82 4.5 -162.5t5.5 -159.5h435v-137h-426q10 -198 28 -376.5t41 -327.5q62 119 109.5 254t83.5 284z" />
    <glyph glyph-name="uni51D1" unicode="&#x51d1;" 
d="M250 -55l-154 67q42 82 92.5 195.5t101 239.5t91.5 247l141 -67q-60 -171 -132.5 -354.5t-139.5 -327.5zM94 1563l133 61q54 -71 111 -153t107 -160t79 -137l-141 -76q-28 60 -75.5 141t-104 166t-109.5 158zM1225 135l78 105q100 -33 208.5 -80t206 -96.5t164.5 -90.5
l-80 -118q-66 45 -163 97t-205.5 100.5t-208.5 82.5zM1921 848h-362q78 -82 189.5 -150.5t227.5 -103.5q-24 -22 -52.5 -54.5t-43.5 -60.5q-185 74 -342 211v-112h-229q-16 -94 -43 -175h530v-124h-579q-71 -142 -204.5 -250t-367.5 -174q-12 24 -35 58t-45 54
q192 49 308.5 129t181.5 183h-332v124h393q16 40 27 85t20 90h-241v124h606q-39 34 -72.5 71.5t-60.5 74.5h-363q-77 -115 -176 -210.5t-225 -170.5q-14 23 -46.5 61t-54.5 60q97 50 176 116t142 144h-295v129h385q21 35 40 73t36 76h-328v123h373q11 36 21.5 71.5
t19.5 74.5h-473v127h499q8 46 15.5 95t13.5 99l152 -14q-7 -46 -14 -91.5t-15 -88.5h588v-127h-617q-7 -39 -16.5 -74.5t-20.5 -71.5h596v-123h-639l-30 -76t-35 -73h817v-129z" />
    <glyph glyph-name="uni51DD" unicode="&#x51dd;" 
d="M1270 1327l86 94q43 -21 89.5 -47.5t92.5 -54.5q49 46 96.5 100.5t85.5 108.5h-503v127h602l28 8l95 -68q-59 -89 -137 -181.5t-156 -166.5q40 -29 75.5 -56.5t61.5 -51.5l-90 -109q-44 44 -115.5 97.5t-153 106t-157.5 93.5zM1032 1077h-252q-116 0 -155 36t-39 142v457
h137v-225q94 31 187.5 68.5t156.5 74.5l84 -106q-91 -43 -206 -82t-222 -68v-119q0 -35 13 -45t61 -10h221q38 0 49.5 26t15.5 128q22 -16 58 -29.5t63 -19.5q-11 -136 -46 -182t-126 -46zM528 1290l-106 -110q-32 44 -84 97.5t-113 107.5t-119 98l101 96q57 -42 119 -93
t116 -102.5t86 -93.5zM371 735l118 -80q-39 -104 -86 -217t-95.5 -221.5t-92.5 -200.5l-131 78q43 78 93.5 185t101 225.5t92.5 230.5zM1186 403h-262q-2 -13 -3.5 -27t-5.5 -26q63 -55 126.5 -119.5t99.5 -111.5l-90 -105q-28 42 -75.5 96t-101.5 103q-38 -97 -114 -192.5
t-205 -178.5q-14 20 -42.5 48t-51.5 47q110 64 177.5 142.5t102 162t47.5 161.5h-266v132h281v25.5v25.5v186h-105q-21 -48 -44.5 -91.5t-49.5 -80.5q-18 17 -53 40t-59 34q59 77 102 183t70 216l127 -29q-10 -36 -19.5 -73t-21.5 -72h401v-127h-215v-188v-25v-24h250v-132z
M1784 6h196q-13 -24 -24.5 -63.5t-16.5 -67.5h-163q-98 0 -183.5 26t-156.5 96t-123 202q-25 -106 -66 -195.5t-104 -157.5q-13 20 -39.5 47.5t-46.5 43.5q78 80 118.5 202t56.5 273.5t19 320.5h117q-3 -83 -8 -163.5t-12 -153.5q27 -117 66.5 -193.5t88.5 -122.5v785h-313
v133h663l23 4l84 -21q-17 -84 -40 -173.5t-44 -153.5l-102 28q9 37 20 84.5t21 98.5h-181v-332h297v-127h-297v-401q36 -11 73.5 -15t76.5 -4z" />
    <glyph glyph-name="uni2F0F" unicode="&#x2f0f;" 
d="M1552 37h195q30 0 45 32.5t22 116.5t11 238q29 -23 70 -41.5t75 -28.5q-8 -173 -27 -274.5t-62 -146t-124 -44.5h-227q-78 0 -122 22t-62.5 77t-18.5 155v1303h-647v-475q0 -133 -16 -283.5t-64 -303t-140.5 -293t-246.5 -253.5q-17 25 -54 61.5t-63 53.5
q145 106 231 231.5t128.5 260.5t55.5 269.5t13 258.5v622h959v-1454q0 -66 13 -85t56 -19z" />
    <glyph glyph-name="uni2F0F" unicode="&#x51e0;" 
d="M1552 37h195q30 0 45 32.5t22 116.5t11 238q29 -23 70 -41.5t75 -28.5q-8 -173 -27 -274.5t-62 -146t-124 -44.5h-227q-78 0 -122 22t-62.5 77t-18.5 155v1303h-647v-475q0 -133 -16 -283.5t-64 -303t-140.5 -293t-246.5 -253.5q-17 25 -54 61.5t-63 53.5
q145 106 231 231.5t128.5 260.5t55.5 269.5t13 258.5v622h959v-1454q0 -66 13 -85t56 -19z" />
    <glyph glyph-name="uni51E1" unicode="&#x51e1;" 
d="M702 1012l115 86q71 -71 152.5 -155.5t155 -165.5t120.5 -140l-121 -105q-45 63 -116.5 147t-152 171.5t-153.5 161.5zM1563 43h188q31 0 46.5 32.5t22.5 116t11 238.5q28 -24 67.5 -43t73.5 -27q-7 -173 -25 -274.5t-60.5 -145.5t-121.5 -44h-223q-77 0 -120 21.5
t-61 76t-18 153.5v1301h-698v-428q0 -136 -15.5 -292t-61.5 -315t-134 -307t-233 -268q-19 22 -56 58t-63 53q138 113 220 246.5t122 275.5t52.5 282.5t12.5 268.5v575h1006v-1452q0 -66 12.5 -84t55.5 -18z" />
    <glyph glyph-name="uni51E4" unicode="&#x51e4;" 
d="M1335 1217l92 -35q-41 -197 -110 -362.5t-160 -305.5q92 -91 170 -177t129 -161l-110 -108q-47 70 -119 155t-158 172q-109 -135 -235 -236.5t-265 -168.5q-13 27 -39 63t-49 56q269 118 486 389q-86 81 -176.5 159.5t-176.5 147.5l101 94q81 -64 167 -135.5t169 -147.5
q64 100 116.5 214.5t87.5 240.5h-645v139h701zM313 1612h1407q-1 -221 0 -446.5t6.5 -429t18.5 -363t35.5 -252t58.5 -92.5q19 0 28.5 89.5t12.5 221.5q20 -31 45.5 -61.5t46.5 -49.5q-12 -195 -41.5 -279.5t-107.5 -84.5q-75 0 -122.5 83t-73.5 233t-37.5 351.5t-14.5 440
t-4 497.5h-1108v-378q0 -136 -9 -297.5t-35 -331t-76 -331t-132 -296.5q-22 22 -62 48.5t-69 37.5q80 130 127 280t69.5 306t29.5 305.5t7 278.5v520z" />
    <glyph glyph-name="uni51ED" unicode="&#x51ed;" 
d="M1196 1255v224q-117 -13 -231.5 -22.5t-225.5 -16.5q-3 24 -14.5 57.5t-22.5 54.5q136 11 279 25t280 31.5t256.5 38.5t206.5 45l109 -109q-103 -26 -227.5 -47.5t-259.5 -38.5v-242h585v-133h-585v-245h550v-129h-1204v129h504v245h-575v133h575zM360 686v512
q-47 -48 -96 -91t-98 -81q-17 22 -50.5 55t-58.5 52q152 102 288 255.5t220 325.5l137 -41q-38 -80 -88.5 -157t-105.5 -148v-682h-148zM1561 14h208q29 0 44 17.5t21 71t9 161.5q25 -20 65 -34.5t70 -22.5q-7 -131 -26.5 -203t-59.5 -100.5t-108 -28.5h-242
q-120 0 -162.5 42t-42.5 157v379h-641v-56q0 -103 -42 -205.5t-153.5 -192.5t-320.5 -157q-11 26 -39 67.5t-47 61.5q191 57 287.5 127t130 147.5t33.5 155.5v187h942v-512q0 -40 13.5 -51t60.5 -11z" />
    <glyph glyph-name="uni51EF" unicode="&#x51ef;" 
d="M997 1585v-467h-821v467h127v-342h217v463h133v-463h213v342h131zM340 90l553 127q1 -29 5.5 -66.5t10.5 -60.5q-214 -53 -343.5 -85.5t-198.5 -51t-100 -30t-48 -21.5q-6 26 -23 66t-32 63q18 7 31.5 30t13.5 78v434h608v240h-647v135h786v-510h-49v-2h-567v-346z
M1735 -2h77q15 0 22.5 21.5t11 79.5t5.5 165q23 -17 57.5 -33t61.5 -22q-8 -184 -38.5 -255t-108.5 -71h-115q-88 0 -116.5 42t-28.5 159v1384h-269v-475q0 -127 -9 -276.5t-36 -305t-79.5 -302.5t-139.5 -269q-17 22 -53 52.5t-59 44.5q80 113 127.5 247t70.5 275.5t30 278
t7 255.5v606h547v-1517q0 -55 6 -69.5t29 -14.5z" />
    <glyph glyph-name="uni51F3" unicode="&#x51f3;" 
d="M715 1229v78q-125 -106 -267.5 -185.5t-279.5 -130.5q-14 23 -38.5 55t-45.5 52q89 29 182 73t183 101q-40 37 -93 77t-104 72l80 66q54 -32 112 -73.5t101 -78.5q61 45 115.5 94t99.5 101h-537v115h625l24 6l95 -54q-43 -73 -99.5 -139.5t-124.5 -126.5h580
q-80 75 -146.5 160t-117.5 180l119 41q26 -49 59 -95.5t70 -90.5q66 41 135.5 92.5t116.5 91.5l104 -74q-65 -52 -141 -101t-142 -83q31 -29 64.5 -57.5t68.5 -53.5q67 39 138 88t121 89l104 -74q-60 -46 -130 -89.5t-136 -78.5q164 -99 352 -152q-23 -21 -50 -55t-42 -63
q-145 49 -277 126t-245 177v-80h-633zM1329 780h-612q34 -41 63.5 -89t46.5 -87h398q27 42 55.5 90.5t48.5 85.5zM616 1018v-137h828v137h-828zM145 487v117h527q-39 77 -92 148l88 28h-193v338h1116v-338h-254l136 -37q-24 -35 -47 -71t-46 -68h523v-117h-1758zM1552 8h207
q27 0 41.5 13.5t21 57t9.5 132.5q23 -17 60.5 -32.5t66.5 -22.5q-6 -109 -24 -168t-55.5 -82t-100.5 -23h-244q-117 0 -159 36t-42 140v209h-633v-10q0 -85 -44 -162.5t-157 -141.5t-319 -108q-11 27 -36 67.5t-44 61.5q188 35 285.5 79.5t132.5 97.5t35 112v123h928v-326
q0 -33 12.5 -43t58.5 -10z" />
    <glyph glyph-name="uni51F6" unicode="&#x51f6;" 
d="M1589 373l-116 -119q-68 104 -169.5 231t-226.5 260q-129 -156 -273.5 -292.5t-299.5 -243.5q-20 23 -62.5 54.5t-68.5 51.5q167 105 318.5 243t285.5 298q-137 143 -282 284.5t-281 262.5l100 96q135 -115 277.5 -250t279.5 -272q103 140 192.5 292.5t161.5 315.5
l148 -45q-83 -183 -183.5 -351.5t-215.5 -320.5q129 -133 236 -260.5t179 -234.5zM1710 1313h152v-1436h-152v70h-1522v1366h152v-1221h1370v1221z" />
    <glyph glyph-name="uni51FA" unicode="&#x51fa;" 
d="M1663 696h164v-850h-164v117h-1442v733h164v-583h553v712h-627v701h158v-551h469v737h164v-737h481v553h164v-703h-645v-712h561v583z" />
    <glyph glyph-name="uni51FB" unicode="&#x51fb;" 
d="M1108 774v-668h477v512h154v-776h-154v117h-1276v659h158v-512h485v668h-811v152h811v321h-661v150h661v315h156v-315h664v-150h-664v-321h805v-152h-805z" />
    <glyph glyph-name="uni2F11" unicode="&#x2f11;" 
d="M182 1493h1669v-34t-2 -52q-12 -373 -24.5 -632t-28.5 -425t-39 -259t-57 -134q-39 -48 -81 -67t-101 -25t-153.5 -4t-193.5 8q-3 34 -16.5 81t-36.5 81q112 -9 206.5 -11t135.5 -2q62 -3 92 33q38 37 63.5 175t43 408.5t31.5 706.5h-721q-8 -161 -27.5 -331.5
t-64.5 -338.5t-127 -323t-214 -286.5t-327 -227.5q-19 31 -51 68t-64 61q188 86 312.5 206t200 262.5t115.5 297t56 310.5t23 302h-619v152z" />
    <glyph glyph-name="uni2F11" unicode="&#x5200;" 
d="M182 1493h1669v-34t-2 -52q-12 -373 -24.5 -632t-28.5 -425t-39 -259t-57 -134q-39 -48 -81 -67t-101 -25t-153.5 -4t-193.5 8q-3 34 -16.5 81t-36.5 81q112 -9 206.5 -11t135.5 -2q62 -3 92 33q38 37 63.5 175t43 408.5t31.5 706.5h-721q-8 -161 -27.5 -331.5
t-64.5 -338.5t-127 -323t-214 -286.5t-327 -227.5q-19 31 -51 68t-64 61q188 86 312.5 206t200 262.5t115.5 297t56 310.5t23 302h-619v152z" />
    <glyph glyph-name="uni5206" unicode="&#x5206;" 
d="M395 944h1262l-1.5 -29t-2.5 -45q-15 -310 -30.5 -501t-37.5 -291.5t-57 -138.5q-34 -39 -70 -54t-90 -18q-51 -5 -138.5 -3.5t-182.5 7.5q-2 34 -15 76.5t-35 75.5q100 -10 184.5 -12.5t121.5 -2.5q58 0 88 27q25 25 44 107t33.5 240.5t26.5 412.5h-555
q-21 -152 -62 -293.5t-118 -266.5t-204.5 -226.5t-319.5 -172.5q-14 29 -43 68.5t-54 60.5q181 61 298 149.5t186 197t104.5 231.5t52.5 252h-393v141q-38 -42 -79 -79t-81 -71q-21 23 -61.5 59.5t-69.5 57.5q183 132 332 334.5t238 435.5l161 -45q-78 -195 -190.5 -370.5
t-241.5 -313.5zM1237 1620l137 57q64 -138 160.5 -279t207.5 -262.5t218 -201.5q-31 -23 -66 -60.5t-57 -68.5q-106 93 -217.5 226.5t-211 285.5t-171.5 303z" />
    <glyph glyph-name="uni5207" unicode="&#x5207;" 
d="M479 399l400 168q3 -29 11 -68.5t15 -62.5q-182 -82 -292.5 -133.5t-170 -81t-86.5 -46.5t-43 -30q-9 27 -30 68.5t-41 65.5q27 15 58.5 51.5t31.5 97.5v557l-242 -51l-27 137l269 57v504h147v-473l385 82l27 -137l-412 -88v-617zM862 1534h1055l-0.5 -34.5t-1.5 -49.5
q-11 -389 -21.5 -657t-25 -438t-35.5 -263t-51 -133q-34 -45 -70 -63.5t-88 -24.5q-51 -5 -129 -4t-160 4q-1 35 -14 79t-33 77q89 -8 164 -9.5t109 -1.5q29 0 47 7t34 30q25 28 43.5 111.5t32 238.5t24.5 397.5t21 588.5h-422q-5 -239 -24.5 -465t-76.5 -427.5t-173 -367
t-315 -283.5q-17 30 -49.5 65.5t-63.5 53.5q190 105 300 257.5t162.5 339t69 396.5t21.5 431h-330v145z" />
    <glyph glyph-name="uni520A" unicode="&#x520a;" 
d="M680 1438v-527h442v-149h-442v-914h-154v914h-436v149h436v527h-381v149h918v-149h-383zM1413 1473v-1131h-151v1131h151zM1708 1675h154v-1624q0 -80 -23 -120t-74 -58q-52 -20 -143 -25t-236 -4q-6 31 -22 78.5t-35 79.5q111 -5 201 -4.5t123 0.5q29 1 42 12.5t13 40.5
v1624z" />
    <glyph glyph-name="uni5211" unicode="&#x5211;" 
d="M492 909h317v547h-317v-547zM956 1456v-547h242v-147h-242v-893h-147v893h-317q-5 -170 -30.5 -331t-90 -309.5t-185.5 -279.5q-20 25 -51.5 52t-58.5 47q109 118 166.5 252t79 277.5t24.5 291.5h-250v147h250v547h-203v143h1000v-143h-187zM1454 1485v-1123h-143v1123
h143zM1718 1675h150v-1632q0 -74 -21 -111.5t-67 -56.5q-48 -20 -131.5 -25.5t-218.5 -5.5q-7 31 -21.5 76t-30.5 76q100 -3 180.5 -2.5t108.5 2.5q51 0 51 47v1632z" />
    <glyph glyph-name="uni5212" unicode="&#x5212;" 
d="M1034 1389l-106 -93q-29 40 -77.5 91.5t-105.5 103.5t-110 94l102 82q54 -40 111 -89.5t107 -99.5t79 -89zM1217 1094l-644 -74q20 -143 48 -273t59 -239q81 104 148 220.5t118 244.5l146 -43q-70 -166 -160.5 -312t-196.5 -274q59 -161 126 -252.5t130 -91.5q39 0 58 76
t28 254q26 -25 62.5 -48t66.5 -32q-14 -155 -39.5 -242t-69.5 -122.5t-114 -35.5q-106 0 -197 99t-163 272q-198 -197 -428 -336q-17 25 -50.5 62.5t-58.5 58.5q134 71 254.5 163.5t224.5 203.5q-89 271 -139 633l-328 -39l-16 143l328 37q-16 137 -25 278t-10 285h153
q0 -143 7.5 -279.5t21.5 -267.5l645 74zM1468 1487v-1116h-145v1116h145zM1714 1690l150 2v-1649q0 -75 -20 -112t-66 -56q-48 -20 -129 -25.5t-213 -5.5q-6 31 -21 74.5t-31 75.5q97 -3 176 -2.5t105 2.5q26 0 37.5 9.5t11.5 37.5v1649z" />
    <glyph glyph-name="uni5217" unicode="&#x5217;" 
d="M133 1456v148h1032v-148h-551q-18 -80 -39.5 -156.5t-44.5 -150.5h457l27 6l92 -29q-50 -352 -168 -605.5t-290.5 -423t-387.5 -267.5q-14 31 -40.5 68.5t-51.5 60.5q150 60 281.5 163.5t234.5 252.5q-60 55 -146 123t-163 120l86 113q75 -47 159 -109.5t144 -117.5
q121 220 178 504h-465q-51 -128 -111 -240t-133 -201q-18 20 -55 52t-63 49q121 141 207.5 348t140.5 440h-330zM1462 1475v-1137h-149v1137h149zM1733 1704h151v-1663q0 -72 -20.5 -107.5t-63.5 -54.5q-44 -20 -119 -24.5t-192 -4.5q-5 31 -20.5 74t-30.5 74
q84 -2 155.5 -2h94.5q24 1 34.5 10.5t10.5 34.5v1663z" />
    <glyph glyph-name="uni5218" unicode="&#x5218;" 
d="M768 1440l-135 -64h520v-141h-178q-71 -381 -197 -676q92 -107 170.5 -210t128.5 -187l-119 -109q-43 77 -108 169t-143 192q-96 -177 -221 -319t-287 -253q-16 23 -49 59.5t-58 57.5q171 106 297.5 250t216.5 323q-98 116 -201.5 228t-203.5 209l102 88
q91 -85 184.5 -182t182.5 -195q98 250 153 555h-721v141h527q-22 56 -62.5 135.5t-79.5 145.5l136 57q38 -64 80.5 -141.5t64.5 -132.5zM1434 1477v-1115h-148v1115h148zM1716 1675h150v-1636q0 -75 -20 -111.5t-66 -56.5q-48 -18 -128.5 -23.5t-207.5 -5.5
q-6 33 -21.5 76.5t-31.5 75.5q93 -2 172.5 -2h105.5q25 1 36 11t11 36v1636z" />
    <glyph glyph-name="uni5219" unicode="&#x5219;" 
d="M664 238l94 94q62 -49 133 -109t135 -118t104 -103l-100 -111q-39 47 -101 107.5t-132 123.5t-133 116zM217 1604h879v-1231h-148v1093h-588v-1097h-143v1235zM1702 1698h149v-1641q0 -78 -22 -116.5t-70 -57.5q-50 -18 -137.5 -24t-226.5 -4q-6 30 -22.5 75t-35.5 76
q109 -3 195.5 -2.5t116.5 0.5q27 2 40 13t13 38v1643zM1325 1530h143v-1219h-143v1219zM578 1325h143v-580q0 -117 -19 -241.5t-74 -245t-159.5 -228t-275.5 -190.5q-13 25 -42.5 60.5t-52.5 52.5q161 78 256.5 173t143.5 199t64 212t16 213v575z" />
    <glyph glyph-name="uni521A" unicode="&#x521a;" 
d="M991 299l-112 -61q-28 78 -68.5 171.5t-89.5 196.5q-62 -146 -129 -275t-139 -237q-19 16 -54.5 38t-58.5 34q86 118 163 268t144 318q-64 124 -133 246.5t-135 230.5l106 53q54 -88 110.5 -183t109.5 -194q41 115 78.5 236.5t66.5 240.5l125 -24q-40 -154 -89.5 -304.5
t-103.5 -293.5q66 -128 120 -246t89 -215zM1198 1612v-1551q0 -64 -17.5 -97.5t-60.5 -51.5q-43 -17 -115.5 -21t-187.5 -4q-6 28 -21 67t-30 66q86 -3 156 -3t92 1q45 0 45 45v1414h-733v-1627h-142v1762h1014zM1536 1493v-1137h-137v1137h137zM1737 1675h139v-1636
q0 -69 -19 -104t-61 -54q-43 -17 -119 -21.5t-202 -4.5q-5 29 -18.5 68.5t-29.5 70.5q93 -3 166.5 -2.5t96.5 0.5q24 1 35.5 11t11.5 36v1636z" />
    <glyph glyph-name="uni521B" unicode="&#x521b;" 
d="M567 6h357q47 0 70.5 21t33 81.5t14.5 180.5q27 -17 66 -33t70 -23q-10 -141 -32.5 -219.5t-72 -109.5t-139.5 -31h-379q-98 0 -154.5 18.5t-80 67t-23.5 137.5v873h741v-24t-2 -38q-10 -176 -21 -286t-26 -169.5t-39 -84.5q-23 -27 -50.5 -38t-65.5 -16
q-31 -1 -85.5 -1.5t-115.5 3.5q-3 31 -13 67.5t-24 63.5q55 -6 103 -7t71 -1q20 0 33.5 3t25.5 16q17 23 32.5 107t27.5 270h-445v-738q0 -57 22.5 -73.5t100.5 -16.5zM645 1710l141 -43q-9 -23 -19.5 -44t-21.5 -44q84 -86 174.5 -184.5t169 -193t128.5 -167.5l-109 -100
q-46 68 -116 157t-151.5 183.5t-162.5 181.5q-97 -166 -225 -315.5t-279 -266.5q-18 22 -52 55.5t-59 51.5q130 92 242 211.5t199 252.5t141 265zM1460 1475v-1129h-145v1129h145zM1712 1681h150v-1636q0 -77 -22.5 -113t-70.5 -55q-49 -18 -137 -23t-231 -4
q-6 30 -21.5 72.5t-31.5 73.5q107 -5 194.5 -4.5t116.5 2.5q28 1 40.5 12t12.5 39v1636z" />
    <glyph glyph-name="uni521D" unicode="&#x521d;" 
d="M629 1442l-121 -78q-26 58 -76.5 138.5t-97.5 146.5l117 65q50 -63 101 -140t77 -132zM877 502l-97 -123q-30 47 -91.5 127t-121.5 153v-815h-153v793q-63 -72 -127 -135.5t-127 -114.5q-11 31 -36.5 78t-45.5 65q102 77 205.5 187t193 237.5t152.5 257.5h-510v140h586
l28 6l88 -62q-47 -118 -112.5 -235t-141.5 -223v-4q16 -16 33.5 -34.5t36.5 -39.5q43 46 90 102t76 99l104 -87q-49 -49 -100.5 -98.5t-97.5 -91.5q52 -55 100 -107t68 -75zM1882 1540v-84q-11 -394 -22 -665.5t-26 -443.5t-36 -266t-51 -132q-34 -46 -70 -64t-90 -24
q-50 -6 -130.5 -5t-166.5 7q-1 32 -13 73t-34 72q95 -7 172 -9.5t113 -2.5q52 0 84 37q25 28 43.5 113t32 243.5t24.5 405t21 598.5h-394q-16 -366 -62.5 -656t-151.5 -512t-298 -385q-17 23 -54.5 60.5t-63.5 58.5q185 141 284 348t140.5 478.5t52.5 607.5h-334v147h1030z
" />
    <glyph glyph-name="uni5220" unicode="&#x5220;" 
d="M942 922h191v591h-191v-591zM354 922h191v591h-191v-591zM1262 1647v-725h102v-142h-102v-751q0 -54 -13 -86.5t-47 -48.5q-32 -19 -85.5 -23t-133.5 -4q-3 28 -14 66.5t-25 66.5q54 -3 99.5 -2.5t60.5 0.5q29 0 29 33v749h-191v-14q0 -141 -9 -308t-39 -328.5
t-91 -287.5q-17 19 -52 40t-57 30q57 119 82.5 266.5t32 300t6.5 285.5v16h-141v-751q0 -54 -13 -86.5t-47 -48.5q-32 -19 -85.5 -23t-133.5 -4q-3 28 -14 66.5t-25 66.5q54 -3 99.5 -2.5t60.5 0.5q15 1 22 7.5t7 25.5v749h-191v-100q0 -135 -10.5 -287.5t-44 -296.5
t-102.5 -254q-16 17 -51 41.5t-58 36.5q65 103 94 231.5t37 265.5t8 263v100h-131v142h131v727h447v-727h141v725h447zM1573 1487v-1147h-123v1147h123zM1745 1679h133v-1665q0 -61 -16.5 -94.5t-53.5 -50.5q-38 -19 -102 -23t-162 -4q-4 28 -17.5 67t-27.5 68
q74 -1 131.5 -1.5t75.5 -0.5q21 2 30 10t9 31v1663z" />
    <glyph glyph-name="uni5224" unicode="&#x5224;" 
d="M496 1206l-134 -57q-19 52 -52.5 120.5t-73 140.5t-76.5 134l125 49q58 -93 118 -200.5t93 -186.5zM731 958v-73q0 -68 -2 -135.5t-10 -135.5h442v-143h-465q-35 -184 -130.5 -349.5t-291.5 -289.5q-20 23 -53.5 56t-62.5 53q170 106 258 243t125 287h-439v143h465
q8 68 11.5 135.5t3.5 135.5v73h-404v144h404v602h149v-602h381v-144h-381zM1026 1604l137 -41q-47 -109 -107 -228.5t-112 -204.5q-23 17 -62 35t-67 29q57 84 113.5 194.5t97.5 215.5zM1438 1466v-1126h-150v1126h150zM1714 1673h150v-1630q0 -77 -22.5 -115.5t-69.5 -56.5
q-51 -20 -139.5 -25t-229.5 -4q-6 29 -22.5 75t-32.5 77q109 -3 195.5 -2.5t117.5 0.5q28 1 40.5 12t12.5 39v1630z" />
    <glyph glyph-name="uni5229" unicode="&#x5229;" 
d="M684 1477v-377h391v-139h-391v-150q35 -27 90 -73t114.5 -97t109 -93.5t71.5 -62.5l-88 -125q-31 34 -81 85t-107 106.5t-109 103.5v-807h-147v883q-80 -175 -182.5 -337.5t-207.5 -266.5q-13 31 -38.5 72.5t-45.5 68.5q82 78 165 191.5t155.5 244t122.5 257.5h-397v139
h428v346q-100 -19 -200 -34.5t-196 -29.5q-4 28 -18.5 62.5t-28.5 58.5q150 23 309 53t300.5 67t236.5 79l113 -117q-77 -31 -171.5 -58t-197.5 -50zM1360 1470v-1120h-148v1120h148zM1712 1673h152v-1626q0 -78 -22.5 -118t-69.5 -60q-51 -17 -140 -22t-229 -5
q-6 31 -21.5 76.5t-33.5 77.5q107 -3 194.5 -3.5t116.5 1.5q28 0 40.5 11t12.5 40v1628z" />
    <glyph glyph-name="uni5229" unicode="&#xf9dd;" 
d="M684 1477v-377h391v-139h-391v-150q35 -27 90 -73t114.5 -97t109 -93.5t71.5 -62.5l-88 -125q-31 34 -81 85t-107 106.5t-109 103.5v-807h-147v883q-80 -175 -182.5 -337.5t-207.5 -266.5q-13 31 -38.5 72.5t-45.5 68.5q82 78 165 191.5t155.5 244t122.5 257.5h-397v139
h428v346q-100 -19 -200 -34.5t-196 -29.5q-4 28 -18.5 62.5t-28.5 58.5q150 23 309 53t300.5 67t236.5 79l113 -117q-77 -31 -171.5 -58t-197.5 -50zM1360 1470v-1120h-148v1120h148zM1712 1673h152v-1626q0 -78 -22.5 -118t-69.5 -60q-51 -17 -140 -22t-229 -5
q-6 31 -21.5 76.5t-33.5 77.5q107 -3 194.5 -3.5t116.5 1.5q28 0 40.5 11t12.5 40v1628z" />
    <glyph glyph-name="uni522B" unicode="&#x522b;" 
d="M860 1094v393h-522v-393h522zM1008 1622v-666h-811v666h811zM618 729h424l-1 -26.5t-1 -43.5q-11 -245 -23 -395t-28.5 -228.5t-42.5 -109.5q-24 -30 -53.5 -44t-69.5 -17q-37 -5 -98 -4t-129 4q-3 34 -14 74.5t-29 70.5q66 -6 120 -8t79 -2q45 0 67 23q16 18 28 78.5
t22.5 178t19.5 308.5h-285q-21 -166 -68 -307t-134.5 -253t-231.5 -192q-14 28 -42 61t-54 52q129 66 207 162t119.5 216t60.5 261h-340v141h354q3 42 6 86t4 90h146q-3 -46 -5.5 -89.5t-7.5 -86.5zM1427 1466v-1124h-147v1124h147zM1712 1673h150v-1630q0 -75 -21 -113.5
t-67 -56.5q-48 -21 -132 -26t-221 -5q-4 31 -20 76.5t-33 77.5q103 -5 184 -4.5t109 2.5q51 0 51 49v1630z" />
    <glyph glyph-name="uni522E" unicode="&#x522e;" 
d="M948 100v414h-624v-414h624zM709 1487v-344h475v-146h-475v-342h389v-778h-150v84h-624v-90h-146v784h383v342h-473v146h473v315q-103 -18 -209.5 -33.5t-206.5 -27.5q-4 27 -16.5 63.5t-26.5 61.5q159 19 326.5 47t315.5 64t247 79l117 -113q-83 -33 -185 -61t-214 -51z
M1460 1495v-1126h-147v1126h147zM1716 1690h150v-1635q0 -75 -22 -114t-68 -58q-48 -18 -133 -23t-218 -5q-6 32 -21.5 77t-31.5 76q100 -3 182.5 -3t110.5 1q51 0 51 49v1635z" />
    <glyph glyph-name="uni5230" unicode="&#x5230;" 
d="M750 514v-319q104 20 212 39.5t214 39.5l10 -133q-181 -35 -364.5 -70t-351.5 -67t-302 -57l-33 141q94 15 215 37t254 45v344h-399v135h399v219h146v-219h407v-135h-407zM152 1444v135h1046v-135h-553q-52 -102 -113 -201t-122 -180l522 45q-37 54 -76 105.5t-76 97.5
l109 65q57 -68 117 -147.5t111 -156t81 -134.5l-117 -76q-12 26 -30 59t-41 68q-239 -23 -382 -37t-218.5 -23.5t-108.5 -16.5t-51 -15q-6 25 -22 69.5t-29 73.5q24 5 48 29.5t50 60.5q23 31 76 118t102 196h-323zM1454 1536v-1231h-143v1231h143zM1712 1679h150v-1597
q0 -72 -19 -110.5t-65 -55.5q-48 -18 -128.5 -23.5t-191.5 -5.5q-4 30 -21 74.5t-34 75.5q89 -3 164.5 -3.5t101.5 1.5q26 1 34.5 10t8.5 35v1599z" />
    <glyph glyph-name="uni5236" unicode="&#x5236;" 
d="M741 1280v-215h494v-139h-494v-205h422v-559q0 -52 -11.5 -83.5t-49.5 -49.5q-36 -17 -94.5 -21t-143.5 -4q-4 31 -16.5 67.5t-28.5 65.5q66 -1 113.5 -1t62.5 1q29 0 29 27v418h-283v-736h-145v736h-264v-572h-139v711h403v205h-498v139h498v215h-266q-25 -60 -51 -114
t-52 -97q-23 14 -65 31t-70 26q69 103 121.5 247.5t83.5 291.5l143 -29q-14 -53 -29 -109t-32 -108h217v287h145v-287h414v-139h-414zM1526 1528v-1127h-144v1127h144zM1745 1692h147v-1639q0 -75 -19 -113.5t-65 -58.5q-47 -20 -130.5 -25.5t-196.5 -5.5q-6 33 -20 79
t-29 81q90 -3 167 -3.5t103 -0.5q24 2 33.5 10.5t9.5 34.5v1641z" />
    <glyph glyph-name="uni5237" unicode="&#x5237;" 
d="M362 1462v-262h668v262h-668zM1182 854v-625q0 -46 -9.5 -76t-42.5 -47q-33 -16 -83 -20t-123 -4q-3 28 -15 62.5t-26 62.5q117 -3 149 0q25 0 25 24v494h-213v-877h-131v877h-199v-659h-117v788h316v211h-351v-156q0 -113 -6 -246t-24.5 -271.5t-54.5 -270t-95 -240.5
q-17 22 -53 50t-59 38q71 136 104 301t42 331.5t9 307.5v688h949v-532h-330v-211h338zM1466 1499v-1141h-143v1141h143zM1731 1673h145v-1626q0 -75 -19 -113.5t-67 -58.5q-45 -18 -127 -23.5t-195 -5.5q-6 33 -21 78.5t-32 77.5q92 -3 168.5 -2t104.5 2q24 0 33.5 9.5
t9.5 35.5v1626z" />
    <glyph glyph-name="uni5238" unicode="&#x5238;" 
d="M528 627h949q-144 109 -240 245h-459q-54 -66 -115.5 -127t-134.5 -118zM1919 872h-510q104 -115 256.5 -204t321.5 -133q-27 -22 -54.5 -59.5t-44.5 -67.5q-84 27 -165 67.5t-156 87.5v-2q-14 -207 -29 -336.5t-35 -200t-49 -100.5q-28 -30 -59.5 -42.5t-75.5 -16.5
q-43 -3 -117.5 -2.5t-157.5 6.5q-3 74 -45 143q82 -9 152.5 -10.5t99.5 -1.5q53 0 76 20q28 28 47.5 133.5t36.5 333.5h-496q-27 -152 -91.5 -275.5t-191.5 -215.5t-343 -152q-13 30 -38.5 68t-49.5 61q193 47 306 121t170 173t83 220h-318v76q-63 -43 -129.5 -80.5
t-140.5 -72.5q-11 29 -40.5 66t-55.5 59q153 66 278 152.5t221 184.5h-440v138h559q40 50 73 102.5t62 106.5h-569v135h340q-25 52 -71.5 123.5t-94.5 128.5l121 61q51 -58 101.5 -130t76.5 -126l-110 -57h268q37 90 60.5 182.5t35.5 181.5l160 -16q-31 -177 -92 -348h243
q51 64 107 151.5t90 155.5l139 -47q-41 -68 -88.5 -135.5t-95.5 -124.5h330v-135h-783q-26 -54 -54.5 -106.5t-63.5 -102.5h1040v-138z" />
    <glyph glyph-name="uni523A" unicode="&#x523a;" 
d="M715 1702v-234h456v-139h-456v-190h407v-414q0 -46 -11 -74.5t-46 -44.5q-34 -17 -90 -19.5t-146 -2.5q-4 26 -16 59t-25 59q62 -1 109.5 -1t63.5 1q26 0 26 27v275h-272v-449q40 -25 101.5 -66.5t127.5 -86.5t120.5 -82.5t80.5 -55.5l-80 -131q-36 32 -96 80
t-127.5 100.5t-126.5 96.5v-564h-142v615q-89 -148 -202 -278t-230 -212q-10 31 -32.5 69t-40.5 64q97 64 192.5 160.5t177 211.5t135.5 233v295h-262v-418h-135v553h397v190h-460v139h460v234h142zM1432 1483v-1125h-146v1125h146zM1724 1673h148v-1632q0 -74 -20.5 -112
t-67.5 -58q-46 -18 -126.5 -23t-209.5 -4q-6 31 -22 75.5t-31 76.5q96 -5 175 -4.5t105 2.5q49 0 49 47v1632z" />
    <glyph glyph-name="uni523A" unicode="&#xf9ff;" 
d="M715 1702v-234h456v-139h-456v-190h407v-414q0 -46 -11 -74.5t-46 -44.5q-34 -17 -90 -19.5t-146 -2.5q-4 26 -16 59t-25 59q62 -1 109.5 -1t63.5 1q26 0 26 27v275h-272v-449q40 -25 101.5 -66.5t127.5 -86.5t120.5 -82.5t80.5 -55.5l-80 -131q-36 32 -96 80
t-127.5 100.5t-126.5 96.5v-564h-142v615q-89 -148 -202 -278t-230 -212q-10 31 -32.5 69t-40.5 64q97 64 192.5 160.5t177 211.5t135.5 233v295h-262v-418h-135v553h397v190h-460v139h460v234h142zM1432 1483v-1125h-146v1125h146zM1724 1673h148v-1632q0 -74 -20.5 -112
t-67.5 -58q-46 -18 -126.5 -23t-209.5 -4q-6 31 -22 75.5t-31 76.5q96 -5 175 -4.5t105 2.5q49 0 49 47v1632z" />
    <glyph glyph-name="uni523B" unicode="&#x523b;" 
d="M942 1180l137 -45q-139 -271 -363 -483t-480 -349q-14 22 -44 60.5t-53 60.5q162 77 309 185.5t269 240.5q-149 -9 -240.5 -15t-142 -11t-74.5 -10t-39 -11q-4 23 -18.5 68.5t-28.5 74.5q28 5 56.5 27t62.5 57q16 18 52.5 61t82.5 102t90 126h-401v139h526
q-17 52 -47 113t-66 115l140 36q43 -61 81.5 -134.5t53.5 -127.5l-6 -2h426v-139h-531q-66 -97 -140 -188.5t-151 -167.5l418 18q34 48 65.5 97t55.5 102zM1075 793l139 -54q-127 -214 -294 -391q57 -50 119 -106t117 -109.5t91 -95.5l-110 -103q-51 65 -139.5 152.5
t-176.5 165.5q-135 -123 -286.5 -225t-311.5 -181q-14 25 -44.5 65.5t-53.5 63.5q198 84 377 206.5t326 276.5t247 335zM1518 1475v-1131h-146v1131h146zM1739 1683h149v-1642q0 -74 -20 -110t-66 -56q-47 -17 -128 -22t-212 -5q-4 31 -18 73t-31 73q94 -3 172 -3.5t103 1.5
q27 1 39 11t12 38v1642z" />
    <glyph glyph-name="uni5242" unicode="&#x5242;" 
d="M391 477v225h137v-227q0 -101 -24.5 -213t-100 -218.5t-229.5 -193.5q-15 24 -42 53t-50 48q137 76 203 166.5t86 183.5t20 176zM879 -150v850h137v-850h-137zM545 1675l127 43q44 -55 83.5 -122t63.5 -119h432v-136h-192q-36 -98 -89 -180t-122 -149q112 -62 211 -118.5
t170 -102.5l-82 -117q-75 52 -180 116t-224 130q-118 -88 -264 -150.5t-315 -105.5q-11 24 -35 61.5t-45 58.5q157 33 291 84t241 123q-87 46 -174.5 90t-169.5 84l84 101q88 -42 183 -90t190 -97q115 109 178 262h-774v136h526q-21 47 -52.5 100.5t-61.5 97.5zM1497 1438
v-1028h-139v1028h139zM1737 1696h137v-1651q0 -72 -20.5 -107.5t-63.5 -54.5q-46 -18 -126.5 -23t-209.5 -3q-6 29 -20 69.5t-29 71.5q98 -3 177 -3.5t104 1.5q27 1 39 11t12 38v1651z" />
    <glyph glyph-name="uni5243" unicode="&#x5243;" 
d="M598 870h-268q-8 -56 -15.5 -114.5t-15.5 -110.5h299v225zM737 1249v-250h277v250h-277zM737 645h441l-1.5 -23t-2.5 -38q-13 -245 -29.5 -358t-46.5 -148q-38 -44 -105 -49q-27 -5 -75.5 -5t-100.5 3q-3 32 -12 70.5t-23 66.5q49 -5 89 -6.5t59 -1.5q20 0 33 3t22 15
q15 20 28 96.5t23 245.5h-299v-676h-139v545q-88 -127 -198.5 -233t-225.5 -170q-15 26 -44.5 58.5t-53.5 53.5q129 63 252.5 177.5t206.5 244.5h-383q11 65 22.5 148t21 170.5t15.5 164.5h387v250h-446v131h286q-21 63 -57 138.5t-78 138.5l117 47q47 -69 89.5 -153.5
t59.5 -145.5l-55 -25h262q40 71 81 164.5t67 165.5l145 -41q-37 -74 -75.5 -149t-73.5 -140h229v-510h-412v-225zM1497 1487v-1122h-139v1122h139zM1726 1704h146v-1659q0 -72 -19.5 -109t-62.5 -57q-46 -18 -125 -24t-205 -5q-6 31 -20.5 74.5t-28.5 75.5q94 -3 168.5 -3.5
t97.5 1.5q26 1 37.5 10.5t11.5 34.5v1661z" />
    <glyph glyph-name="uni524A" unicode="&#x524a;" 
d="M408 1247l-136 -51q-17 78 -58.5 189t-86.5 204l127 43q48 -90 91 -198t63 -187zM332 465h557v207h-557v-207zM889 1008h-557v-203h557v203zM1036 1151v-1114q0 -63 -15 -97t-58 -53q-43 -20 -114.5 -23t-186.5 -3q-4 30 -16 70t-28 71q80 -3 146 -2.5t86 0.5
q21 2 30 9.5t9 29.5v293h-557v-477h-146v1296h346v561h150v-561h354zM938 1200l-127 39q29 55 60 127.5t58.5 147.5t45.5 139l153 -43q-43 -106 -94 -218t-96 -192zM1405 1470v-1120h-148v1120h148zM1718 1673h150v-1628q0 -77 -22.5 -116.5t-69.5 -57.5
q-51 -18 -139.5 -23.5t-229.5 -5.5q-6 31 -22 76.5t-33 77.5q109 -3 195.5 -3.5t117.5 1.5q53 0 53 49v1630z" />
    <glyph glyph-name="uni524D" unicode="&#x524d;" 
d="M389 414h453v204h-453v-204zM842 938h-453v-201h453v201zM989 1069v-1051q0 -58 -16 -90t-58 -51q-43 -18 -111.5 -21t-172.5 -3q-6 29 -20 67t-29 66q76 -3 138.5 -3.5t82.5 1.5q23 1 31 9t8 27v273h-453v-440h-145v1216h745zM1649 35v1075h149v-1075q0 -69 -18 -104
t-64 -54q-49 -18 -128 -23t-195 -4q-7 31 -23 73t-33 73q94 -3 169 -3.5t98 1.5q26 1 35.5 9.5t9.5 31.5zM1378 1049v-832h-141v832h141zM1456 1391h477v-140h-1816v140h501q-27 59 -80.5 135t-105.5 137l139 53q60 -64 118 -145.5t87 -140.5l-100 -39h610
q52 73 105.5 165.5t87.5 165.5l159 -53q-41 -71 -89 -143t-93 -135z" />
    <glyph glyph-name="uni5251" unicode="&#x5251;" 
d="M928 193l282 47l7 -131q-181 -34 -364 -68t-350 -65t-300 -56l-39 150q120 17 280.5 43t341.5 55q43 91 88.5 208t85 236.5t66.5 218.5l139 -32q-49 -148 -112.5 -312t-124.5 -294zM1040 1102v-131h-686v131h686zM791 379l-129 -33q-7 62 -21 141t-32.5 162t-39.5 156
l121 26q32 -109 60 -235t41 -217zM209 725l117 37q30 -72 58 -153.5t49.5 -159.5t31.5 -140l-125 -45q-9 63 -29.5 142.5t-47 162.5t-54.5 156zM655 1733l127 -50q-9 -18 -19.5 -36.5t-21.5 -36.5q98 -77 201 -165.5t192.5 -173.5t145.5 -153l-90 -112q-53 67 -137.5 153
t-183 175t-193.5 167q-112 -172 -253.5 -322t-287.5 -259q-9 23 -32.5 67.5t-43.5 69.5q116 79 227.5 185.5t207 231t161.5 259.5zM1511 1468v-1126h-135v1126h135zM1745 1673h135v-1634q0 -72 -19.5 -107.5t-64.5 -54.5q-46 -17 -128 -22.5t-216 -4.5q-6 30 -19 69.5
t-30 70.5q103 -3 184.5 -3.5t106.5 1.5q27 1 39 11.5t12 39.5v1634z" />
    <glyph glyph-name="uni5256" unicode="&#x5256;" 
d="M1176 1466v-139h-1020v139h460q-16 51 -39.5 109.5t-48.5 107.5l131 35q33 -58 62.5 -128.5t46.5 -123.5h408zM567 973l-139 -39q-14 69 -49.5 166t-75.5 178l133 33q43 -79 79.5 -174t51.5 -164zM950 461h-561v-371h561v371zM242 -143v741h860v-725h-152v82h-561v-98
h-147zM903 1315l156 -33q-36 -89 -74.5 -185t-77.5 -175h324v-142h-1135v142h662q41 86 81.5 196.5t63.5 196.5zM1483 1483v-1135h-144v1135h144zM1708 1671h141v-1632q0 -71 -18 -106.5t-59 -55.5q-45 -18 -121 -23t-197 -4q-5 31 -18.5 72t-28.5 72q88 -2 159.5 -2t94.5 2
q25 0 36 9.5t11 35.5v1632z" />
    <glyph glyph-name="uni5265" unicode="&#x5265;" 
d="M950 1640l103 -8q-3 -130 -10.5 -295t-16.5 -309h229v-131h-510v-344q20 -11 40.5 -24.5t41.5 -28.5q60 78 121 170t101 166l129 -74q-56 -82 -121.5 -170t-126.5 -162q93 -66 177 -133t136 -119l-92 -112q-65 69 -177.5 159.5t-228.5 173.5v-389q0 -63 -16 -95.5
t-57 -49.5q-45 -17 -117 -21t-178 -4q-5 31 -17 69t-26 68q81 -3 145.5 -2.5t85.5 0.5q23 2 30 9.5t7 27.5v353q-118 -86 -237 -168.5t-215 -147.5l-80 125q99 57 242.5 149.5t289.5 190.5v383h-496v131h779q3 42 5.5 87t4.5 89h-621v125h627q3 46 5 91t3 83h-676v129h693z
M154 756l104 73q69 -64 132 -144.5t95 -141.5l-112 -80q-29 60 -91 143.5t-128 149.5zM1493 1491v-1126h-143v1126h143zM1729 1675h145v-1638q0 -72 -19.5 -109t-62.5 -57q-46 -20 -124.5 -25t-203.5 -4q-6 31 -20.5 73.5t-28.5 76.5q92 -3 167 -3.5t99 1.5q25 1 36.5 11
t11.5 36v1638z" />
    <glyph glyph-name="uni5267" unicode="&#x5267;" 
d="M375 883h358v221h-352q0 -105 -6 -221zM1022 1475h-641v-236h641v236zM1042 76v309h-493v-309h493zM870 1104v-221h381v-138h-381v-229h310v-655h-138v84h-493v-90h-133v661h317v229h-368q-17 -207 -58.5 -422t-124.5 -389q-11 17 -32.5 41t-43.5 45.5t-34 30.5
q56 125 89 269.5t49 293t21 289.5t5 260v447h929v-506h-295zM1511 1473v-1127h-137v1127h137zM1726 1673h142v-1648q0 -68 -17 -103t-55 -53q-41 -19 -109 -24t-176 -5q-4 29 -17.5 71t-27.5 73q76 -2 138 -2h82q23 1 31.5 9t8.5 32v1650z" />
    <glyph glyph-name="uni5269" unicode="&#x5269;" 
d="M154 543l-33 110q60 13 130.5 29t151.5 35v153h-247v113h247v145h119v-647h-119v129q-64 -18 -126.5 -35t-122.5 -32zM903 1126h117v-213q51 27 98 56.5t78 60.5l90 -90q-58 -38 -129 -73.5t-137 -61.5v-164q0 -31 7.5 -38t33.5 -7h108q25 0 33.5 25t11.5 118
q19 -12 47.5 -23t53.5 -18q-8 -119 -36.5 -161.5t-92.5 -42.5h-142q-86 0 -113.5 30.5t-27.5 116.5v485zM788 1503v-188h529v-131h-529v-662q50 -31 121 -80t145.5 -102t135 -97.5t88.5 -66.5l-84 -125q-39 37 -108 95t-148.5 122t-149.5 117v-532h-143v507
q-100 -135 -218.5 -254t-233.5 -194q-17 25 -46.5 59t-54.5 54q97 56 200 143.5t195.5 192.5t157.5 212v611h-524v131h524v172q-109 -12 -218 -20t-210 -13q-5 25 -16 60t-23 61q123 7 254.5 18t258 27t236 37t187.5 47l109 -111q-89 -29 -200.5 -51.5t-234.5 -38.5z
M1546 1466v-1124h-139v1124h139zM1731 1692h147v-1655q0 -72 -19.5 -107t-62.5 -55q-44 -18 -120.5 -23.5t-198.5 -5.5q-5 31 -19.5 73t-30.5 73q88 -2 160.5 -2h95.5q25 1 36.5 11t11.5 36v1655z" />
    <glyph glyph-name="uni526A" unicode="&#x526a;" 
d="M1790 469l-6 -63q-25 -236 -52.5 -347t-68.5 -151q-31 -29 -64 -39.5t-83 -13.5q-45 -2 -127 -1t-175 7q-3 30 -14.5 67t-30.5 66q93 -11 175 -12.5t114 -1.5t51 3t33 15q28 23 49 102.5t39 243.5h-633q-40 -139 -128 -238.5t-253 -165t-436 -104.5q-9 28 -31 67t-40 62
q243 29 391 77.5t226.5 123t113.5 178.5h-662v125h1612zM412 846h446v123h-446v-123zM858 1182h-446v-121h446v121zM987 1282v-602q0 -46 -11.5 -68.5t-43.5 -36.5q-31 -13 -82.5 -15.5t-122.5 -2.5q-5 25 -15.5 51t-21.5 47q51 -1 89.5 -1.5t54.5 -0.5q24 3 24 27v74h-446
v-195h-129v723h704zM1219 1257h133v-522h-133v522zM1745 1313v-633q0 -52 -13.5 -76.5t-52.5 -38.5q-35 -14 -94 -16t-145 -2q-6 26 -17.5 55t-23.5 53q63 -3 113 -3t67 1q31 3 31 29v631h135zM1430 1509h483v-120h-1774v120h463q-20 40 -51 89t-64 88l138 34
q37 -43 73.5 -95.5t53.5 -92.5l-78 -23h600q34 48 70.5 106.5t56.5 102.5l151 -32q-29 -47 -60.5 -92.5t-61.5 -84.5z" />
    <glyph glyph-name="uni526F" unicode="&#x526f;" 
d="M627 598h-308v-192h308v192zM1071 406v192h-305v-192h305zM766 82h305v205h-305v-205zM319 82h308v205h-308v-205zM180 -152v871h1037v-848h-146v90h-752v-113h-139zM985 989v230h-594v-230h594zM252 1341h878v-475h-878v475zM125 1487v133h1122v-133h-1122zM1516 1466
v-1126h-136v1126h136zM1735 1673h147v-1632q0 -74 -20 -112t-66 -56q-48 -20 -129.5 -25t-212.5 -4q-5 31 -19.5 75.5t-31.5 76.5q98 -5 177 -4.5t103 2.5q52 0 52 47v1632z" />
    <glyph glyph-name="uni5272" unicode="&#x5272;" 
d="M1104 1225v180h-825v-180h352v114h139v-114h334zM989 70v252h-596v-252h596zM565 1688l137 34q28 -46 54.5 -102t40.5 -100h446v-303h-119v-107h-354v-133h305v-111h-305v-137h457v-115h-457v-159h354v-600h-135v96h-596v-109h-129v613h367v159h-484v115h484v137h-326
v111h326v133h-377v96h-111v314h494q-14 40 -33.5 85.5t-38.5 82.5zM1516 1434v-1102h-138v1102h138zM1747 1702h143v-1667q0 -71 -19.5 -106t-62.5 -54q-44 -20 -120.5 -25t-202.5 -4q-5 30 -18.5 72.5t-28.5 73.5q92 -3 164.5 -3.5t97.5 1.5q47 0 47 43v1669z" />
    <glyph glyph-name="uni5288" unicode="&#x5288;" 
d="M1880 1565v-121h-858v121h373q-11 32 -24.5 66t-29.5 63l123 35q22 -37 41 -81.5t31 -82.5h344zM788 1522h-436v-189h436v189zM446 958v-225h359v225h-359zM322 616v369q-19 -97 -53.5 -189.5t-92.5 -170.5q-15 18 -51 46.5t-59 39.5q67 92 99.5 201t42 218t9.5 201v311
h709v-428h-578q-3 -65 -12 -141h602v-457h-616zM211 498h1614l-1.5 -25t-4.5 -39q-25 -249 -53.5 -367t-71.5 -159q-33 -29 -68.5 -40.5t-89.5 -12.5q-45 -3 -131 -2t-182 6q-2 30 -13.5 68t-31.5 67q96 -11 184 -14t125 -3q31 0 51 3.5t35 17.5q29 25 50.5 110.5
t41.5 262.5h-637q-41 -144 -132 -248t-260.5 -174.5t-447.5 -112.5q-9 29 -30.5 70t-42.5 65q251 30 403.5 82t234.5 130.5t119 187.5h-661v127zM1942 1090h-420v-183h385v-121h-385v-229h-144v229h-377v121h377v183h-409v122h260q-19 45 -45 96t-54 93l111 41
q37 -54 69.5 -118t49.5 -112h201q26 53 53 117t43 113l129 -33q-22 -49 -46.5 -100.5t-47.5 -96.5h250v-122z" />
    </font>
</defs>
</svg>
